<?xml version="1.0" encoding="utf-8" standalone="no"?>
<!DOCTYPE svg PUBLIC "-//W3C//DTD SVG 1.1//EN"
  "http://www.w3.org/Graphics/SVG/1.1/DTD/svg11.dtd">
<!-- Created with matplotlib (http://matplotlib.org/) -->
<svg height="345pt" version="1.1" viewBox="0 0 460 345" width="460pt" xmlns="http://www.w3.org/2000/svg" xmlns:xlink="http://www.w3.org/1999/xlink">
 <defs>
  <style type="text/css">
*{stroke-linecap:butt;stroke-linejoin:round;}
  </style>
 </defs>
 <g id="figure_1">
  <g id="patch_1">
   <path d="M 0 345.6 
L 460.8 345.6 
L 460.8 0 
L 0 0 
z
" style="fill:#ffffff;"/>
  </g>
  <g id="axes_1">
   <g id="patch_2">
    <path d="M 57.6 119.740235 
L 414.72 119.740235 
L 414.72 41.472 
L 57.6 41.472 
z
" style="fill:#ffffff;"/>
   </g>
   <g id="matplotlib.axis_1">
    <g id="xtick_1">
     <g id="line2d_1">
      <path clip-path="url(#p9f002792cb)" d="M 113.363458 119.740235 
L 113.363458 41.472 
" style="fill:none;stroke:#b0b0b0;stroke-linecap:square;stroke-width:0.8;"/>
     </g>
     <g id="line2d_2">
      <defs>
       <path d="M 0 0 
L 0 3.5 
" id="md38ae83581" style="stroke:#000000;stroke-width:0.8;"/>
      </defs>
      <g>
       <use style="stroke:#000000;stroke-width:0.8;" x="113.363458" xlink:href="#md38ae83581" y="119.740235"/>
      </g>
     </g>
    </g>
    <g id="xtick_2">
     <g id="line2d_3">
      <path clip-path="url(#p9f002792cb)" d="M 174.680407 119.740235 
L 174.680407 41.472 
" style="fill:none;stroke:#b0b0b0;stroke-linecap:square;stroke-width:0.8;"/>
     </g>
     <g id="line2d_4">
      <g>
       <use style="stroke:#000000;stroke-width:0.8;" x="174.680407" xlink:href="#md38ae83581" y="119.740235"/>
      </g>
     </g>
    </g>
    <g id="xtick_3">
     <g id="line2d_5">
      <path clip-path="url(#p9f002792cb)" d="M 235.997357 119.740235 
L 235.997357 41.472 
" style="fill:none;stroke:#b0b0b0;stroke-linecap:square;stroke-width:0.8;"/>
     </g>
     <g id="line2d_6">
      <g>
       <use style="stroke:#000000;stroke-width:0.8;" x="235.997357" xlink:href="#md38ae83581" y="119.740235"/>
      </g>
     </g>
    </g>
    <g id="xtick_4">
     <g id="line2d_7">
      <path clip-path="url(#p9f002792cb)" d="M 297.314306 119.740235 
L 297.314306 41.472 
" style="fill:none;stroke:#b0b0b0;stroke-linecap:square;stroke-width:0.8;"/>
     </g>
     <g id="line2d_8">
      <g>
       <use style="stroke:#000000;stroke-width:0.8;" x="297.314306" xlink:href="#md38ae83581" y="119.740235"/>
      </g>
     </g>
    </g>
    <g id="xtick_5">
     <g id="line2d_9">
      <path clip-path="url(#p9f002792cb)" d="M 358.631256 119.740235 
L 358.631256 41.472 
" style="fill:none;stroke:#b0b0b0;stroke-linecap:square;stroke-width:0.8;"/>
     </g>
     <g id="line2d_10">
      <g>
       <use style="stroke:#000000;stroke-width:0.8;" x="358.631256" xlink:href="#md38ae83581" y="119.740235"/>
      </g>
     </g>
    </g>
   </g>
   <g id="matplotlib.axis_2">
    <g id="ytick_1">
     <g id="line2d_11">
      <path clip-path="url(#p9f002792cb)" d="M 57.6 116.142287 
L 414.72 116.142287 
" style="fill:none;stroke:#b0b0b0;stroke-linecap:square;stroke-width:0.8;"/>
     </g>
     <g id="line2d_12">
      <defs>
       <path d="M 0 0 
L -3.5 0 
" id="ma360eec439" style="stroke:#000000;stroke-width:0.8;"/>
      </defs>
      <g>
       <use style="stroke:#000000;stroke-width:0.8;" x="57.6" xlink:href="#ma360eec439" y="116.142287"/>
      </g>
     </g>
     <g id="text_1">
      <!-- 0.0 -->
      <defs>
       <path d="M 31.78125 66.40625 
Q 24.171875 66.40625 20.328125 58.90625 
Q 16.5 51.421875 16.5 36.375 
Q 16.5 21.390625 20.328125 13.890625 
Q 24.171875 6.390625 31.78125 6.390625 
Q 39.453125 6.390625 43.28125 13.890625 
Q 47.125 21.390625 47.125 36.375 
Q 47.125 51.421875 43.28125 58.90625 
Q 39.453125 66.40625 31.78125 66.40625 
z
M 31.78125 74.21875 
Q 44.046875 74.21875 50.515625 64.515625 
Q 56.984375 54.828125 56.984375 36.375 
Q 56.984375 17.96875 50.515625 8.265625 
Q 44.046875 -1.421875 31.78125 -1.421875 
Q 19.53125 -1.421875 13.0625 8.265625 
Q 6.59375 17.96875 6.59375 36.375 
Q 6.59375 54.828125 13.0625 64.515625 
Q 19.53125 74.21875 31.78125 74.21875 
z
" id="DejaVuSans-30"/>
       <path d="M 10.6875 12.40625 
L 21 12.40625 
L 21 0 
L 10.6875 0 
z
" id="DejaVuSans-2e"/>
      </defs>
      <g transform="translate(34.696875 119.941505)scale(0.1 -0.1)">
       <use xlink:href="#DejaVuSans-30"/>
       <use x="63.623047" xlink:href="#DejaVuSans-2e"/>
       <use x="95.410156" xlink:href="#DejaVuSans-30"/>
      </g>
     </g>
    </g>
    <g id="ytick_2">
     <g id="line2d_13">
      <path clip-path="url(#p9f002792cb)" d="M 57.6 69.714667 
L 414.72 69.714667 
" style="fill:none;stroke:#b0b0b0;stroke-linecap:square;stroke-width:0.8;"/>
     </g>
     <g id="line2d_14">
      <g>
       <use style="stroke:#000000;stroke-width:0.8;" x="57.6" xlink:href="#ma360eec439" y="69.714667"/>
      </g>
     </g>
     <g id="text_2">
      <!-- 0.2 -->
      <defs>
       <path d="M 19.1875 8.296875 
L 53.609375 8.296875 
L 53.609375 0 
L 7.328125 0 
L 7.328125 8.296875 
Q 12.9375 14.109375 22.625 23.890625 
Q 32.328125 33.6875 34.8125 36.53125 
Q 39.546875 41.84375 41.421875 45.53125 
Q 43.3125 49.21875 43.3125 52.78125 
Q 43.3125 58.59375 39.234375 62.25 
Q 35.15625 65.921875 28.609375 65.921875 
Q 23.96875 65.921875 18.8125 64.3125 
Q 13.671875 62.703125 7.8125 59.421875 
L 7.8125 69.390625 
Q 13.765625 71.78125 18.9375 73 
Q 24.125 74.21875 28.421875 74.21875 
Q 39.75 74.21875 46.484375 68.546875 
Q 53.21875 62.890625 53.21875 53.421875 
Q 53.21875 48.921875 51.53125 44.890625 
Q 49.859375 40.875 45.40625 35.40625 
Q 44.1875 33.984375 37.640625 27.21875 
Q 31.109375 20.453125 19.1875 8.296875 
z
" id="DejaVuSans-32"/>
      </defs>
      <g transform="translate(34.696875 73.513886)scale(0.1 -0.1)">
       <use xlink:href="#DejaVuSans-30"/>
       <use x="63.623047" xlink:href="#DejaVuSans-2e"/>
       <use x="95.410156" xlink:href="#DejaVuSans-32"/>
      </g>
     </g>
    </g>
    <g id="text_3">
     <!-- Verschleissprofil -->
     <defs>
      <path d="M 28.609375 0 
L 0.78125 72.90625 
L 11.078125 72.90625 
L 34.1875 11.53125 
L 57.328125 72.90625 
L 67.578125 72.90625 
L 39.796875 0 
z
" id="DejaVuSans-56"/>
      <path d="M 56.203125 29.59375 
L 56.203125 25.203125 
L 14.890625 25.203125 
Q 15.484375 15.921875 20.484375 11.0625 
Q 25.484375 6.203125 34.421875 6.203125 
Q 39.59375 6.203125 44.453125 7.46875 
Q 49.3125 8.734375 54.109375 11.28125 
L 54.109375 2.78125 
Q 49.265625 0.734375 44.1875 -0.34375 
Q 39.109375 -1.421875 33.890625 -1.421875 
Q 20.796875 -1.421875 13.15625 6.1875 
Q 5.515625 13.8125 5.515625 26.8125 
Q 5.515625 40.234375 12.765625 48.109375 
Q 20.015625 56 32.328125 56 
Q 43.359375 56 49.78125 48.890625 
Q 56.203125 41.796875 56.203125 29.59375 
z
M 47.21875 32.234375 
Q 47.125 39.59375 43.09375 43.984375 
Q 39.0625 48.390625 32.421875 48.390625 
Q 24.90625 48.390625 20.390625 44.140625 
Q 15.875 39.890625 15.1875 32.171875 
z
" id="DejaVuSans-65"/>
      <path d="M 41.109375 46.296875 
Q 39.59375 47.171875 37.8125 47.578125 
Q 36.03125 48 33.890625 48 
Q 26.265625 48 22.1875 43.046875 
Q 18.109375 38.09375 18.109375 28.8125 
L 18.109375 0 
L 9.078125 0 
L 9.078125 54.6875 
L 18.109375 54.6875 
L 18.109375 46.1875 
Q 20.953125 51.171875 25.484375 53.578125 
Q 30.03125 56 36.53125 56 
Q 37.453125 56 38.578125 55.875 
Q 39.703125 55.765625 41.0625 55.515625 
z
" id="DejaVuSans-72"/>
      <path d="M 44.28125 53.078125 
L 44.28125 44.578125 
Q 40.484375 46.53125 36.375 47.5 
Q 32.28125 48.484375 27.875 48.484375 
Q 21.1875 48.484375 17.84375 46.4375 
Q 14.5 44.390625 14.5 40.28125 
Q 14.5 37.15625 16.890625 35.375 
Q 19.28125 33.59375 26.515625 31.984375 
L 29.59375 31.296875 
Q 39.15625 29.25 43.1875 25.515625 
Q 47.21875 21.78125 47.21875 15.09375 
Q 47.21875 7.46875 41.1875 3.015625 
Q 35.15625 -1.421875 24.609375 -1.421875 
Q 20.21875 -1.421875 15.453125 -0.5625 
Q 10.6875 0.296875 5.421875 2 
L 5.421875 11.28125 
Q 10.40625 8.6875 15.234375 7.390625 
Q 20.0625 6.109375 24.8125 6.109375 
Q 31.15625 6.109375 34.5625 8.28125 
Q 37.984375 10.453125 37.984375 14.40625 
Q 37.984375 18.0625 35.515625 20.015625 
Q 33.0625 21.96875 24.703125 23.78125 
L 21.578125 24.515625 
Q 13.234375 26.265625 9.515625 29.90625 
Q 5.8125 33.546875 5.8125 39.890625 
Q 5.8125 47.609375 11.28125 51.796875 
Q 16.75 56 26.8125 56 
Q 31.78125 56 36.171875 55.265625 
Q 40.578125 54.546875 44.28125 53.078125 
z
" id="DejaVuSans-73"/>
      <path d="M 48.78125 52.59375 
L 48.78125 44.1875 
Q 44.96875 46.296875 41.140625 47.34375 
Q 37.3125 48.390625 33.40625 48.390625 
Q 24.65625 48.390625 19.8125 42.84375 
Q 14.984375 37.3125 14.984375 27.296875 
Q 14.984375 17.28125 19.8125 11.734375 
Q 24.65625 6.203125 33.40625 6.203125 
Q 37.3125 6.203125 41.140625 7.25 
Q 44.96875 8.296875 48.78125 10.40625 
L 48.78125 2.09375 
Q 45.015625 0.34375 40.984375 -0.53125 
Q 36.96875 -1.421875 32.421875 -1.421875 
Q 20.0625 -1.421875 12.78125 6.34375 
Q 5.515625 14.109375 5.515625 27.296875 
Q 5.515625 40.671875 12.859375 48.328125 
Q 20.21875 56 33.015625 56 
Q 37.15625 56 41.109375 55.140625 
Q 45.0625 54.296875 48.78125 52.59375 
z
" id="DejaVuSans-63"/>
      <path d="M 54.890625 33.015625 
L 54.890625 0 
L 45.90625 0 
L 45.90625 32.71875 
Q 45.90625 40.484375 42.875 44.328125 
Q 39.84375 48.1875 33.796875 48.1875 
Q 26.515625 48.1875 22.3125 43.546875 
Q 18.109375 38.921875 18.109375 30.90625 
L 18.109375 0 
L 9.078125 0 
L 9.078125 75.984375 
L 18.109375 75.984375 
L 18.109375 46.1875 
Q 21.34375 51.125 25.703125 53.5625 
Q 30.078125 56 35.796875 56 
Q 45.21875 56 50.046875 50.171875 
Q 54.890625 44.34375 54.890625 33.015625 
z
" id="DejaVuSans-68"/>
      <path d="M 9.421875 75.984375 
L 18.40625 75.984375 
L 18.40625 0 
L 9.421875 0 
z
" id="DejaVuSans-6c"/>
      <path d="M 9.421875 54.6875 
L 18.40625 54.6875 
L 18.40625 0 
L 9.421875 0 
z
M 9.421875 75.984375 
L 18.40625 75.984375 
L 18.40625 64.59375 
L 9.421875 64.59375 
z
" id="DejaVuSans-69"/>
      <path d="M 18.109375 8.203125 
L 18.109375 -20.796875 
L 9.078125 -20.796875 
L 9.078125 54.6875 
L 18.109375 54.6875 
L 18.109375 46.390625 
Q 20.953125 51.265625 25.265625 53.625 
Q 29.59375 56 35.59375 56 
Q 45.5625 56 51.78125 48.09375 
Q 58.015625 40.1875 58.015625 27.296875 
Q 58.015625 14.40625 51.78125 6.484375 
Q 45.5625 -1.421875 35.59375 -1.421875 
Q 29.59375 -1.421875 25.265625 0.953125 
Q 20.953125 3.328125 18.109375 8.203125 
z
M 48.6875 27.296875 
Q 48.6875 37.203125 44.609375 42.84375 
Q 40.53125 48.484375 33.40625 48.484375 
Q 26.265625 48.484375 22.1875 42.84375 
Q 18.109375 37.203125 18.109375 27.296875 
Q 18.109375 17.390625 22.1875 11.75 
Q 26.265625 6.109375 33.40625 6.109375 
Q 40.53125 6.109375 44.609375 11.75 
Q 48.6875 17.390625 48.6875 27.296875 
z
" id="DejaVuSans-70"/>
      <path d="M 30.609375 48.390625 
Q 23.390625 48.390625 19.1875 42.75 
Q 14.984375 37.109375 14.984375 27.296875 
Q 14.984375 17.484375 19.15625 11.84375 
Q 23.34375 6.203125 30.609375 6.203125 
Q 37.796875 6.203125 41.984375 11.859375 
Q 46.1875 17.53125 46.1875 27.296875 
Q 46.1875 37.015625 41.984375 42.703125 
Q 37.796875 48.390625 30.609375 48.390625 
z
M 30.609375 56 
Q 42.328125 56 49.015625 48.375 
Q 55.71875 40.765625 55.71875 27.296875 
Q 55.71875 13.875 49.015625 6.21875 
Q 42.328125 -1.421875 30.609375 -1.421875 
Q 18.84375 -1.421875 12.171875 6.21875 
Q 5.515625 13.875 5.515625 27.296875 
Q 5.515625 40.765625 12.171875 48.375 
Q 18.84375 56 30.609375 56 
z
" id="DejaVuSans-6f"/>
      <path d="M 37.109375 75.984375 
L 37.109375 68.5 
L 28.515625 68.5 
Q 23.6875 68.5 21.796875 66.546875 
Q 19.921875 64.59375 19.921875 59.515625 
L 19.921875 54.6875 
L 34.71875 54.6875 
L 34.71875 47.703125 
L 19.921875 47.703125 
L 19.921875 0 
L 10.890625 0 
L 10.890625 47.703125 
L 2.296875 47.703125 
L 2.296875 54.6875 
L 10.890625 54.6875 
L 10.890625 58.5 
Q 10.890625 67.625 15.140625 71.796875 
Q 19.390625 75.984375 28.609375 75.984375 
z
" id="DejaVuSans-66"/>
     </defs>
     <g transform="translate(28.617187 121.565493)rotate(-90)scale(0.1 -0.1)">
      <use xlink:href="#DejaVuSans-56"/>
      <use x="68.298828" xlink:href="#DejaVuSans-65"/>
      <use x="129.822266" xlink:href="#DejaVuSans-72"/>
      <use x="170.935547" xlink:href="#DejaVuSans-73"/>
      <use x="223.035156" xlink:href="#DejaVuSans-63"/>
      <use x="278.015625" xlink:href="#DejaVuSans-68"/>
      <use x="341.394531" xlink:href="#DejaVuSans-6c"/>
      <use x="369.177734" xlink:href="#DejaVuSans-65"/>
      <use x="430.701172" xlink:href="#DejaVuSans-69"/>
      <use x="458.484375" xlink:href="#DejaVuSans-73"/>
      <use x="510.583984" xlink:href="#DejaVuSans-73"/>
      <use x="562.683594" xlink:href="#DejaVuSans-70"/>
      <use x="626.160156" xlink:href="#DejaVuSans-72"/>
      <use x="667.242188" xlink:href="#DejaVuSans-6f"/>
      <use x="728.423828" xlink:href="#DejaVuSans-66"/>
      <use x="763.628906" xlink:href="#DejaVuSans-69"/>
      <use x="791.412109" xlink:href="#DejaVuSans-6c"/>
     </g>
    </g>
   </g>
   <g id="line2d_15">
    <path clip-path="url(#p9f002792cb)" d="M 73.832727 45.029647 
L 77.736471 71.160411 
L 79.362903 80.956149 
L 81.314621 91.331555 
L 83.266647 99.676334 
L 84.242506 103.08622 
L 85.218365 105.809068 
L 85.868938 107.224087 
L 87.17039 109.989914 
L 88.471536 111.972922 
L 89.772681 113.30136 
L 91.073827 113.595446 
L 100.833033 114.453013 
L 101.483606 114.482678 
L 104.41149 114.68007 
L 105.387349 114.724928 
L 108.64052 114.933026 
L 109.616379 114.977406 
L 110.266952 115.006449 
L 111.568098 115.101435 
L 112.543957 115.164175 
L 113.19453 115.219554 
L 115.797128 115.334936 
L 119.050298 115.432246 
L 120.026158 115.480969 
L 120.676731 115.463647 
L 121.65259 115.5732 
L 122.628449 115.585183 
L 125.556333 115.663381 
L 126.532193 115.637482 
L 127.182765 115.714496 
L 128.483911 115.679538 
L 129.134484 115.757221 
L 130.435936 115.763161 
L 131.737082 115.817888 
L 135.640825 115.857762 
L 135.966112 115.814092 
L 136.616685 115.914311 
L 172.07505 116.144694 
L 172.725623 116.127903 
L 175.327914 116.118609 
L 177.279633 116.140706 
L 177.930512 116.117225 
L 179.556944 116.12463 
L 180.85809 116.095146 
L 182.159236 116.141757 
L 186.062979 116.107169 
L 187.364125 116.131068 
L 190.292009 116.111378 
L 191.593155 116.130863 
L 198.09919 116.125136 
L 199.725929 116.145544 
L 201.027074 116.142927 
L 202.653506 116.15478 
L 203.954652 116.143009 
L 210.460993 116.172704 
L 211.762139 116.15011 
L 244.943193 116.161206 
L 249.172223 116.167699 
L 250.473369 116.15609 
L 254.051826 116.115927 
L 256.003544 116.148891 
L 259.256715 116.105249 
L 259.907288 116.150444 
L 260.557861 116.157657 
L 265.112177 116.097066 
L 265.76275 116.118455 
L 270.317067 116.140692 
L 272.268785 116.12717 
L 274.22081 116.140063 
L 277.148388 116.127302 
L 280.076272 116.127383 
L 301.871688 116.106101 
L 302.196975 115.957742 
L 302.847548 116.077998 
L 305.124553 116.097428 
L 313.257326 116.075159 
L 316.185211 116.070294 
L 321.715386 116.034066 
L 322.691245 116.037829 
L 324.642964 115.984391 
L 326.594989 115.875367 
L 326.920275 116.051948 
L 328.221421 115.992917 
L 331.148999 115.97745 
L 331.474285 115.912475 
L 332.125165 115.975314 
L 335.378029 115.861523 
L 335.703315 116.035192 
L 336.353888 115.876268 
L 336.679175 115.96842 
L 337.330054 115.912535 
L 338.6312 115.899517 
L 342.86023 115.816209 
L 343.185516 115.857472 
L 343.510802 115.721769 
L 344.161375 115.786493 
L 347.088953 115.768312 
L 347.739526 115.728682 
L 348.715692 115.659108 
L 349.040978 115.732579 
L 350.016837 115.680622 
L 350.992697 115.631964 
L 351.643269 115.565328 
L 351.968556 115.625879 
L 352.293842 115.530582 
L 352.944415 115.606159 
L 353.270008 115.527216 
L 353.595295 115.615765 
L 354.571154 115.519699 
L 355.872299 115.506038 
L 364.005073 115.204899 
L 364.330359 115.133784 
L 364.655646 115.202828 
L 365.306219 115.126098 
L 367.257937 115.06424 
L 367.583224 114.977093 
L 367.90851 115.009504 
L 368.233796 114.918176 
L 368.884369 115.009337 
L 369.535249 114.880776 
L 371.486967 114.843671 
L 374.414545 114.660507 
L 376.691856 114.518334 
L 378.968861 114.276347 
L 379.619434 114.275172 
L 380.5956 114.208416 
L 381.246173 114.186969 
L 382.222032 114.038238 
L 382.547319 114.093434 
L 383.197891 114.020201 
L 384.499037 113.89558 
L 384.824323 113.764178 
L 385.14961 113.872222 
L 386.451062 113.663319 
L 387.752208 113.505126 
L 389.703926 111.643049 
L 391.005379 109.937792 
L 392.306524 107.579499 
L 393.60767 104.616537 
L 394.908816 100.945208 
L 395.884981 97.560071 
L 397.186127 92.286269 
L 398.487273 86.459282 
L 398.487273 86.459282 
" style="fill:none;stroke:#1f77b4;stroke-linecap:square;stroke-width:1.5;"/>
   </g>
   <g id="line2d_16">
    <path clip-path="url(#p9f002792cb)" d="M 73.832727 113.999149 
L 74.158014 114.2678 
L 74.4833 114.424789 
L 75.459159 114.692658 
L 77.411184 114.959376 
L 81.314621 115.223653 
L 88.796822 115.475263 
L 103.435631 115.717162 
L 132.062368 115.938056 
L 185.412406 116.10272 
L 267.714469 116.127209 
L 337.980627 115.947929 
L 372.462826 115.668015 
L 387.426921 115.35485 
L 393.60767 115.0448 
L 396.210268 114.7521 
L 397.511413 114.424789 
L 398.161986 113.999149 
L 398.161986 113.999149 
" style="fill:none;stroke:#ff7f0e;stroke-linecap:square;stroke-width:1.5;"/>
   </g>
   <g id="line2d_17">
    <path clip-path="url(#p9f002792cb)" d="M 73.832727 116.142287 
L 87.17039 116.142287 
L 87.495677 110.526499 
L 88.471536 111.972922 
L 89.772681 113.30136 
L 91.073827 113.595446 
L 100.833033 114.453013 
L 101.483606 114.482678 
L 104.41149 114.68007 
L 105.387349 114.724928 
L 108.64052 114.933026 
L 109.616379 114.977406 
L 110.266952 115.006449 
L 111.568098 115.101435 
L 112.543957 115.164175 
L 113.19453 115.219554 
L 115.797128 115.334936 
L 119.050298 115.432246 
L 120.026158 115.480969 
L 120.676731 115.463647 
L 121.65259 115.5732 
L 122.628449 115.585183 
L 125.556333 115.663381 
L 126.532193 115.637482 
L 127.182765 115.714496 
L 128.483911 115.679538 
L 129.134484 115.757221 
L 130.435936 115.763161 
L 131.737082 115.817888 
L 135.640825 115.857762 
L 135.966112 115.814092 
L 136.616685 115.914311 
L 172.07505 116.144694 
L 172.725623 116.127903 
L 175.327914 116.118609 
L 177.279633 116.140706 
L 177.930512 116.117225 
L 179.556944 116.12463 
L 180.85809 116.095146 
L 182.159236 116.141757 
L 186.062979 116.107169 
L 187.364125 116.131068 
L 190.292009 116.111378 
L 191.593155 116.130863 
L 198.09919 116.125136 
L 199.725929 116.145544 
L 201.027074 116.142927 
L 202.653506 116.15478 
L 203.954652 116.143009 
L 210.460993 116.172704 
L 211.762139 116.15011 
L 244.943193 116.161206 
L 249.172223 116.167699 
L 250.473369 116.15609 
L 254.051826 116.115927 
L 256.003544 116.148891 
L 259.256715 116.105249 
L 259.907288 116.150444 
L 260.557861 116.157657 
L 265.112177 116.097066 
L 265.76275 116.118455 
L 270.317067 116.140692 
L 272.268785 116.12717 
L 274.22081 116.140063 
L 277.148388 116.127302 
L 280.076272 116.127383 
L 301.871688 116.106101 
L 302.196975 115.957742 
L 302.847548 116.077998 
L 305.124553 116.097428 
L 313.257326 116.075159 
L 316.185211 116.070294 
L 321.715386 116.034066 
L 322.691245 116.037829 
L 324.642964 115.984391 
L 326.594989 115.875367 
L 326.920275 116.051948 
L 328.221421 115.992917 
L 331.148999 115.97745 
L 331.474285 115.912475 
L 332.125165 115.975314 
L 335.378029 115.861523 
L 335.703315 116.035192 
L 336.353888 115.876268 
L 336.679175 115.96842 
L 337.330054 115.912535 
L 338.6312 115.899517 
L 342.86023 115.816209 
L 343.185516 115.857472 
L 343.510802 115.721769 
L 344.161375 115.786493 
L 347.088953 115.768312 
L 347.739526 115.728682 
L 348.715692 115.659108 
L 349.040978 115.732579 
L 350.016837 115.680622 
L 350.992697 115.631964 
L 351.643269 115.565328 
L 351.968556 115.625879 
L 352.293842 115.530582 
L 352.944415 115.606159 
L 353.270008 115.527216 
L 353.595295 115.615765 
L 354.571154 115.519699 
L 355.872299 115.506038 
L 364.005073 115.204899 
L 364.330359 115.133784 
L 364.655646 115.202828 
L 365.306219 115.126098 
L 367.257937 115.06424 
L 367.583224 114.977093 
L 367.90851 115.009504 
L 368.233796 114.918176 
L 368.884369 115.009337 
L 369.535249 114.880776 
L 371.486967 114.843671 
L 374.414545 114.660507 
L 376.691856 114.518334 
L 378.968861 114.276347 
L 379.619434 114.275172 
L 380.5956 114.208416 
L 381.246173 114.186969 
L 382.222032 114.038238 
L 382.547319 114.093434 
L 383.197891 114.020201 
L 384.499037 113.89558 
L 384.824323 113.764178 
L 385.14961 113.872222 
L 386.451062 113.663319 
L 387.752208 113.505126 
L 389.703926 111.643049 
L 390.680092 110.413021 
L 391.005379 116.142287 
L 398.487273 116.142287 
L 398.487273 116.142287 
" style="fill:none;stroke:#2ca02c;stroke-linecap:square;stroke-width:1.5;"/>
   </g>
   <g id="line2d_18">
    <path clip-path="url(#p9f002792cb)" d="M 73.832727 116.142287 
L 89.122109 116.142287 
L 89.447395 112.999132 
L 89.772681 113.30136 
L 91.073827 113.595446 
L 100.833033 114.453013 
L 101.483606 114.482678 
L 104.41149 114.68007 
L 105.387349 114.724928 
L 108.64052 114.933026 
L 109.616379 114.977406 
L 110.266952 115.006449 
L 111.568098 115.101435 
L 112.543957 115.164175 
L 113.19453 115.219554 
L 115.797128 115.334936 
L 119.050298 115.432246 
L 120.026158 115.480969 
L 120.676731 115.463647 
L 121.65259 115.5732 
L 122.628449 115.585183 
L 125.556333 115.663381 
L 126.532193 115.637482 
L 127.182765 115.714496 
L 128.483911 115.679538 
L 129.134484 115.757221 
L 130.435936 115.763161 
L 131.737082 115.817888 
L 135.640825 115.857762 
L 135.966112 115.814092 
L 136.616685 115.914311 
L 172.07505 116.144694 
L 172.725623 116.127903 
L 175.327914 116.118609 
L 177.279633 116.140706 
L 177.930512 116.117225 
L 179.556944 116.12463 
L 180.85809 116.095146 
L 182.159236 116.141757 
L 186.062979 116.107169 
L 187.364125 116.131068 
L 190.292009 116.111378 
L 191.593155 116.130863 
L 198.09919 116.125136 
L 199.725929 116.145544 
L 201.027074 116.142927 
L 202.653506 116.15478 
L 203.954652 116.143009 
L 210.460993 116.172704 
L 211.762139 116.15011 
L 244.943193 116.161206 
L 249.172223 116.167699 
L 250.473369 116.15609 
L 254.051826 116.115927 
L 256.003544 116.148891 
L 259.256715 116.105249 
L 259.907288 116.150444 
L 260.557861 116.157657 
L 265.112177 116.097066 
L 265.76275 116.118455 
L 270.317067 116.140692 
L 272.268785 116.12717 
L 274.22081 116.140063 
L 277.148388 116.127302 
L 280.076272 116.127383 
L 301.871688 116.106101 
L 302.196975 115.957742 
L 302.847548 116.077998 
L 305.124553 116.097428 
L 313.257326 116.075159 
L 316.185211 116.070294 
L 321.715386 116.034066 
L 322.691245 116.037829 
L 324.642964 115.984391 
L 326.594989 115.875367 
L 326.920275 116.051948 
L 328.221421 115.992917 
L 331.148999 115.97745 
L 331.474285 115.912475 
L 332.125165 115.975314 
L 335.378029 115.861523 
L 335.703315 116.035192 
L 336.353888 115.876268 
L 336.679175 115.96842 
L 337.330054 115.912535 
L 338.6312 115.899517 
L 342.86023 115.816209 
L 343.185516 115.857472 
L 343.510802 115.721769 
L 344.161375 115.786493 
L 347.088953 115.768312 
L 347.739526 115.728682 
L 348.715692 115.659108 
L 349.040978 115.732579 
L 350.016837 115.680622 
L 350.992697 115.631964 
L 351.643269 115.565328 
L 351.968556 115.625879 
L 352.293842 115.530582 
L 352.944415 115.606159 
L 353.270008 115.527216 
L 353.595295 115.615765 
L 354.571154 115.519699 
L 355.872299 115.506038 
L 364.005073 115.204899 
L 364.330359 115.133784 
L 364.655646 115.202828 
L 365.306219 115.126098 
L 367.257937 115.06424 
L 367.583224 114.977093 
L 367.90851 115.009504 
L 368.233796 114.918176 
L 368.884369 115.009337 
L 369.535249 114.880776 
L 371.486967 114.843671 
L 374.414545 114.660507 
L 376.691856 114.518334 
L 378.968861 114.276347 
L 379.619434 114.275172 
L 380.5956 114.208416 
L 381.246173 114.186969 
L 382.222032 114.038238 
L 382.547319 114.093434 
L 383.197891 114.020201 
L 384.499037 113.89558 
L 384.824323 113.764178 
L 385.14961 113.872222 
L 386.451062 113.663319 
L 387.752208 113.505126 
L 388.077494 113.209932 
L 388.402781 116.142287 
L 398.487273 116.142287 
L 398.487273 116.142287 
" style="fill:none;stroke:#d62728;stroke-linecap:square;stroke-width:1.5;"/>
   </g>
   <g id="patch_3">
    <path d="M 57.6 119.740235 
L 57.6 41.472 
" style="fill:none;stroke:#000000;stroke-linecap:square;stroke-linejoin:miter;stroke-width:0.8;"/>
   </g>
   <g id="patch_4">
    <path d="M 414.72 119.740235 
L 414.72 41.472 
" style="fill:none;stroke:#000000;stroke-linecap:square;stroke-linejoin:miter;stroke-width:0.8;"/>
   </g>
   <g id="patch_5">
    <path d="M 57.6 119.740235 
L 414.72 119.740235 
" style="fill:none;stroke:#000000;stroke-linecap:square;stroke-linejoin:miter;stroke-width:0.8;"/>
   </g>
   <g id="patch_6">
    <path d="M 57.6 41.472 
L 414.72 41.472 
" style="fill:none;stroke:#000000;stroke-linecap:square;stroke-linejoin:miter;stroke-width:0.8;"/>
   </g>
   <g id="legend_1">
    <g id="patch_7">
     <path d="M 381.008 103.1845 
L 552.104875 103.1845 
Q 554.104875 103.1845 554.104875 101.1845 
L 554.104875 43.472 
Q 554.104875 41.472 552.104875 41.472 
L 381.008 41.472 
Q 379.008 41.472 379.008 43.472 
L 379.008 101.1845 
Q 379.008 103.1845 381.008 103.1845 
z
" style="fill:#ffffff;opacity:0.8;stroke:#cccccc;stroke-linejoin:miter;"/>
    </g>
    <g id="line2d_19">
     <path d="M 383.008 49.570437 
L 403.008 49.570437 
" style="fill:none;stroke:#1f77b4;stroke-linecap:square;stroke-width:1.5;"/>
    </g>
    <g id="line2d_20"/>
    <g id="text_4">
     <!-- Gemessenes Profil -->
     <defs>
      <path d="M 59.515625 10.40625 
L 59.515625 29.984375 
L 43.40625 29.984375 
L 43.40625 38.09375 
L 69.28125 38.09375 
L 69.28125 6.78125 
Q 63.578125 2.734375 56.6875 0.65625 
Q 49.8125 -1.421875 42 -1.421875 
Q 24.90625 -1.421875 15.25 8.5625 
Q 5.609375 18.5625 5.609375 36.375 
Q 5.609375 54.25 15.25 64.234375 
Q 24.90625 74.21875 42 74.21875 
Q 49.125 74.21875 55.546875 72.453125 
Q 61.96875 70.703125 67.390625 67.28125 
L 67.390625 56.78125 
Q 61.921875 61.421875 55.765625 63.765625 
Q 49.609375 66.109375 42.828125 66.109375 
Q 29.4375 66.109375 22.71875 58.640625 
Q 16.015625 51.171875 16.015625 36.375 
Q 16.015625 21.625 22.71875 14.15625 
Q 29.4375 6.6875 42.828125 6.6875 
Q 48.046875 6.6875 52.140625 7.59375 
Q 56.25 8.5 59.515625 10.40625 
z
" id="DejaVuSans-47"/>
      <path d="M 52 44.1875 
Q 55.375 50.25 60.0625 53.125 
Q 64.75 56 71.09375 56 
Q 79.640625 56 84.28125 50.015625 
Q 88.921875 44.046875 88.921875 33.015625 
L 88.921875 0 
L 79.890625 0 
L 79.890625 32.71875 
Q 79.890625 40.578125 77.09375 44.375 
Q 74.3125 48.1875 68.609375 48.1875 
Q 61.625 48.1875 57.5625 43.546875 
Q 53.515625 38.921875 53.515625 30.90625 
L 53.515625 0 
L 44.484375 0 
L 44.484375 32.71875 
Q 44.484375 40.625 41.703125 44.40625 
Q 38.921875 48.1875 33.109375 48.1875 
Q 26.21875 48.1875 22.15625 43.53125 
Q 18.109375 38.875 18.109375 30.90625 
L 18.109375 0 
L 9.078125 0 
L 9.078125 54.6875 
L 18.109375 54.6875 
L 18.109375 46.1875 
Q 21.1875 51.21875 25.484375 53.609375 
Q 29.78125 56 35.6875 56 
Q 41.65625 56 45.828125 52.96875 
Q 50 49.953125 52 44.1875 
z
" id="DejaVuSans-6d"/>
      <path d="M 54.890625 33.015625 
L 54.890625 0 
L 45.90625 0 
L 45.90625 32.71875 
Q 45.90625 40.484375 42.875 44.328125 
Q 39.84375 48.1875 33.796875 48.1875 
Q 26.515625 48.1875 22.3125 43.546875 
Q 18.109375 38.921875 18.109375 30.90625 
L 18.109375 0 
L 9.078125 0 
L 9.078125 54.6875 
L 18.109375 54.6875 
L 18.109375 46.1875 
Q 21.34375 51.125 25.703125 53.5625 
Q 30.078125 56 35.796875 56 
Q 45.21875 56 50.046875 50.171875 
Q 54.890625 44.34375 54.890625 33.015625 
z
" id="DejaVuSans-6e"/>
      <path id="DejaVuSans-20"/>
      <path d="M 19.671875 64.796875 
L 19.671875 37.40625 
L 32.078125 37.40625 
Q 38.96875 37.40625 42.71875 40.96875 
Q 46.484375 44.53125 46.484375 51.125 
Q 46.484375 57.671875 42.71875 61.234375 
Q 38.96875 64.796875 32.078125 64.796875 
z
M 9.8125 72.90625 
L 32.078125 72.90625 
Q 44.34375 72.90625 50.609375 67.359375 
Q 56.890625 61.8125 56.890625 51.125 
Q 56.890625 40.328125 50.609375 34.8125 
Q 44.34375 29.296875 32.078125 29.296875 
L 19.671875 29.296875 
L 19.671875 0 
L 9.8125 0 
z
" id="DejaVuSans-50"/>
     </defs>
     <g transform="translate(411.008 53.070437)scale(0.1 -0.1)">
      <use xlink:href="#DejaVuSans-47"/>
      <use x="77.490234" xlink:href="#DejaVuSans-65"/>
      <use x="139.013672" xlink:href="#DejaVuSans-6d"/>
      <use x="236.425781" xlink:href="#DejaVuSans-65"/>
      <use x="297.949219" xlink:href="#DejaVuSans-73"/>
      <use x="350.048828" xlink:href="#DejaVuSans-73"/>
      <use x="402.148438" xlink:href="#DejaVuSans-65"/>
      <use x="463.671875" xlink:href="#DejaVuSans-6e"/>
      <use x="527.050781" xlink:href="#DejaVuSans-65"/>
      <use x="588.574219" xlink:href="#DejaVuSans-73"/>
      <use x="640.673828" xlink:href="#DejaVuSans-20"/>
      <use x="672.460938" xlink:href="#DejaVuSans-50"/>
      <use x="732.748047" xlink:href="#DejaVuSans-72"/>
      <use x="773.830078" xlink:href="#DejaVuSans-6f"/>
      <use x="835.011719" xlink:href="#DejaVuSans-66"/>
      <use x="870.216797" xlink:href="#DejaVuSans-69"/>
      <use x="898" xlink:href="#DejaVuSans-6c"/>
     </g>
    </g>
    <g id="line2d_21">
     <path d="M 383.008 64.248562 
L 403.008 64.248562 
" style="fill:none;stroke:#ff7f0e;stroke-linecap:square;stroke-width:1.5;"/>
    </g>
    <g id="line2d_22"/>
    <g id="text_5">
     <!-- Berechnetes WK Profil -->
     <defs>
      <path d="M 19.671875 34.8125 
L 19.671875 8.109375 
L 35.5 8.109375 
Q 43.453125 8.109375 47.28125 11.40625 
Q 51.125 14.703125 51.125 21.484375 
Q 51.125 28.328125 47.28125 31.5625 
Q 43.453125 34.8125 35.5 34.8125 
z
M 19.671875 64.796875 
L 19.671875 42.828125 
L 34.28125 42.828125 
Q 41.5 42.828125 45.03125 45.53125 
Q 48.578125 48.25 48.578125 53.8125 
Q 48.578125 59.328125 45.03125 62.0625 
Q 41.5 64.796875 34.28125 64.796875 
z
M 9.8125 72.90625 
L 35.015625 72.90625 
Q 46.296875 72.90625 52.390625 68.21875 
Q 58.5 63.53125 58.5 54.890625 
Q 58.5 48.1875 55.375 44.234375 
Q 52.25 40.28125 46.1875 39.3125 
Q 53.46875 37.75 57.5 32.78125 
Q 61.53125 27.828125 61.53125 20.40625 
Q 61.53125 10.640625 54.890625 5.3125 
Q 48.25 0 35.984375 0 
L 9.8125 0 
z
" id="DejaVuSans-42"/>
      <path d="M 18.3125 70.21875 
L 18.3125 54.6875 
L 36.8125 54.6875 
L 36.8125 47.703125 
L 18.3125 47.703125 
L 18.3125 18.015625 
Q 18.3125 11.328125 20.140625 9.421875 
Q 21.96875 7.515625 27.59375 7.515625 
L 36.8125 7.515625 
L 36.8125 0 
L 27.59375 0 
Q 17.1875 0 13.234375 3.875 
Q 9.28125 7.765625 9.28125 18.015625 
L 9.28125 47.703125 
L 2.6875 47.703125 
L 2.6875 54.6875 
L 9.28125 54.6875 
L 9.28125 70.21875 
z
" id="DejaVuSans-74"/>
      <path d="M 3.328125 72.90625 
L 13.28125 72.90625 
L 28.609375 11.28125 
L 43.890625 72.90625 
L 54.984375 72.90625 
L 70.3125 11.28125 
L 85.59375 72.90625 
L 95.609375 72.90625 
L 77.296875 0 
L 64.890625 0 
L 49.515625 63.28125 
L 33.984375 0 
L 21.578125 0 
z
" id="DejaVuSans-57"/>
      <path d="M 9.8125 72.90625 
L 19.671875 72.90625 
L 19.671875 42.09375 
L 52.390625 72.90625 
L 65.09375 72.90625 
L 28.90625 38.921875 
L 67.671875 0 
L 54.6875 0 
L 19.671875 35.109375 
L 19.671875 0 
L 9.8125 0 
z
" id="DejaVuSans-4b"/>
     </defs>
     <g transform="translate(411.008 67.748562)scale(0.1 -0.1)">
      <use xlink:href="#DejaVuSans-42"/>
      <use x="68.603516" xlink:href="#DejaVuSans-65"/>
      <use x="130.126953" xlink:href="#DejaVuSans-72"/>
      <use x="171.208984" xlink:href="#DejaVuSans-65"/>
      <use x="232.732422" xlink:href="#DejaVuSans-63"/>
      <use x="287.712891" xlink:href="#DejaVuSans-68"/>
      <use x="351.091797" xlink:href="#DejaVuSans-6e"/>
      <use x="414.470703" xlink:href="#DejaVuSans-65"/>
      <use x="475.994141" xlink:href="#DejaVuSans-74"/>
      <use x="515.203125" xlink:href="#DejaVuSans-65"/>
      <use x="576.726562" xlink:href="#DejaVuSans-73"/>
      <use x="628.826172" xlink:href="#DejaVuSans-20"/>
      <use x="660.613281" xlink:href="#DejaVuSans-57"/>
      <use x="759.490234" xlink:href="#DejaVuSans-4b"/>
      <use x="825.066406" xlink:href="#DejaVuSans-20"/>
      <use x="856.853516" xlink:href="#DejaVuSans-50"/>
      <use x="917.140625" xlink:href="#DejaVuSans-72"/>
      <use x="958.222656" xlink:href="#DejaVuSans-6f"/>
      <use x="1019.404297" xlink:href="#DejaVuSans-66"/>
      <use x="1054.609375" xlink:href="#DejaVuSans-69"/>
      <use x="1082.392578" xlink:href="#DejaVuSans-6c"/>
     </g>
    </g>
    <g id="line2d_23">
     <path d="M 383.008 78.926687 
L 403.008 78.926687 
" style="fill:none;stroke:#2ca02c;stroke-linecap:square;stroke-width:1.5;"/>
    </g>
    <g id="line2d_24"/>
    <g id="text_6">
     <!-- Einfederung nach Teutsch -->
     <defs>
      <path d="M 9.8125 72.90625 
L 55.90625 72.90625 
L 55.90625 64.59375 
L 19.671875 64.59375 
L 19.671875 43.015625 
L 54.390625 43.015625 
L 54.390625 34.71875 
L 19.671875 34.71875 
L 19.671875 8.296875 
L 56.78125 8.296875 
L 56.78125 0 
L 9.8125 0 
z
" id="DejaVuSans-45"/>
      <path d="M 45.40625 46.390625 
L 45.40625 75.984375 
L 54.390625 75.984375 
L 54.390625 0 
L 45.40625 0 
L 45.40625 8.203125 
Q 42.578125 3.328125 38.25 0.953125 
Q 33.9375 -1.421875 27.875 -1.421875 
Q 17.96875 -1.421875 11.734375 6.484375 
Q 5.515625 14.40625 5.515625 27.296875 
Q 5.515625 40.1875 11.734375 48.09375 
Q 17.96875 56 27.875 56 
Q 33.9375 56 38.25 53.625 
Q 42.578125 51.265625 45.40625 46.390625 
z
M 14.796875 27.296875 
Q 14.796875 17.390625 18.875 11.75 
Q 22.953125 6.109375 30.078125 6.109375 
Q 37.203125 6.109375 41.296875 11.75 
Q 45.40625 17.390625 45.40625 27.296875 
Q 45.40625 37.203125 41.296875 42.84375 
Q 37.203125 48.484375 30.078125 48.484375 
Q 22.953125 48.484375 18.875 42.84375 
Q 14.796875 37.203125 14.796875 27.296875 
z
" id="DejaVuSans-64"/>
      <path d="M 8.5 21.578125 
L 8.5 54.6875 
L 17.484375 54.6875 
L 17.484375 21.921875 
Q 17.484375 14.15625 20.5 10.265625 
Q 23.53125 6.390625 29.59375 6.390625 
Q 36.859375 6.390625 41.078125 11.03125 
Q 45.3125 15.671875 45.3125 23.6875 
L 45.3125 54.6875 
L 54.296875 54.6875 
L 54.296875 0 
L 45.3125 0 
L 45.3125 8.40625 
Q 42.046875 3.421875 37.71875 1 
Q 33.40625 -1.421875 27.6875 -1.421875 
Q 18.265625 -1.421875 13.375 4.4375 
Q 8.5 10.296875 8.5 21.578125 
z
M 31.109375 56 
z
" id="DejaVuSans-75"/>
      <path d="M 45.40625 27.984375 
Q 45.40625 37.75 41.375 43.109375 
Q 37.359375 48.484375 30.078125 48.484375 
Q 22.859375 48.484375 18.828125 43.109375 
Q 14.796875 37.75 14.796875 27.984375 
Q 14.796875 18.265625 18.828125 12.890625 
Q 22.859375 7.515625 30.078125 7.515625 
Q 37.359375 7.515625 41.375 12.890625 
Q 45.40625 18.265625 45.40625 27.984375 
z
M 54.390625 6.78125 
Q 54.390625 -7.171875 48.1875 -13.984375 
Q 42 -20.796875 29.203125 -20.796875 
Q 24.46875 -20.796875 20.265625 -20.09375 
Q 16.0625 -19.390625 12.109375 -17.921875 
L 12.109375 -9.1875 
Q 16.0625 -11.328125 19.921875 -12.34375 
Q 23.78125 -13.375 27.78125 -13.375 
Q 36.625 -13.375 41.015625 -8.765625 
Q 45.40625 -4.15625 45.40625 5.171875 
L 45.40625 9.625 
Q 42.625 4.78125 38.28125 2.390625 
Q 33.9375 0 27.875 0 
Q 17.828125 0 11.671875 7.65625 
Q 5.515625 15.328125 5.515625 27.984375 
Q 5.515625 40.671875 11.671875 48.328125 
Q 17.828125 56 27.875 56 
Q 33.9375 56 38.28125 53.609375 
Q 42.625 51.21875 45.40625 46.390625 
L 45.40625 54.6875 
L 54.390625 54.6875 
z
" id="DejaVuSans-67"/>
      <path d="M 34.28125 27.484375 
Q 23.390625 27.484375 19.1875 25 
Q 14.984375 22.515625 14.984375 16.5 
Q 14.984375 11.71875 18.140625 8.90625 
Q 21.296875 6.109375 26.703125 6.109375 
Q 34.1875 6.109375 38.703125 11.40625 
Q 43.21875 16.703125 43.21875 25.484375 
L 43.21875 27.484375 
z
M 52.203125 31.203125 
L 52.203125 0 
L 43.21875 0 
L 43.21875 8.296875 
Q 40.140625 3.328125 35.546875 0.953125 
Q 30.953125 -1.421875 24.3125 -1.421875 
Q 15.921875 -1.421875 10.953125 3.296875 
Q 6 8.015625 6 15.921875 
Q 6 25.140625 12.171875 29.828125 
Q 18.359375 34.515625 30.609375 34.515625 
L 43.21875 34.515625 
L 43.21875 35.40625 
Q 43.21875 41.609375 39.140625 45 
Q 35.0625 48.390625 27.6875 48.390625 
Q 23 48.390625 18.546875 47.265625 
Q 14.109375 46.140625 10.015625 43.890625 
L 10.015625 52.203125 
Q 14.9375 54.109375 19.578125 55.046875 
Q 24.21875 56 28.609375 56 
Q 40.484375 56 46.34375 49.84375 
Q 52.203125 43.703125 52.203125 31.203125 
z
" id="DejaVuSans-61"/>
      <path d="M -0.296875 72.90625 
L 61.375 72.90625 
L 61.375 64.59375 
L 35.5 64.59375 
L 35.5 0 
L 25.59375 0 
L 25.59375 64.59375 
L -0.296875 64.59375 
z
" id="DejaVuSans-54"/>
     </defs>
     <g transform="translate(411.008 82.426687)scale(0.1 -0.1)">
      <use xlink:href="#DejaVuSans-45"/>
      <use x="63.183594" xlink:href="#DejaVuSans-69"/>
      <use x="90.966797" xlink:href="#DejaVuSans-6e"/>
      <use x="154.345703" xlink:href="#DejaVuSans-66"/>
      <use x="189.550781" xlink:href="#DejaVuSans-65"/>
      <use x="251.074219" xlink:href="#DejaVuSans-64"/>
      <use x="314.550781" xlink:href="#DejaVuSans-65"/>
      <use x="376.074219" xlink:href="#DejaVuSans-72"/>
      <use x="417.1875" xlink:href="#DejaVuSans-75"/>
      <use x="480.566406" xlink:href="#DejaVuSans-6e"/>
      <use x="543.945312" xlink:href="#DejaVuSans-67"/>
      <use x="607.421875" xlink:href="#DejaVuSans-20"/>
      <use x="639.208984" xlink:href="#DejaVuSans-6e"/>
      <use x="702.587891" xlink:href="#DejaVuSans-61"/>
      <use x="763.867188" xlink:href="#DejaVuSans-63"/>
      <use x="818.847656" xlink:href="#DejaVuSans-68"/>
      <use x="882.226562" xlink:href="#DejaVuSans-20"/>
      <use x="914.013672" xlink:href="#DejaVuSans-54"/>
      <use x="974.832031" xlink:href="#DejaVuSans-65"/>
      <use x="1036.355469" xlink:href="#DejaVuSans-75"/>
      <use x="1099.734375" xlink:href="#DejaVuSans-74"/>
      <use x="1138.943359" xlink:href="#DejaVuSans-73"/>
      <use x="1191.042969" xlink:href="#DejaVuSans-63"/>
      <use x="1246.023438" xlink:href="#DejaVuSans-68"/>
     </g>
    </g>
    <g id="line2d_25">
     <path d="M 383.008 93.604812 
L 403.008 93.604812 
" style="fill:none;stroke:#d62728;stroke-linecap:square;stroke-width:1.5;"/>
    </g>
    <g id="line2d_26"/>
    <g id="text_7">
     <!-- Einfederung nach v.d.Sandt -->
     <defs>
      <path d="M 2.984375 54.6875 
L 12.5 54.6875 
L 29.59375 8.796875 
L 46.6875 54.6875 
L 56.203125 54.6875 
L 35.6875 0 
L 23.484375 0 
z
" id="DejaVuSans-76"/>
      <path d="M 53.515625 70.515625 
L 53.515625 60.890625 
Q 47.90625 63.578125 42.921875 64.890625 
Q 37.9375 66.21875 33.296875 66.21875 
Q 25.25 66.21875 20.875 63.09375 
Q 16.5 59.96875 16.5 54.203125 
Q 16.5 49.359375 19.40625 46.890625 
Q 22.3125 44.4375 30.421875 42.921875 
L 36.375 41.703125 
Q 47.40625 39.59375 52.65625 34.296875 
Q 57.90625 29 57.90625 20.125 
Q 57.90625 9.515625 50.796875 4.046875 
Q 43.703125 -1.421875 29.984375 -1.421875 
Q 24.8125 -1.421875 18.96875 -0.25 
Q 13.140625 0.921875 6.890625 3.21875 
L 6.890625 13.375 
Q 12.890625 10.015625 18.65625 8.296875 
Q 24.421875 6.59375 29.984375 6.59375 
Q 38.421875 6.59375 43.015625 9.90625 
Q 47.609375 13.234375 47.609375 19.390625 
Q 47.609375 24.75 44.3125 27.78125 
Q 41.015625 30.8125 33.5 32.328125 
L 27.484375 33.5 
Q 16.453125 35.6875 11.515625 40.375 
Q 6.59375 45.0625 6.59375 53.421875 
Q 6.59375 63.09375 13.40625 68.65625 
Q 20.21875 74.21875 32.171875 74.21875 
Q 37.3125 74.21875 42.625 73.28125 
Q 47.953125 72.359375 53.515625 70.515625 
z
" id="DejaVuSans-53"/>
     </defs>
     <g transform="translate(411.008 97.104812)scale(0.1 -0.1)">
      <use xlink:href="#DejaVuSans-45"/>
      <use x="63.183594" xlink:href="#DejaVuSans-69"/>
      <use x="90.966797" xlink:href="#DejaVuSans-6e"/>
      <use x="154.345703" xlink:href="#DejaVuSans-66"/>
      <use x="189.550781" xlink:href="#DejaVuSans-65"/>
      <use x="251.074219" xlink:href="#DejaVuSans-64"/>
      <use x="314.550781" xlink:href="#DejaVuSans-65"/>
      <use x="376.074219" xlink:href="#DejaVuSans-72"/>
      <use x="417.1875" xlink:href="#DejaVuSans-75"/>
      <use x="480.566406" xlink:href="#DejaVuSans-6e"/>
      <use x="543.945312" xlink:href="#DejaVuSans-67"/>
      <use x="607.421875" xlink:href="#DejaVuSans-20"/>
      <use x="639.208984" xlink:href="#DejaVuSans-6e"/>
      <use x="702.587891" xlink:href="#DejaVuSans-61"/>
      <use x="763.867188" xlink:href="#DejaVuSans-63"/>
      <use x="818.847656" xlink:href="#DejaVuSans-68"/>
      <use x="882.226562" xlink:href="#DejaVuSans-20"/>
      <use x="914.013672" xlink:href="#DejaVuSans-76"/>
      <use x="973.083984" xlink:href="#DejaVuSans-2e"/>
      <use x="1004.871094" xlink:href="#DejaVuSans-64"/>
      <use x="1068.347656" xlink:href="#DejaVuSans-2e"/>
      <use x="1100.134766" xlink:href="#DejaVuSans-53"/>
      <use x="1163.611328" xlink:href="#DejaVuSans-61"/>
      <use x="1224.890625" xlink:href="#DejaVuSans-6e"/>
      <use x="1288.269531" xlink:href="#DejaVuSans-64"/>
      <use x="1351.746094" xlink:href="#DejaVuSans-74"/>
     </g>
    </g>
   </g>
  </g>
  <g id="axes_2">
   <g id="patch_8">
    <path d="M 57.6 213.662118 
L 414.72 213.662118 
L 414.72 135.393882 
L 57.6 135.393882 
z
" style="fill:#ffffff;"/>
   </g>
   <g id="matplotlib.axis_3">
    <g id="xtick_6">
     <g id="line2d_27">
      <path clip-path="url(#p67312a0095)" d="M 113.363458 213.662118 
L 113.363458 135.393882 
" style="fill:none;stroke:#b0b0b0;stroke-linecap:square;stroke-width:0.8;"/>
     </g>
     <g id="line2d_28">
      <g>
       <use style="stroke:#000000;stroke-width:0.8;" x="113.363458" xlink:href="#md38ae83581" y="213.662118"/>
      </g>
     </g>
    </g>
    <g id="xtick_7">
     <g id="line2d_29">
      <path clip-path="url(#p67312a0095)" d="M 174.680407 213.662118 
L 174.680407 135.393882 
" style="fill:none;stroke:#b0b0b0;stroke-linecap:square;stroke-width:0.8;"/>
     </g>
     <g id="line2d_30">
      <g>
       <use style="stroke:#000000;stroke-width:0.8;" x="174.680407" xlink:href="#md38ae83581" y="213.662118"/>
      </g>
     </g>
    </g>
    <g id="xtick_8">
     <g id="line2d_31">
      <path clip-path="url(#p67312a0095)" d="M 235.997357 213.662118 
L 235.997357 135.393882 
" style="fill:none;stroke:#b0b0b0;stroke-linecap:square;stroke-width:0.8;"/>
     </g>
     <g id="line2d_32">
      <g>
       <use style="stroke:#000000;stroke-width:0.8;" x="235.997357" xlink:href="#md38ae83581" y="213.662118"/>
      </g>
     </g>
    </g>
    <g id="xtick_9">
     <g id="line2d_33">
      <path clip-path="url(#p67312a0095)" d="M 297.314306 213.662118 
L 297.314306 135.393882 
" style="fill:none;stroke:#b0b0b0;stroke-linecap:square;stroke-width:0.8;"/>
     </g>
     <g id="line2d_34">
      <g>
       <use style="stroke:#000000;stroke-width:0.8;" x="297.314306" xlink:href="#md38ae83581" y="213.662118"/>
      </g>
     </g>
    </g>
    <g id="xtick_10">
     <g id="line2d_35">
      <path clip-path="url(#p67312a0095)" d="M 358.631256 213.662118 
L 358.631256 135.393882 
" style="fill:none;stroke:#b0b0b0;stroke-linecap:square;stroke-width:0.8;"/>
     </g>
     <g id="line2d_36">
      <g>
       <use style="stroke:#000000;stroke-width:0.8;" x="358.631256" xlink:href="#md38ae83581" y="213.662118"/>
      </g>
     </g>
    </g>
   </g>
   <g id="matplotlib.axis_4">
    <g id="ytick_3">
     <g id="line2d_37">
      <path clip-path="url(#p67312a0095)" d="M 57.6 207.459223 
L 414.72 207.459223 
" style="fill:none;stroke:#b0b0b0;stroke-linecap:square;stroke-width:0.8;"/>
     </g>
     <g id="line2d_38">
      <g>
       <use style="stroke:#000000;stroke-width:0.8;" x="57.6" xlink:href="#ma360eec439" y="207.459223"/>
      </g>
     </g>
     <g id="text_8">
      <!-- 0 -->
      <g transform="translate(44.2375 211.258441)scale(0.1 -0.1)">
       <use xlink:href="#DejaVuSans-30"/>
      </g>
     </g>
    </g>
    <g id="ytick_4">
     <g id="line2d_39">
      <path clip-path="url(#p67312a0095)" d="M 57.6 157.577217 
L 414.72 157.577217 
" style="fill:none;stroke:#b0b0b0;stroke-linecap:square;stroke-width:0.8;"/>
     </g>
     <g id="line2d_40">
      <g>
       <use style="stroke:#000000;stroke-width:0.8;" x="57.6" xlink:href="#ma360eec439" y="157.577217"/>
      </g>
     </g>
     <g id="text_9">
      <!-- 5 -->
      <defs>
       <path d="M 10.796875 72.90625 
L 49.515625 72.90625 
L 49.515625 64.59375 
L 19.828125 64.59375 
L 19.828125 46.734375 
Q 21.96875 47.46875 24.109375 47.828125 
Q 26.265625 48.1875 28.421875 48.1875 
Q 40.625 48.1875 47.75 41.5 
Q 54.890625 34.8125 54.890625 23.390625 
Q 54.890625 11.625 47.5625 5.09375 
Q 40.234375 -1.421875 26.90625 -1.421875 
Q 22.3125 -1.421875 17.546875 -0.640625 
Q 12.796875 0.140625 7.71875 1.703125 
L 7.71875 11.625 
Q 12.109375 9.234375 16.796875 8.0625 
Q 21.484375 6.890625 26.703125 6.890625 
Q 35.15625 6.890625 40.078125 11.328125 
Q 45.015625 15.765625 45.015625 23.390625 
Q 45.015625 31 40.078125 35.4375 
Q 35.15625 39.890625 26.703125 39.890625 
Q 22.75 39.890625 18.8125 39.015625 
Q 14.890625 38.140625 10.796875 36.28125 
z
" id="DejaVuSans-35"/>
      </defs>
      <g transform="translate(44.2375 161.376436)scale(0.1 -0.1)">
       <use xlink:href="#DejaVuSans-35"/>
      </g>
     </g>
    </g>
    <g id="text_10">
     <!-- Kraefte auf eine Scheibe -->
     <defs>
      <path d="M 48.6875 27.296875 
Q 48.6875 37.203125 44.609375 42.84375 
Q 40.53125 48.484375 33.40625 48.484375 
Q 26.265625 48.484375 22.1875 42.84375 
Q 18.109375 37.203125 18.109375 27.296875 
Q 18.109375 17.390625 22.1875 11.75 
Q 26.265625 6.109375 33.40625 6.109375 
Q 40.53125 6.109375 44.609375 11.75 
Q 48.6875 17.390625 48.6875 27.296875 
z
M 18.109375 46.390625 
Q 20.953125 51.265625 25.265625 53.625 
Q 29.59375 56 35.59375 56 
Q 45.5625 56 51.78125 48.09375 
Q 58.015625 40.1875 58.015625 27.296875 
Q 58.015625 14.40625 51.78125 6.484375 
Q 45.5625 -1.421875 35.59375 -1.421875 
Q 29.59375 -1.421875 25.265625 0.953125 
Q 20.953125 3.328125 18.109375 8.203125 
L 18.109375 0 
L 9.078125 0 
L 9.078125 75.984375 
L 18.109375 75.984375 
z
" id="DejaVuSans-62"/>
     </defs>
     <g transform="translate(38.157812 236.078781)rotate(-90)scale(0.1 -0.1)">
      <use xlink:href="#DejaVuSans-4b"/>
      <use x="65.576172" xlink:href="#DejaVuSans-72"/>
      <use x="106.689453" xlink:href="#DejaVuSans-61"/>
      <use x="167.96875" xlink:href="#DejaVuSans-65"/>
      <use x="229.492188" xlink:href="#DejaVuSans-66"/>
      <use x="264.681641" xlink:href="#DejaVuSans-74"/>
      <use x="303.890625" xlink:href="#DejaVuSans-65"/>
      <use x="365.414062" xlink:href="#DejaVuSans-20"/>
      <use x="397.201172" xlink:href="#DejaVuSans-61"/>
      <use x="458.480469" xlink:href="#DejaVuSans-75"/>
      <use x="521.859375" xlink:href="#DejaVuSans-66"/>
      <use x="557.064453" xlink:href="#DejaVuSans-20"/>
      <use x="588.851562" xlink:href="#DejaVuSans-65"/>
      <use x="650.375" xlink:href="#DejaVuSans-69"/>
      <use x="678.158203" xlink:href="#DejaVuSans-6e"/>
      <use x="741.537109" xlink:href="#DejaVuSans-65"/>
      <use x="803.060547" xlink:href="#DejaVuSans-20"/>
      <use x="834.847656" xlink:href="#DejaVuSans-53"/>
      <use x="898.324219" xlink:href="#DejaVuSans-63"/>
      <use x="953.304688" xlink:href="#DejaVuSans-68"/>
      <use x="1016.683594" xlink:href="#DejaVuSans-65"/>
      <use x="1078.207031" xlink:href="#DejaVuSans-69"/>
      <use x="1105.990234" xlink:href="#DejaVuSans-62"/>
      <use x="1169.466797" xlink:href="#DejaVuSans-65"/>
     </g>
    </g>
   </g>
   <g id="line2d_41">
    <path clip-path="url(#p67312a0095)" d="M 73.832727 209.030936 
L 75.784446 209.022812 
L 83.266647 209.278622 
L 87.495677 209.590064 
L 89.447395 209.928402 
L 89.772681 203.672712 
L 90.748541 198.383292 
L 91.399114 196.753412 
L 91.7244 197.262525 
L 92.049686 195.122403 
L 92.375279 195.085406 
L 92.700566 195.49259 
L 93.025852 192.495168 
L 93.351139 193.492792 
L 93.676425 192.10624 
L 94.001711 192.36917 
L 94.652284 189.598144 
L 94.977571 189.843721 
L 95.302857 189.7705 
L 95.628144 189.426109 
L 95.95343 188.160857 
L 96.278716 187.830532 
L 96.604003 185.525561 
L 96.929289 186.979213 
L 97.254576 185.334522 
L 97.580169 185.610392 
L 97.905455 184.805437 
L 98.230741 183.660336 
L 98.556028 183.903448 
L 98.881314 181.711194 
L 99.206601 182.307971 
L 99.531887 180.757951 
L 99.857174 180.155435 
L 100.18246 180.375751 
L 100.507746 178.81566 
L 100.833033 178.555587 
L 101.158319 179.138118 
L 101.808892 177.12543 
L 102.134178 177.525818 
L 102.459465 176.727473 
L 102.784751 174.376473 
L 103.110344 175.449199 
L 103.760917 174.811161 
L 104.086204 173.736996 
L 104.41149 173.45061 
L 104.736776 173.808107 
L 105.062063 171.448312 
L 105.387349 172.499332 
L 106.037922 171.167857 
L 106.363208 170.608377 
L 106.688495 170.749698 
L 107.013781 169.960414 
L 107.339068 169.876862 
L 107.664354 169.565703 
L 107.989641 168.528543 
L 108.315234 168.449959 
L 108.64052 167.645037 
L 108.965806 168.041091 
L 109.291093 166.759333 
L 109.616379 166.688225 
L 109.941666 165.158037 
L 110.266952 166.044536 
L 110.592238 165.961742 
L 111.242811 163.188868 
L 111.568098 163.797861 
L 111.893384 162.51548 
L 112.543957 162.287737 
L 112.869243 162.723514 
L 113.19453 160.921944 
L 113.520123 160.297947 
L 113.845409 160.951686 
L 114.170696 160.144379 
L 114.495982 160.542512 
L 114.821268 158.50098 
L 115.146555 159.101913 
L 115.471841 158.784398 
L 115.797128 158.266026 
L 116.122414 158.288653 
L 116.447701 157.188522 
L 116.772987 158.817848 
L 117.098273 157.808054 
L 117.42356 158.103928 
L 117.748846 156.728759 
L 118.074133 157.118595 
L 118.399419 155.83531 
L 118.724705 156.513572 
L 119.050298 156.103808 
L 119.375585 155.204461 
L 120.026158 154.890618 
L 120.351444 156.72483 
L 121.002017 154.137915 
L 121.65259 152.645151 
L 121.977876 153.310715 
L 122.303163 152.555781 
L 122.628449 152.458823 
L 122.953735 151.989922 
L 123.279022 152.677007 
L 123.604308 152.555321 
L 123.929595 151.4581 
L 124.255188 151.181402 
L 124.580474 151.396434 
L 124.905761 150.279339 
L 125.231047 151.78568 
L 125.556333 150.630798 
L 125.88162 151.17504 
L 126.206906 151.228721 
L 126.532193 151.459698 
L 126.857479 149.531102 
L 127.182765 149.420335 
L 127.508052 150.148208 
L 127.833338 147.973429 
L 128.158625 149.949162 
L 128.483911 150.515488 
L 128.809198 148.693483 
L 129.134484 148.434227 
L 129.460077 149.156546 
L 129.785363 148.528515 
L 130.11065 148.531044 
L 130.435936 148.403687 
L 130.761223 147.402314 
L 131.086509 148.998921 
L 131.411795 147.634062 
L 131.737082 147.01877 
L 132.062368 146.763274 
L 132.387655 147.109662 
L 132.712941 147.834871 
L 133.038228 147.197315 
L 133.363514 146.895106 
L 133.6888 148.289377 
L 134.014087 146.895583 
L 134.339373 146.280727 
L 134.990253 145.903731 
L 135.315539 146.648596 
L 135.640825 146.204974 
L 135.966112 147.465433 
L 136.291398 145.158359 
L 136.616685 144.75588 
L 136.941971 144.713291 
L 137.267258 145.248923 
L 137.592544 144.920557 
L 137.91783 144.359943 
L 138.243117 145.699702 
L 138.568403 144.456635 
L 138.89369 146.131844 
L 139.544262 144.039667 
L 139.869549 144.821856 
L 140.195142 143.759326 
L 141.171001 144.712714 
L 141.821574 144.55279 
L 142.14686 144.345229 
L 142.472147 143.705057 
L 142.797433 144.057298 
L 143.12272 143.905369 
L 143.448006 144.138518 
L 143.773292 143.553739 
L 144.098579 143.794753 
L 144.423865 143.812124 
L 144.749152 143.614064 
L 145.074438 143.573226 
L 145.399725 143.336108 
L 145.725318 142.794351 
L 146.050604 142.602964 
L 146.37589 142.90645 
L 146.701177 142.792292 
L 147.026463 143.219274 
L 147.35175 142.45017 
L 148.002322 143.137539 
L 148.652895 142.88244 
L 148.978182 141.774011 
L 149.628755 142.468949 
L 149.954041 141.840539 
L 150.279327 141.656567 
L 150.930207 143.275599 
L 151.255493 142.143504 
L 151.58078 142.501029 
L 151.906066 141.856942 
L 152.556639 141.56027 
L 152.881925 141.914835 
L 153.207212 141.259551 
L 153.532498 142.085949 
L 154.183071 141.775016 
L 154.508357 141.118958 
L 154.833644 141.957758 
L 155.809503 141.480669 
L 156.135096 141.819686 
L 156.785669 141.487692 
L 157.110955 143.314847 
L 157.436242 141.190448 
L 157.761528 140.592438 
L 158.086815 140.916063 
L 158.412101 141.704989 
L 158.737387 141.557968 
L 159.062674 141.926506 
L 159.713247 140.607817 
L 160.038533 140.946352 
L 160.363819 141.749613 
L 160.689106 141.156201 
L 161.014392 140.968854 
L 161.339679 141.277119 
L 161.665272 140.653712 
L 161.990558 141.456562 
L 162.315845 140.839926 
L 162.641131 140.684732 
L 162.966417 140.97893 
L 163.291704 140.861285 
L 163.61699 141.102682 
L 163.942277 141.04552 
L 164.267563 140.336277 
L 164.592849 140.778791 
L 164.918136 141.561867 
L 165.243422 140.521798 
L 165.568709 140.818564 
L 165.893995 140.166478 
L 166.219282 140.066873 
L 166.544568 141.203488 
L 166.870161 141.23658 
L 167.195447 140.452667 
L 167.520734 140.300094 
L 167.84602 140.642229 
L 168.496593 140.333564 
L 168.821879 139.7543 
L 169.147166 140.091084 
L 169.472452 140.763812 
L 169.797739 140.261588 
L 170.123025 140.523545 
L 170.448312 139.949933 
L 170.773598 140.204708 
L 171.098884 140.127448 
L 171.424171 140.465109 
L 171.749457 140.212757 
L 172.07505 139.634849 
L 172.400337 141.468595 
L 172.725623 140.106593 
L 173.376196 140.885324 
L 173.701482 139.933516 
L 174.352055 140.509135 
L 175.002628 140.188922 
L 175.327914 140.420324 
L 175.653201 139.869981 
L 175.978487 140.479769 
L 176.303774 140.316998 
L 176.62906 139.774349 
L 176.954346 140.113214 
L 177.279633 139.81629 
L 177.605226 141.016533 
L 178.581085 139.298183 
L 178.906372 140.260346 
L 179.556944 140.276276 
L 179.882231 141.105807 
L 180.207517 140.441757 
L 180.532804 140.139323 
L 180.85809 141.118374 
L 181.183376 140.101511 
L 181.508663 140.309783 
L 181.833949 139.651636 
L 182.484522 140.112767 
L 182.810115 140.639006 
L 183.460688 140.303713 
L 183.785974 140.640305 
L 184.111261 140.130678 
L 184.436547 140.809646 
L 184.761834 140.308109 
L 185.08712 140.148902 
L 185.412406 140.317456 
L 185.737693 140.64589 
L 186.062979 140.815888 
L 186.388266 139.981973 
L 186.713552 140.49112 
L 187.364125 140.156478 
L 188.014698 140.815407 
L 188.340291 140.327912 
L 188.665577 140.803152 
L 189.31615 140.034558 
L 189.641436 140.562125 
L 189.966723 140.208815 
L 190.292009 140.743732 
L 190.617296 139.895262 
L 191.267869 140.181846 
L 191.918441 140.349019 
L 192.243728 140.089057 
L 192.569014 140.024417 
L 192.894301 139.76442 
L 193.219587 140.598132 
L 193.870466 139.977804 
L 194.195753 140.89456 
L 194.521039 139.946419 
L 194.846326 140.075281 
L 195.171612 140.418778 
L 195.496899 139.480472 
L 195.822185 139.599792 
L 196.147471 140.208543 
L 196.798044 139.920258 
L 197.123331 140.207887 
L 197.448617 139.771801 
L 197.773903 139.837028 
L 198.09919 140.441187 
L 198.424476 139.777624 
L 199.075356 139.956928 
L 199.400642 139.53166 
L 199.725929 139.880624 
L 200.051215 140.45295 
L 200.701788 139.633701 
L 201.027074 139.978343 
L 201.352361 139.317541 
L 201.677647 139.400553 
L 202.002933 139.982445 
L 202.653506 139.642313 
L 202.978793 140.479579 
L 203.304079 139.312671 
L 203.629366 139.912853 
L 203.954652 139.981397 
L 204.280245 139.815 
L 204.930818 140.02219 
L 205.256104 139.818854 
L 205.581391 140.160358 
L 205.906677 139.502744 
L 206.231963 139.290487 
L 206.55725 139.678281 
L 206.882536 139.567998 
L 207.207823 139.618132 
L 207.533109 140.168244 
L 207.858396 139.495416 
L 208.183682 140.330422 
L 208.508968 139.875694 
L 208.834255 139.712577 
L 209.485134 139.966661 
L 210.135707 139.651146 
L 210.460993 139.188885 
L 210.78628 140.025586 
L 211.111566 139.355557 
L 211.436853 139.689338 
L 212.087426 139.85082 
L 212.412712 139.682591 
L 212.737998 140.016433 
L 213.063285 139.850229 
L 213.388571 140.007419 
L 213.713858 139.218895 
L 214.039144 139.37624 
L 214.36443 139.389958 
L 214.690023 139.213096 
L 215.01531 140.034551 
L 215.340596 140.182436 
L 215.665883 139.84194 
L 216.316456 139.846343 
L 216.641742 139.686819 
L 216.967028 140.186791 
L 217.292315 139.69006 
L 217.617601 139.528572 
L 217.942888 139.518771 
L 218.268174 140.1832 
L 218.59346 140.358344 
L 218.918747 139.512887 
L 219.244033 139.345738 
L 219.56932 140.212667 
L 220.220199 140.183553 
L 220.545486 139.88231 
L 220.870772 139.014956 
L 221.196058 140.064 
L 221.521345 139.540648 
L 221.846631 139.520414 
L 222.171918 139.349942 
L 222.497204 139.956962 
L 222.82249 139.279587 
L 223.147777 139.84036 
L 223.473063 139.527818 
L 223.79835 140.599087 
L 224.123636 139.563072 
L 224.448923 139.90631 
L 224.774209 139.61747 
L 225.099495 139.704573 
L 225.425088 139.41022 
L 225.750375 140.364892 
L 226.075661 139.578556 
L 226.400948 139.531711 
L 227.05152 140.183513 
L 227.376807 140.122139 
L 227.702093 140.633597 
L 228.02738 139.195917 
L 228.352666 139.540357 
L 228.677953 139.471213 
L 229.003239 140.194123 
L 229.328525 140.12706 
L 229.653812 139.769118 
L 229.979098 139.207977 
L 230.304385 139.639145 
L 230.629671 139.461316 
L 230.955264 140.196491 
L 231.28055 139.705454 
L 231.605837 139.766873 
L 231.931123 139.942061 
L 232.25641 140.422106 
L 232.581696 140.259123 
L 232.906983 139.683138 
L 233.232269 139.512328 
L 233.557555 141.004167 
L 233.882842 139.762006 
L 234.208128 139.538636 
L 234.533415 138.951529 
L 234.858701 139.277253 
L 235.183987 140.0235 
L 235.509274 140.275369 
L 235.83456 140.24105 
L 236.160153 140.014887 
L 236.48544 139.351914 
L 236.810726 139.679219 
L 237.136013 140.501779 
L 237.461299 140.332128 
L 237.786585 139.665389 
L 238.111872 140.448253 
L 238.437158 139.834607 
L 238.762445 140.124918 
L 239.087731 139.509797 
L 239.738304 140.115545 
L 240.06359 140.859572 
L 240.388877 139.830624 
L 240.714163 139.672655 
L 241.03945 140.008179 
L 241.690329 139.673561 
L 242.340902 140.331152 
L 242.666188 139.688111 
L 242.991475 140.48976 
L 244.29262 139.821782 
L 245.26848 139.358107 
L 245.593766 139.674244 
L 245.919052 139.523213 
L 246.244339 140.334967 
L 247.545791 139.675319 
L 247.871077 140.002658 
L 248.52165 139.672398 
L 248.846937 140.009119 
L 249.172223 139.343451 
L 249.49751 140.168527 
L 249.822796 139.511458 
L 250.148082 139.847804 
L 250.473369 139.666188 
L 250.798655 139.983125 
L 251.123942 139.823958 
L 251.449228 140.158469 
L 251.774514 139.4892 
L 252.75068 140.442588 
L 253.075967 140.301293 
L 253.401253 139.609622 
L 253.72654 139.993723 
L 254.051826 140.763248 
L 254.702399 139.508474 
L 255.352972 140.143894 
L 255.678258 139.514908 
L 256.328831 140.094788 
L 256.654117 139.414557 
L 256.979404 140.691784 
L 257.30469 140.562791 
L 257.630283 139.949249 
L 257.95557 139.837884 
L 258.280856 140.066551 
L 258.606142 139.890826 
L 258.931429 140.326284 
L 259.256715 141.050182 
L 259.582002 139.066516 
L 259.907288 139.779478 
L 260.232574 141.108189 
L 260.557861 139.572929 
L 260.883147 139.786714 
L 261.208434 139.614091 
L 261.53372 140.373876 
L 261.859007 139.770116 
L 262.509579 140.429985 
L 262.835172 139.760578 
L 263.160459 140.172973 
L 263.485745 140.001867 
L 263.811032 140.16725 
L 264.136318 140.071441 
L 264.461604 140.825258 
L 264.786891 140.220375 
L 265.112177 141.239004 
L 265.437464 139.394055 
L 265.76275 140.641142 
L 266.088037 140.375767 
L 266.413323 139.89922 
L 267.063896 140.458518 
L 267.389182 140.492906 
L 267.714469 140.2324 
L 268.040062 139.67587 
L 268.690634 140.232038 
L 269.341207 140.006285 
L 269.666494 140.226897 
L 270.317067 140.002735 
L 270.642353 140.449798 
L 271.292926 140.37657 
L 271.618212 140.08933 
L 271.943499 140.047416 
L 272.268785 140.382774 
L 272.594071 139.845471 
L 273.244644 140.385082 
L 273.570237 139.722552 
L 273.895524 139.557308 
L 274.546097 140.34858 
L 274.871383 140.038872 
L 275.196669 140.38083 
L 275.521956 139.000603 
L 275.847242 140.547238 
L 276.172529 139.517175 
L 276.497815 140.200039 
L 276.823101 140.022993 
L 277.148388 140.352478 
L 277.473674 140.026492 
L 277.798961 140.169666 
L 278.124247 139.998393 
L 278.449534 140.326307 
L 278.775127 140.479674 
L 279.100413 140.154772 
L 279.425699 139.98951 
L 279.750986 140.320672 
L 280.726845 140.298011 
L 281.052131 140.11897 
L 281.377418 140.942408 
L 281.702704 140.443104 
L 282.027991 140.450531 
L 282.353277 140.777014 
L 282.678564 140.925476 
L 283.00385 140.441418 
L 284.305302 140.962845 
L 284.630589 140.229086 
L 285.281161 140.291839 
L 285.606448 140.121401 
L 285.931734 140.653522 
L 286.257021 140.074185 
L 286.582307 140.898356 
L 286.907594 140.717367 
L 287.23288 141.254149 
L 287.558166 140.590022 
L 287.883453 140.722209 
L 288.208739 140.347398 
L 288.534026 140.322235 
L 288.859312 140.442751 
L 289.184598 140.274524 
L 290.160764 140.537421 
L 290.811337 140.63203 
L 291.136624 141.552293 
L 291.787196 140.180863 
L 292.112483 141.018163 
L 292.437769 140.352825 
L 292.763056 140.189962 
L 293.088342 140.254615 
L 293.413628 140.842735 
L 293.738915 140.409844 
L 294.064201 140.494041 
L 294.389488 141.051051 
L 295.040367 140.730931 
L 295.365654 140.31631 
L 295.69094 140.900217 
L 296.016226 140.231225 
L 296.992086 140.468312 
L 297.317372 140.812227 
L 297.642658 140.614937 
L 297.967945 140.942195 
L 298.293231 140.772166 
L 298.618518 140.367313 
L 298.943804 140.963499 
L 299.269091 140.747895 
L 299.594377 141.074558 
L 299.919663 140.903972 
L 300.245256 140.454037 
L 300.570543 141.27758 
L 300.895829 140.878858 
L 301.221116 140.703654 
L 301.546402 141.021311 
L 301.871688 140.592493 
L 302.196975 144.745282 
L 302.522261 142.01729 
L 303.172834 140.959188 
L 303.498121 140.512037 
L 304.148693 141.269964 
L 304.47398 140.204298 
L 304.799266 141.632036 
L 305.124553 140.85658 
L 305.450146 140.99377 
L 306.100718 140.654601 
L 306.426005 140.978269 
L 306.751291 141.108228 
L 307.076578 141.434916 
L 307.727151 140.78268 
L 308.377723 141.607167 
L 308.70301 141.435759 
L 309.028296 141.092935 
L 309.353583 140.92793 
L 309.678869 140.931287 
L 310.004155 141.080714 
L 310.329442 141.404407 
L 310.655035 141.404969 
L 310.980321 140.73761 
L 311.305608 140.901676 
L 311.630894 140.886203 
L 311.956181 141.378462 
L 312.281467 141.521614 
L 312.606753 141.183429 
L 312.93204 141.852994 
L 313.582613 141.021134 
L 313.907899 141.352815 
L 314.233185 140.977946 
L 314.558472 141.653679 
L 314.883758 141.12499 
L 315.534331 141.414179 
L 315.859618 141.309381 
L 316.510497 141.589368 
L 316.835783 141.771335 
L 317.811643 141.590231 
L 318.136929 143.908321 
L 318.462215 141.635192 
L 318.787502 141.611522 
L 319.112788 141.193042 
L 319.763361 141.715188 
L 320.088648 141.532353 
L 320.413934 141.686417 
L 320.73922 143.518872 
L 321.064507 142.44323 
L 321.3901 143.998915 
L 321.715386 142.235941 
L 322.040673 141.193341 
L 322.365959 142.306751 
L 323.016532 141.966074 
L 323.341818 141.498638 
L 323.667105 142.222265 
L 323.992391 141.236222 
L 324.317678 141.725496 
L 324.642964 143.527199 
L 324.96825 144.02517 
L 325.293537 141.75836 
L 325.618823 143.25333 
L 326.269396 143.491454 
L 326.594989 146.467933 
L 326.920275 141.515696 
L 327.245562 142.705172 
L 327.570848 142.598592 
L 327.896135 143.754335 
L 328.221421 143.156711 
L 329.19728 142.64393 
L 329.847853 143.26558 
L 330.17314 143.64139 
L 330.498426 143.521826 
L 330.823712 143.211265 
L 331.148999 143.45351 
L 331.474285 145.262793 
L 331.799572 143.15661 
L 332.450451 143.753496 
L 332.775738 143.626412 
L 333.101024 143.90052 
L 333.42631 142.821032 
L 333.751597 143.570941 
L 334.076883 145.271323 
L 334.40217 143.672996 
L 334.727456 144.510485 
L 335.052742 146.376264 
L 335.378029 146.479983 
L 335.703315 141.622846 
L 336.028602 143.332405 
L 336.353888 146.048171 
L 336.679175 143.427641 
L 337.004461 145.143374 
L 337.330054 144.952203 
L 337.65534 144.285438 
L 337.980627 146.579863 
L 338.305913 144.877205 
L 338.956486 145.520828 
L 339.281772 146.307043 
L 339.607059 145.700923 
L 339.932345 145.485702 
L 340.257632 144.347945 
L 340.582918 146.147094 
L 340.908205 144.942701 
L 341.233491 144.725952 
L 341.558777 147.45402 
L 341.884064 147.711324 
L 342.20935 149.477297 
L 342.534637 147.815907 
L 342.86023 147.164638 
L 343.185516 145.977143 
L 343.510802 149.740214 
L 343.836089 147.562042 
L 344.161375 147.891839 
L 344.811948 147.522028 
L 345.137235 148.310137 
L 345.462521 147.623561 
L 345.787807 149.456558 
L 346.113094 147.727697 
L 346.43838 149.54468 
L 346.763667 147.852383 
L 347.088953 148.150603 
L 347.414239 149.827022 
L 347.739526 149.164323 
L 348.065119 149.949439 
L 348.390405 149.852972 
L 348.715692 151.001105 
L 349.040978 148.92572 
L 349.366265 150.218572 
L 349.691551 150.440653 
L 350.342124 150.051435 
L 350.66741 149.420984 
L 350.992697 151.487196 
L 351.317983 152.760106 
L 351.643269 153.213314 
L 351.968556 151.485928 
L 352.293842 154.105973 
L 352.619129 152.037748 
L 352.944415 151.945992 
L 353.270008 154.106583 
L 353.595295 151.606124 
L 354.245867 154.394184 
L 354.571154 154.126225 
L 354.89644 153.427006 
L 355.221727 154.816136 
L 355.872299 154.344749 
L 356.197586 154.557112 
L 356.522872 155.821039 
L 356.848159 154.42399 
L 357.173445 155.483479 
L 357.498732 154.925517 
L 358.800184 157.950276 
L 359.12547 156.684754 
L 359.450757 157.539855 
L 359.776043 157.645162 
L 360.751902 158.44793 
L 361.077189 159.378412 
L 361.402475 159.553796 
L 361.727762 159.928227 
L 362.053048 159.144907 
L 362.378334 158.922779 
L 362.703621 161.416813 
L 363.028907 160.511964 
L 363.354194 160.88147 
L 363.67948 161.809797 
L 364.005073 161.301412 
L 364.330359 163.195802 
L 364.655646 161.243303 
L 364.980932 163.230376 
L 365.306219 163.221347 
L 365.631505 163.001986 
L 365.956792 163.629123 
L 366.282078 164.716439 
L 366.607364 163.787478 
L 366.932651 163.922863 
L 367.257937 164.525739 
L 367.583224 166.809608 
L 367.90851 165.838222 
L 368.233796 168.257126 
L 368.559083 166.245628 
L 368.884369 165.669427 
L 369.209962 168.52914 
L 369.535249 168.980004 
L 369.860535 168.663544 
L 370.185822 169.057681 
L 370.511108 169.051846 
L 370.836394 169.172457 
L 371.161681 169.697044 
L 371.486967 169.602211 
L 371.812254 170.372038 
L 372.13754 171.976666 
L 372.462826 170.967553 
L 372.788113 172.954595 
L 373.113399 173.461798 
L 373.438686 174.365847 
L 373.763972 173.166816 
L 374.089259 173.755424 
L 374.740138 173.930995 
L 375.065424 174.155589 
L 375.390711 176.739479 
L 375.715997 175.547176 
L 376.041284 177.198814 
L 376.36657 176.804464 
L 376.691856 177.037249 
L 377.017143 178.201524 
L 377.342429 178.426668 
L 377.667716 178.31771 
L 377.993002 180.095953 
L 378.318289 179.996112 
L 378.968861 182.730561 
L 379.294148 182.022466 
L 379.619434 182.582079 
L 380.270314 184.807464 
L 380.5956 184.067881 
L 380.920886 183.610591 
L 381.246173 184.458868 
L 381.571459 185.844612 
L 381.896746 187.859237 
L 382.222032 187.97554 
L 382.547319 186.474715 
L 382.872605 188.517794 
L 383.197891 188.181219 
L 383.523178 188.474139 
L 383.848464 190.108445 
L 384.173751 190.209703 
L 384.499037 190.911153 
L 384.824323 194.113188 
L 385.14961 191.289926 
L 385.475203 193.207399 
L 385.800489 193.448132 
L 386.125776 194.177312 
L 386.451062 196.025255 
L 386.776349 196.915516 
L 387.101635 197.441657 
L 387.426921 197.61976 
L 387.752208 199.202686 
L 388.077494 205.826066 
L 388.402781 210.104471 
L 389.053353 209.841455 
L 390.680092 209.584125 
L 394.258243 209.320568 
L 398.487273 209.212207 
L 398.487273 209.212207 
" style="fill:none;stroke:#1f77b4;stroke-linecap:square;stroke-width:1.5;"/>
   </g>
   <g id="patch_9">
    <path d="M 57.6 213.662118 
L 57.6 135.393882 
" style="fill:none;stroke:#000000;stroke-linecap:square;stroke-linejoin:miter;stroke-width:0.8;"/>
   </g>
   <g id="patch_10">
    <path d="M 414.72 213.662118 
L 414.72 135.393882 
" style="fill:none;stroke:#000000;stroke-linecap:square;stroke-linejoin:miter;stroke-width:0.8;"/>
   </g>
   <g id="patch_11">
    <path d="M 57.6 213.662118 
L 414.72 213.662118 
" style="fill:none;stroke:#000000;stroke-linecap:square;stroke-linejoin:miter;stroke-width:0.8;"/>
   </g>
   <g id="patch_12">
    <path d="M 57.6 135.393882 
L 414.72 135.393882 
" style="fill:none;stroke:#000000;stroke-linecap:square;stroke-linejoin:miter;stroke-width:0.8;"/>
   </g>
  </g>
  <g id="axes_3">
   <g id="patch_13">
    <path d="M 57.6 307.584 
L 414.72 307.584 
L 414.72 229.315765 
L 57.6 229.315765 
z
" style="fill:#ffffff;"/>
   </g>
   <g id="matplotlib.axis_5">
    <g id="xtick_11">
     <g id="line2d_42">
      <path clip-path="url(#pb273475fdc)" d="M 113.363458 307.584 
L 113.363458 229.315765 
" style="fill:none;stroke:#b0b0b0;stroke-linecap:square;stroke-width:0.8;"/>
     </g>
     <g id="line2d_43">
      <g>
       <use style="stroke:#000000;stroke-width:0.8;" x="113.363458" xlink:href="#md38ae83581" y="307.584"/>
      </g>
     </g>
     <g id="text_11">
      <!-- 4 -->
      <defs>
       <path d="M 10.59375 35.5 
L 73.1875 35.5 
L 73.1875 27.203125 
L 10.59375 27.203125 
z
" id="DejaVuSans-2212"/>
       <path d="M 37.796875 64.3125 
L 12.890625 25.390625 
L 37.796875 25.390625 
z
M 35.203125 72.90625 
L 47.609375 72.90625 
L 47.609375 25.390625 
L 58.015625 25.390625 
L 58.015625 17.1875 
L 47.609375 17.1875 
L 47.609375 0 
L 37.796875 0 
L 37.796875 17.1875 
L 4.890625 17.1875 
L 4.890625 26.703125 
z
" id="DejaVuSans-34"/>
      </defs>
      <g transform="translate(105.992364 322.182437)scale(0.1 -0.1)">
       <use xlink:href="#DejaVuSans-2212"/>
       <use x="83.789062" xlink:href="#DejaVuSans-34"/>
      </g>
     </g>
    </g>
    <g id="xtick_12">
     <g id="line2d_44">
      <path clip-path="url(#pb273475fdc)" d="M 174.680407 307.584 
L 174.680407 229.315765 
" style="fill:none;stroke:#b0b0b0;stroke-linecap:square;stroke-width:0.8;"/>
     </g>
     <g id="line2d_45">
      <g>
       <use style="stroke:#000000;stroke-width:0.8;" x="174.680407" xlink:href="#md38ae83581" y="307.584"/>
      </g>
     </g>
     <g id="text_12">
      <!-- 2 -->
      <g transform="translate(167.309314 322.182437)scale(0.1 -0.1)">
       <use xlink:href="#DejaVuSans-2212"/>
       <use x="83.789062" xlink:href="#DejaVuSans-32"/>
      </g>
     </g>
    </g>
    <g id="xtick_13">
     <g id="line2d_46">
      <path clip-path="url(#pb273475fdc)" d="M 235.997357 307.584 
L 235.997357 229.315765 
" style="fill:none;stroke:#b0b0b0;stroke-linecap:square;stroke-width:0.8;"/>
     </g>
     <g id="line2d_47">
      <g>
       <use style="stroke:#000000;stroke-width:0.8;" x="235.997357" xlink:href="#md38ae83581" y="307.584"/>
      </g>
     </g>
     <g id="text_13">
      <!-- 0 -->
      <g transform="translate(232.816107 322.182437)scale(0.1 -0.1)">
       <use xlink:href="#DejaVuSans-30"/>
      </g>
     </g>
    </g>
    <g id="xtick_14">
     <g id="line2d_48">
      <path clip-path="url(#pb273475fdc)" d="M 297.314306 307.584 
L 297.314306 229.315765 
" style="fill:none;stroke:#b0b0b0;stroke-linecap:square;stroke-width:0.8;"/>
     </g>
     <g id="line2d_49">
      <g>
       <use style="stroke:#000000;stroke-width:0.8;" x="297.314306" xlink:href="#md38ae83581" y="307.584"/>
      </g>
     </g>
     <g id="text_14">
      <!-- 2 -->
      <g transform="translate(294.133056 322.182437)scale(0.1 -0.1)">
       <use xlink:href="#DejaVuSans-32"/>
      </g>
     </g>
    </g>
    <g id="xtick_15">
     <g id="line2d_50">
      <path clip-path="url(#pb273475fdc)" d="M 358.631256 307.584 
L 358.631256 229.315765 
" style="fill:none;stroke:#b0b0b0;stroke-linecap:square;stroke-width:0.8;"/>
     </g>
     <g id="line2d_51">
      <g>
       <use style="stroke:#000000;stroke-width:0.8;" x="358.631256" xlink:href="#md38ae83581" y="307.584"/>
      </g>
     </g>
     <g id="text_15">
      <!-- 4 -->
      <g transform="translate(355.450006 322.182437)scale(0.1 -0.1)">
       <use xlink:href="#DejaVuSans-34"/>
      </g>
     </g>
    </g>
   </g>
   <g id="matplotlib.axis_6">
    <g id="ytick_5">
     <g id="line2d_52">
      <path clip-path="url(#pb273475fdc)" d="M 57.6 301.381105 
L 414.72 301.381105 
" style="fill:none;stroke:#b0b0b0;stroke-linecap:square;stroke-width:0.8;"/>
     </g>
     <g id="line2d_53">
      <g>
       <use style="stroke:#000000;stroke-width:0.8;" x="57.6" xlink:href="#ma360eec439" y="301.381105"/>
      </g>
     </g>
     <g id="text_16">
      <!-- 0 -->
      <g transform="translate(44.2375 305.180324)scale(0.1 -0.1)">
       <use xlink:href="#DejaVuSans-30"/>
      </g>
     </g>
    </g>
    <g id="ytick_6">
     <g id="line2d_54">
      <path clip-path="url(#pb273475fdc)" d="M 57.6 272.560763 
L 414.72 272.560763 
" style="fill:none;stroke:#b0b0b0;stroke-linecap:square;stroke-width:0.8;"/>
     </g>
     <g id="line2d_55">
      <g>
       <use style="stroke:#000000;stroke-width:0.8;" x="57.6" xlink:href="#ma360eec439" y="272.560763"/>
      </g>
     </g>
     <g id="text_17">
      <!-- 100 -->
      <defs>
       <path d="M 12.40625 8.296875 
L 28.515625 8.296875 
L 28.515625 63.921875 
L 10.984375 60.40625 
L 10.984375 69.390625 
L 28.421875 72.90625 
L 38.28125 72.90625 
L 38.28125 8.296875 
L 54.390625 8.296875 
L 54.390625 0 
L 12.40625 0 
z
" id="DejaVuSans-31"/>
      </defs>
      <g transform="translate(31.5125 276.359982)scale(0.1 -0.1)">
       <use xlink:href="#DejaVuSans-31"/>
       <use x="63.623047" xlink:href="#DejaVuSans-30"/>
       <use x="127.246094" xlink:href="#DejaVuSans-30"/>
      </g>
     </g>
    </g>
    <g id="ytick_7">
     <g id="line2d_56">
      <path clip-path="url(#pb273475fdc)" d="M 57.6 243.740422 
L 414.72 243.740422 
" style="fill:none;stroke:#b0b0b0;stroke-linecap:square;stroke-width:0.8;"/>
     </g>
     <g id="line2d_57">
      <g>
       <use style="stroke:#000000;stroke-width:0.8;" x="57.6" xlink:href="#ma360eec439" y="243.740422"/>
      </g>
     </g>
     <g id="text_18">
      <!-- 200 -->
      <g transform="translate(31.5125 247.53964)scale(0.1 -0.1)">
       <use xlink:href="#DejaVuSans-32"/>
       <use x="63.623047" xlink:href="#DejaVuSans-30"/>
       <use x="127.246094" xlink:href="#DejaVuSans-30"/>
      </g>
     </g>
    </g>
    <g id="text_19">
     <!-- Pressung einer Scheibe -->
     <g transform="translate(25.432812 327.068632)rotate(-90)scale(0.1 -0.1)">
      <use xlink:href="#DejaVuSans-50"/>
      <use x="60.287109" xlink:href="#DejaVuSans-72"/>
      <use x="101.369141" xlink:href="#DejaVuSans-65"/>
      <use x="162.892578" xlink:href="#DejaVuSans-73"/>
      <use x="214.992188" xlink:href="#DejaVuSans-73"/>
      <use x="267.091797" xlink:href="#DejaVuSans-75"/>
      <use x="330.470703" xlink:href="#DejaVuSans-6e"/>
      <use x="393.849609" xlink:href="#DejaVuSans-67"/>
      <use x="457.326172" xlink:href="#DejaVuSans-20"/>
      <use x="489.113281" xlink:href="#DejaVuSans-65"/>
      <use x="550.636719" xlink:href="#DejaVuSans-69"/>
      <use x="578.419922" xlink:href="#DejaVuSans-6e"/>
      <use x="641.798828" xlink:href="#DejaVuSans-65"/>
      <use x="703.322266" xlink:href="#DejaVuSans-72"/>
      <use x="744.435547" xlink:href="#DejaVuSans-20"/>
      <use x="776.222656" xlink:href="#DejaVuSans-53"/>
      <use x="839.699219" xlink:href="#DejaVuSans-63"/>
      <use x="894.679688" xlink:href="#DejaVuSans-68"/>
      <use x="958.058594" xlink:href="#DejaVuSans-65"/>
      <use x="1019.582031" xlink:href="#DejaVuSans-69"/>
      <use x="1047.365234" xlink:href="#DejaVuSans-62"/>
      <use x="1110.841797" xlink:href="#DejaVuSans-65"/>
     </g>
    </g>
   </g>
   <g id="line2d_58">
    <path clip-path="url(#pb273475fdc)" d="M 73.832727 302.952819 
L 75.784446 302.944694 
L 83.266647 303.200505 
L 87.495677 303.511946 
L 89.447395 303.850285 
L 89.772681 297.594594 
L 90.748541 292.305174 
L 91.399114 290.675294 
L 91.7244 291.184407 
L 92.049686 289.044286 
L 92.375279 289.007289 
L 92.700566 289.414473 
L 93.025852 286.417051 
L 93.351139 287.414675 
L 93.676425 286.028122 
L 94.001711 286.291052 
L 94.652284 283.520027 
L 94.977571 283.765603 
L 95.302857 283.692382 
L 95.628144 283.347992 
L 95.95343 282.08274 
L 96.278716 281.752414 
L 96.604003 279.447443 
L 96.929289 280.901095 
L 97.254576 279.256404 
L 97.580169 279.532274 
L 97.905455 278.72732 
L 98.230741 277.582219 
L 98.556028 277.825331 
L 98.881314 275.633076 
L 99.206601 276.229854 
L 99.531887 274.679833 
L 99.857174 274.077317 
L 100.18246 274.297633 
L 100.507746 272.737542 
L 100.833033 272.477469 
L 101.158319 273.06 
L 101.808892 271.047313 
L 102.134178 271.4477 
L 102.459465 270.649355 
L 102.784751 268.298355 
L 103.110344 269.371082 
L 103.760917 268.733043 
L 104.086204 267.658878 
L 104.41149 267.372492 
L 104.736776 267.729989 
L 105.062063 265.370194 
L 105.387349 266.421215 
L 106.037922 265.089739 
L 106.363208 264.530259 
L 106.688495 264.67158 
L 107.013781 263.882296 
L 107.339068 263.798744 
L 107.664354 263.487585 
L 107.989641 262.450425 
L 108.315234 262.371841 
L 108.64052 261.566919 
L 108.965806 261.962973 
L 109.291093 260.681216 
L 109.616379 260.610107 
L 109.941666 259.079919 
L 110.266952 259.966418 
L 110.592238 259.883625 
L 111.242811 257.11075 
L 111.568098 257.719744 
L 111.893384 256.437363 
L 112.543957 256.209619 
L 112.869243 256.645397 
L 113.19453 254.843826 
L 113.520123 254.219829 
L 113.845409 254.873568 
L 114.170696 254.066261 
L 114.495982 254.464394 
L 114.821268 252.422862 
L 115.146555 253.023795 
L 115.471841 252.70628 
L 115.797128 252.187908 
L 116.122414 252.210535 
L 116.447701 251.110405 
L 116.772987 252.73973 
L 117.098273 251.729937 
L 117.42356 252.02581 
L 117.748846 250.650641 
L 118.074133 251.040477 
L 118.399419 249.757192 
L 118.724705 250.435454 
L 119.050298 250.02569 
L 119.375585 249.126343 
L 120.026158 248.8125 
L 120.351444 250.646712 
L 121.002017 248.059797 
L 121.65259 246.567033 
L 121.977876 247.232597 
L 122.303163 246.477663 
L 122.628449 246.380706 
L 122.953735 245.911804 
L 123.279022 246.598889 
L 123.604308 246.477203 
L 123.929595 245.379983 
L 124.255188 245.103284 
L 124.580474 245.318316 
L 124.905761 244.201221 
L 125.231047 245.707562 
L 125.556333 244.55268 
L 125.88162 245.096923 
L 126.206906 245.150603 
L 126.532193 245.38158 
L 126.857479 243.452985 
L 127.182765 243.342218 
L 127.508052 244.070091 
L 127.833338 241.895312 
L 128.158625 243.871044 
L 128.483911 244.43737 
L 128.809198 242.615365 
L 129.134484 242.356109 
L 129.460077 243.078429 
L 129.785363 242.450398 
L 130.11065 242.452926 
L 130.435936 242.325569 
L 130.761223 241.324196 
L 131.086509 242.920804 
L 131.411795 241.555945 
L 131.737082 240.940653 
L 132.062368 240.685157 
L 132.387655 241.031545 
L 132.712941 241.756754 
L 133.038228 241.119197 
L 133.363514 240.816988 
L 133.6888 242.211259 
L 134.014087 240.817466 
L 134.339373 240.202609 
L 134.990253 239.825614 
L 135.315539 240.570478 
L 135.640825 240.126856 
L 135.966112 241.387316 
L 136.291398 239.080242 
L 136.616685 238.677763 
L 136.941971 238.635173 
L 137.267258 239.170805 
L 137.592544 238.842439 
L 137.91783 238.281825 
L 138.243117 239.621584 
L 138.568403 238.378518 
L 138.89369 240.053726 
L 139.544262 237.961549 
L 139.869549 238.743738 
L 140.195142 237.681208 
L 141.171001 238.634597 
L 141.821574 238.474672 
L 142.14686 238.267111 
L 142.472147 237.62694 
L 142.797433 237.97918 
L 143.12272 237.827251 
L 143.448006 238.0604 
L 143.773292 237.475622 
L 144.098579 237.716636 
L 144.423865 237.734006 
L 144.749152 237.535946 
L 145.074438 237.495108 
L 145.399725 237.25799 
L 145.725318 236.716233 
L 146.050604 236.524847 
L 146.37589 236.828332 
L 146.701177 236.714174 
L 147.026463 237.141156 
L 147.35175 236.372052 
L 148.002322 237.059421 
L 148.652895 236.804322 
L 148.978182 235.695893 
L 149.628755 236.390831 
L 149.954041 235.762421 
L 150.279327 235.57845 
L 150.930207 237.197481 
L 151.255493 236.065386 
L 151.58078 236.422911 
L 151.906066 235.778825 
L 152.556639 235.482152 
L 152.881925 235.836717 
L 153.207212 235.181433 
L 153.532498 236.007831 
L 154.183071 235.696898 
L 154.508357 235.040841 
L 154.833644 235.87964 
L 155.809503 235.402552 
L 156.135096 235.741568 
L 156.785669 235.409574 
L 157.110955 237.236729 
L 157.436242 235.11233 
L 157.761528 234.514321 
L 158.086815 234.837945 
L 158.412101 235.626872 
L 158.737387 235.479851 
L 159.062674 235.848389 
L 159.713247 234.529699 
L 160.038533 234.868234 
L 160.363819 235.671496 
L 160.689106 235.078083 
L 161.014392 234.890736 
L 161.339679 235.199001 
L 161.665272 234.575594 
L 161.990558 235.378444 
L 162.315845 234.761809 
L 162.641131 234.606614 
L 162.966417 234.900812 
L 163.291704 234.783167 
L 163.61699 235.024564 
L 163.942277 234.967402 
L 164.267563 234.25816 
L 164.592849 234.700674 
L 164.918136 235.483749 
L 165.243422 234.44368 
L 165.568709 234.740446 
L 165.893995 234.08836 
L 166.219282 233.988755 
L 166.544568 235.12537 
L 166.870161 235.158462 
L 167.195447 234.374549 
L 167.520734 234.221976 
L 167.84602 234.564112 
L 168.496593 234.255446 
L 168.821879 233.676182 
L 169.147166 234.012966 
L 169.472452 234.685694 
L 169.797739 234.183471 
L 170.123025 234.445427 
L 170.448312 233.871816 
L 170.773598 234.12659 
L 171.098884 234.04933 
L 171.424171 234.386991 
L 171.749457 234.134639 
L 172.07505 233.556731 
L 172.400337 235.390477 
L 172.725623 234.028475 
L 173.376196 234.807207 
L 173.701482 233.855398 
L 174.352055 234.431017 
L 175.002628 234.110804 
L 175.327914 234.342206 
L 175.653201 233.791863 
L 175.978487 234.401652 
L 176.303774 234.23888 
L 176.62906 233.696232 
L 176.954346 234.035097 
L 177.279633 233.738173 
L 177.605226 234.938415 
L 178.581085 233.220065 
L 178.906372 234.182228 
L 179.556944 234.198158 
L 179.882231 235.02769 
L 180.207517 234.363639 
L 180.532804 234.061206 
L 180.85809 235.040256 
L 181.183376 234.023393 
L 181.508663 234.231666 
L 181.833949 233.573518 
L 182.484522 234.034649 
L 182.810115 234.560889 
L 183.460688 234.225595 
L 183.785974 234.562188 
L 184.111261 234.05256 
L 184.436547 234.731529 
L 184.761834 234.229991 
L 185.08712 234.070784 
L 185.412406 234.239339 
L 185.737693 234.567772 
L 186.062979 234.73777 
L 186.388266 233.903855 
L 186.713552 234.413002 
L 187.364125 234.07836 
L 188.014698 234.73729 
L 188.340291 234.249795 
L 188.665577 234.725035 
L 189.31615 233.95644 
L 189.641436 234.484007 
L 189.966723 234.130698 
L 190.292009 234.665614 
L 190.617296 233.817144 
L 191.267869 234.103728 
L 191.918441 234.270901 
L 192.243728 234.01094 
L 192.569014 233.946299 
L 192.894301 233.686302 
L 193.219587 234.520015 
L 193.870466 233.899686 
L 194.195753 234.816443 
L 194.521039 233.868301 
L 194.846326 233.997163 
L 195.171612 234.340661 
L 195.496899 233.402354 
L 195.822185 233.521675 
L 196.147471 234.130425 
L 196.798044 233.84214 
L 197.123331 234.129769 
L 197.448617 233.693683 
L 197.773903 233.75891 
L 198.09919 234.363069 
L 198.424476 233.699507 
L 199.075356 233.87881 
L 199.400642 233.453542 
L 199.725929 233.802506 
L 200.051215 234.374833 
L 200.701788 233.555583 
L 201.027074 233.900225 
L 201.352361 233.239423 
L 201.677647 233.322436 
L 202.002933 233.904327 
L 202.653506 233.564195 
L 202.978793 234.401461 
L 203.304079 233.234553 
L 203.629366 233.834735 
L 203.954652 233.903279 
L 204.280245 233.736882 
L 204.930818 233.944072 
L 205.256104 233.740736 
L 205.581391 234.082241 
L 205.906677 233.424626 
L 206.231963 233.212369 
L 206.55725 233.600164 
L 206.882536 233.48988 
L 207.207823 233.540015 
L 207.533109 234.090126 
L 207.858396 233.417298 
L 208.183682 234.252305 
L 208.508968 233.797577 
L 208.834255 233.634459 
L 209.485134 233.888544 
L 210.135707 233.573029 
L 210.460993 233.110768 
L 210.78628 233.947469 
L 211.111566 233.27744 
L 211.436853 233.61122 
L 212.087426 233.772703 
L 212.412712 233.604473 
L 212.737998 233.938315 
L 213.063285 233.772111 
L 213.388571 233.929301 
L 213.713858 233.140777 
L 214.039144 233.298122 
L 214.36443 233.31184 
L 214.690023 233.134978 
L 215.01531 233.956433 
L 215.340596 234.104319 
L 215.665883 233.763823 
L 216.316456 233.768225 
L 216.641742 233.608701 
L 216.967028 234.108674 
L 217.292315 233.611942 
L 217.617601 233.450455 
L 217.942888 233.440653 
L 218.268174 234.105082 
L 218.59346 234.280226 
L 218.918747 233.434769 
L 219.244033 233.267621 
L 219.56932 234.13455 
L 220.220199 234.105435 
L 220.545486 233.804193 
L 220.870772 232.936838 
L 221.196058 233.985882 
L 221.521345 233.462531 
L 221.846631 233.442297 
L 222.171918 233.271825 
L 222.497204 233.878845 
L 222.82249 233.201469 
L 223.147777 233.762242 
L 223.473063 233.449701 
L 223.79835 234.520969 
L 224.123636 233.484955 
L 224.448923 233.828192 
L 224.774209 233.539352 
L 225.099495 233.626456 
L 225.425088 233.332102 
L 225.750375 234.286774 
L 226.075661 233.500438 
L 226.400948 233.453593 
L 227.05152 234.105395 
L 227.376807 234.044022 
L 227.702093 234.555479 
L 228.02738 233.1178 
L 228.352666 233.462239 
L 228.677953 233.393096 
L 229.003239 234.116005 
L 229.328525 234.048943 
L 229.653812 233.691 
L 229.979098 233.129859 
L 230.304385 233.561027 
L 230.629671 233.383198 
L 230.955264 234.118373 
L 231.28055 233.627336 
L 231.605837 233.688755 
L 231.931123 233.863944 
L 232.25641 234.343988 
L 232.581696 234.181005 
L 232.906983 233.605021 
L 233.232269 233.43421 
L 233.557555 234.92605 
L 233.882842 233.683888 
L 234.208128 233.460519 
L 234.533415 232.873412 
L 234.858701 233.199135 
L 235.183987 233.945382 
L 235.509274 234.197251 
L 235.83456 234.162932 
L 236.160153 233.93677 
L 236.48544 233.273796 
L 236.810726 233.601101 
L 237.136013 234.423662 
L 237.461299 234.254011 
L 237.786585 233.587272 
L 238.111872 234.370136 
L 238.437158 233.75649 
L 238.762445 234.046801 
L 239.087731 233.43168 
L 239.738304 234.037428 
L 240.06359 234.781454 
L 240.388877 233.752506 
L 240.714163 233.594537 
L 241.03945 233.930062 
L 241.690329 233.595443 
L 242.340902 234.253034 
L 242.666188 233.609994 
L 242.991475 234.411642 
L 244.29262 233.743665 
L 245.26848 233.279989 
L 245.593766 233.596127 
L 245.919052 233.445095 
L 246.244339 234.256849 
L 247.545791 233.597202 
L 247.871077 233.92454 
L 248.52165 233.59428 
L 248.846937 233.931001 
L 249.172223 233.265334 
L 249.49751 234.090409 
L 249.822796 233.43334 
L 250.148082 233.769686 
L 250.473369 233.58807 
L 250.798655 233.905007 
L 251.123942 233.745841 
L 251.449228 234.080351 
L 251.774514 233.411082 
L 252.75068 234.36447 
L 253.075967 234.223175 
L 253.401253 233.531504 
L 253.72654 233.915605 
L 254.051826 234.685131 
L 254.702399 233.430356 
L 255.352972 234.065777 
L 255.678258 233.43679 
L 256.328831 234.01667 
L 256.654117 233.336439 
L 256.979404 234.613666 
L 257.30469 234.484673 
L 257.630283 233.871131 
L 257.95557 233.759766 
L 258.280856 233.988433 
L 258.606142 233.812709 
L 258.931429 234.248167 
L 259.256715 234.972065 
L 259.582002 232.988399 
L 259.907288 233.70136 
L 260.232574 235.030071 
L 260.557861 233.494812 
L 260.883147 233.708596 
L 261.208434 233.535973 
L 261.53372 234.295758 
L 261.859007 233.691998 
L 262.509579 234.351868 
L 262.835172 233.682461 
L 263.160459 234.094855 
L 263.485745 233.923749 
L 263.811032 234.089133 
L 264.136318 233.993324 
L 264.461604 234.747141 
L 264.786891 234.142257 
L 265.112177 235.160887 
L 265.437464 233.315937 
L 265.76275 234.563025 
L 266.088037 234.297649 
L 266.413323 233.821102 
L 267.063896 234.3804 
L 267.389182 234.414789 
L 267.714469 234.154282 
L 268.040062 233.597753 
L 268.690634 234.15392 
L 269.341207 233.928167 
L 269.666494 234.14878 
L 270.317067 233.924617 
L 270.642353 234.371681 
L 271.292926 234.298452 
L 271.618212 234.011212 
L 271.943499 233.969298 
L 272.268785 234.304656 
L 272.594071 233.767353 
L 273.244644 234.306965 
L 273.570237 233.644435 
L 273.895524 233.47919 
L 274.546097 234.270462 
L 274.871383 233.960754 
L 275.196669 234.302712 
L 275.521956 232.922485 
L 275.847242 234.469121 
L 276.172529 233.439058 
L 276.497815 234.121922 
L 276.823101 233.944875 
L 277.148388 234.27436 
L 277.473674 233.948374 
L 277.798961 234.091548 
L 278.124247 233.920275 
L 278.449534 234.248189 
L 278.775127 234.401557 
L 279.100413 234.076654 
L 279.425699 233.911392 
L 279.750986 234.242554 
L 280.726845 234.219893 
L 281.052131 234.040852 
L 281.377418 234.86429 
L 281.702704 234.364986 
L 282.027991 234.372413 
L 282.353277 234.698896 
L 282.678564 234.847358 
L 283.00385 234.3633 
L 284.305302 234.884727 
L 284.630589 234.150969 
L 285.281161 234.213722 
L 285.606448 234.043283 
L 285.931734 234.575405 
L 286.257021 233.996067 
L 286.582307 234.820238 
L 286.907594 234.639249 
L 287.23288 235.176031 
L 287.558166 234.511904 
L 287.883453 234.644091 
L 288.208739 234.26928 
L 288.534026 234.244118 
L 288.859312 234.364634 
L 289.184598 234.196406 
L 290.160764 234.459304 
L 290.811337 234.553912 
L 291.136624 235.474175 
L 291.787196 234.102745 
L 292.112483 234.940045 
L 292.437769 234.274707 
L 292.763056 234.111845 
L 293.088342 234.176498 
L 293.413628 234.764618 
L 293.738915 234.331726 
L 294.064201 234.415923 
L 294.389488 234.972933 
L 295.040367 234.652814 
L 295.365654 234.238192 
L 295.69094 234.822099 
L 296.016226 234.153107 
L 296.992086 234.390194 
L 297.317372 234.73411 
L 297.642658 234.53682 
L 297.967945 234.864078 
L 298.293231 234.694048 
L 298.618518 234.289195 
L 298.943804 234.885381 
L 299.269091 234.669777 
L 299.594377 234.99644 
L 299.919663 234.825854 
L 300.245256 234.37592 
L 300.570543 235.199462 
L 300.895829 234.800741 
L 301.221116 234.625537 
L 301.546402 234.943194 
L 301.871688 234.514376 
L 302.196975 238.667164 
L 302.522261 235.939173 
L 303.172834 234.881071 
L 303.498121 234.43392 
L 304.148693 235.191847 
L 304.47398 234.12618 
L 304.799266 235.553919 
L 305.124553 234.778462 
L 305.450146 234.915653 
L 306.100718 234.576484 
L 306.426005 234.900151 
L 306.751291 235.030111 
L 307.076578 235.356799 
L 307.727151 234.704562 
L 308.377723 235.529049 
L 308.70301 235.357641 
L 309.028296 235.014818 
L 309.353583 234.849812 
L 309.678869 234.853169 
L 310.004155 235.002597 
L 310.329442 235.326289 
L 310.655035 235.326851 
L 310.980321 234.659493 
L 311.305608 234.823559 
L 311.630894 234.808086 
L 311.956181 235.300345 
L 312.281467 235.443497 
L 312.606753 235.105312 
L 312.93204 235.774876 
L 313.582613 234.943016 
L 313.907899 235.274697 
L 314.233185 234.899829 
L 314.558472 235.575561 
L 314.883758 235.046872 
L 315.534331 235.336062 
L 315.859618 235.231263 
L 316.510497 235.51125 
L 316.835783 235.693218 
L 317.811643 235.512113 
L 318.136929 237.830204 
L 318.462215 235.557075 
L 318.787502 235.533404 
L 319.112788 235.114924 
L 319.763361 235.637071 
L 320.088648 235.454235 
L 320.413934 235.608299 
L 320.73922 237.440755 
L 321.064507 236.365112 
L 321.3901 237.920798 
L 321.715386 236.157823 
L 322.040673 235.115224 
L 322.365959 236.228634 
L 323.016532 235.887956 
L 323.341818 235.42052 
L 323.667105 236.144147 
L 323.992391 235.158104 
L 324.317678 235.647378 
L 324.642964 237.449081 
L 324.96825 237.947052 
L 325.293537 235.680242 
L 325.618823 237.175213 
L 326.269396 237.413336 
L 326.594989 240.389816 
L 326.920275 235.437578 
L 327.245562 236.627054 
L 327.570848 236.520474 
L 327.896135 237.676218 
L 328.221421 237.078594 
L 329.19728 236.565812 
L 329.847853 237.187463 
L 330.17314 237.563272 
L 330.498426 237.443708 
L 330.823712 237.133147 
L 331.148999 237.375393 
L 331.474285 239.184676 
L 331.799572 237.078493 
L 332.450451 237.675378 
L 332.775738 237.548294 
L 333.101024 237.822403 
L 333.42631 236.742914 
L 333.751597 237.492823 
L 334.076883 239.193205 
L 334.40217 237.594879 
L 334.727456 238.432368 
L 335.052742 240.298147 
L 335.378029 240.401865 
L 335.703315 235.544728 
L 336.028602 237.254288 
L 336.353888 239.970053 
L 336.679175 237.349524 
L 337.004461 239.065256 
L 337.330054 238.874085 
L 337.65534 238.207321 
L 337.980627 240.501746 
L 338.305913 238.799088 
L 338.956486 239.44271 
L 339.281772 240.228926 
L 339.607059 239.622805 
L 339.932345 239.407584 
L 340.257632 238.269827 
L 340.582918 240.068976 
L 340.908205 238.864584 
L 341.233491 238.647834 
L 341.558777 241.375903 
L 341.884064 241.633207 
L 342.20935 243.39918 
L 342.534637 241.737789 
L 342.86023 241.08652 
L 343.185516 239.899026 
L 343.510802 243.662096 
L 343.836089 241.483925 
L 344.161375 241.813721 
L 344.811948 241.44391 
L 345.137235 242.232019 
L 345.462521 241.545444 
L 345.787807 243.378441 
L 346.113094 241.64958 
L 346.43838 243.466562 
L 346.763667 241.774265 
L 347.088953 242.072485 
L 347.414239 243.748904 
L 347.739526 243.086205 
L 348.065119 243.871321 
L 348.390405 243.774855 
L 348.715692 244.922988 
L 349.040978 242.847602 
L 349.366265 244.140455 
L 349.691551 244.362535 
L 350.342124 243.973317 
L 350.66741 243.342866 
L 350.992697 245.409078 
L 351.317983 246.681988 
L 351.643269 247.135196 
L 351.968556 245.40781 
L 352.293842 248.027856 
L 352.619129 245.95963 
L 352.944415 245.867874 
L 353.270008 248.028466 
L 353.595295 245.528006 
L 354.245867 248.316066 
L 354.571154 248.048108 
L 354.89644 247.348888 
L 355.221727 248.738018 
L 355.872299 248.266631 
L 356.197586 248.478994 
L 356.522872 249.742921 
L 356.848159 248.345872 
L 357.173445 249.405361 
L 357.498732 248.847399 
L 358.800184 251.872158 
L 359.12547 250.606637 
L 359.450757 251.461737 
L 359.776043 251.567044 
L 360.751902 252.369812 
L 361.077189 253.300295 
L 361.402475 253.475679 
L 361.727762 253.850109 
L 362.053048 253.066789 
L 362.378334 252.844662 
L 362.703621 255.338695 
L 363.028907 254.433846 
L 363.354194 254.803352 
L 363.67948 255.731679 
L 364.005073 255.223294 
L 364.330359 257.117684 
L 364.655646 255.165186 
L 364.980932 257.152259 
L 365.306219 257.143229 
L 365.631505 256.923868 
L 365.956792 257.551006 
L 366.282078 258.638322 
L 366.607364 257.70936 
L 366.932651 257.844746 
L 367.257937 258.447621 
L 367.583224 260.73149 
L 367.90851 259.760104 
L 368.233796 262.179009 
L 368.559083 260.167511 
L 368.884369 259.591309 
L 369.209962 262.451022 
L 369.535249 262.901886 
L 369.860535 262.585427 
L 370.185822 262.979564 
L 370.511108 262.973728 
L 370.836394 263.094339 
L 371.161681 263.618926 
L 371.486967 263.524093 
L 371.812254 264.29392 
L 372.13754 265.898549 
L 372.462826 264.889436 
L 372.788113 266.876477 
L 373.113399 267.38368 
L 373.438686 268.287729 
L 373.763972 267.088699 
L 374.089259 267.677306 
L 374.740138 267.852877 
L 375.065424 268.077471 
L 375.390711 270.661361 
L 375.715997 269.469058 
L 376.041284 271.120696 
L 376.36657 270.726347 
L 376.691856 270.959131 
L 377.017143 272.123407 
L 377.342429 272.348551 
L 377.667716 272.239592 
L 377.993002 274.017835 
L 378.318289 273.917995 
L 378.968861 276.652443 
L 379.294148 275.944348 
L 379.619434 276.503961 
L 380.270314 278.729347 
L 380.5956 277.989763 
L 380.920886 277.532473 
L 381.246173 278.38075 
L 381.571459 279.766495 
L 381.896746 281.781119 
L 382.222032 281.897422 
L 382.547319 280.396597 
L 382.872605 282.439677 
L 383.197891 282.103102 
L 383.523178 282.396022 
L 383.848464 284.030328 
L 384.173751 284.131585 
L 384.499037 284.833036 
L 384.824323 288.035071 
L 385.14961 285.211808 
L 385.475203 287.129281 
L 385.800489 287.370015 
L 386.125776 288.099195 
L 386.451062 289.947137 
L 386.776349 290.837398 
L 387.101635 291.363539 
L 387.426921 291.541643 
L 387.752208 293.124569 
L 388.077494 299.747948 
L 388.402781 304.026353 
L 389.053353 303.763337 
L 390.680092 303.506007 
L 394.258243 303.242451 
L 398.487273 303.13409 
L 398.487273 303.13409 
" style="fill:none;stroke:#1f77b4;stroke-linecap:square;stroke-width:1.5;"/>
   </g>
   <g id="patch_14">
    <path d="M 57.6 307.584 
L 57.6 229.315765 
" style="fill:none;stroke:#000000;stroke-linecap:square;stroke-linejoin:miter;stroke-width:0.8;"/>
   </g>
   <g id="patch_15">
    <path d="M 414.72 307.584 
L 414.72 229.315765 
" style="fill:none;stroke:#000000;stroke-linecap:square;stroke-linejoin:miter;stroke-width:0.8;"/>
   </g>
   <g id="patch_16">
    <path d="M 57.6 307.584 
L 414.72 307.584 
" style="fill:none;stroke:#000000;stroke-linecap:square;stroke-linejoin:miter;stroke-width:0.8;"/>
   </g>
   <g id="patch_17">
    <path d="M 57.6 229.315765 
L 414.72 229.315765 
" style="fill:none;stroke:#000000;stroke-linecap:square;stroke-linejoin:miter;stroke-width:0.8;"/>
   </g>
   <g id="legend_2">
    <g id="patch_18">
     <path d="M 381.008 246.99389 
L 549.22675 246.99389 
Q 551.22675 246.99389 551.22675 244.99389 
L 551.22675 231.315765 
Q 551.22675 229.315765 549.22675 229.315765 
L 381.008 229.315765 
Q 379.008 229.315765 379.008 231.315765 
L 379.008 244.99389 
Q 379.008 246.99389 381.008 246.99389 
z
" style="fill:#ffffff;opacity:0.8;stroke:#cccccc;stroke-linejoin:miter;"/>
    </g>
    <g id="line2d_59">
     <path d="M 383.008 237.414202 
L 403.008 237.414202 
" style="fill:none;stroke:#1f77b4;stroke-linecap:square;stroke-width:1.5;"/>
    </g>
    <g id="line2d_60"/>
    <g id="text_20">
     <!-- Pressung einer inf. Scheibe -->
     <g transform="translate(411.008 240.914202)scale(0.1 -0.1)">
      <use xlink:href="#DejaVuSans-50"/>
      <use x="60.287109" xlink:href="#DejaVuSans-72"/>
      <use x="101.369141" xlink:href="#DejaVuSans-65"/>
      <use x="162.892578" xlink:href="#DejaVuSans-73"/>
      <use x="214.992188" xlink:href="#DejaVuSans-73"/>
      <use x="267.091797" xlink:href="#DejaVuSans-75"/>
      <use x="330.470703" xlink:href="#DejaVuSans-6e"/>
      <use x="393.849609" xlink:href="#DejaVuSans-67"/>
      <use x="457.326172" xlink:href="#DejaVuSans-20"/>
      <use x="489.113281" xlink:href="#DejaVuSans-65"/>
      <use x="550.636719" xlink:href="#DejaVuSans-69"/>
      <use x="578.419922" xlink:href="#DejaVuSans-6e"/>
      <use x="641.798828" xlink:href="#DejaVuSans-65"/>
      <use x="703.322266" xlink:href="#DejaVuSans-72"/>
      <use x="744.435547" xlink:href="#DejaVuSans-20"/>
      <use x="776.222656" xlink:href="#DejaVuSans-69"/>
      <use x="804.005859" xlink:href="#DejaVuSans-6e"/>
      <use x="867.384766" xlink:href="#DejaVuSans-66"/>
      <use x="902.480469" xlink:href="#DejaVuSans-2e"/>
      <use x="934.267578" xlink:href="#DejaVuSans-20"/>
      <use x="966.054688" xlink:href="#DejaVuSans-53"/>
      <use x="1029.53125" xlink:href="#DejaVuSans-63"/>
      <use x="1084.511719" xlink:href="#DejaVuSans-68"/>
      <use x="1147.890625" xlink:href="#DejaVuSans-65"/>
      <use x="1209.414062" xlink:href="#DejaVuSans-69"/>
      <use x="1237.197266" xlink:href="#DejaVuSans-62"/>
      <use x="1300.673828" xlink:href="#DejaVuSans-65"/>
     </g>
    </g>
   </g>
  </g>
 </g>
 <defs>
  <clipPath id="p9f002792cb">
   <rect height="78.268235" width="357.12" x="57.6" y="41.472"/>
  </clipPath>
  <clipPath id="p67312a0095">
   <rect height="78.268235" width="357.12" x="57.6" y="135.393882"/>
  </clipPath>
  <clipPath id="pb273475fdc">
   <rect height="78.268235" width="357.12" x="57.6" y="229.315765"/>
  </clipPath>
 </defs>
</svg>
