<?xml version="1.0" encoding="utf-8" standalone="no"?>
<!DOCTYPE svg PUBLIC "-//W3C//DTD SVG 1.1//EN"
  "http://www.w3.org/Graphics/SVG/1.1/DTD/svg11.dtd">
<!-- Created with matplotlib (http://matplotlib.org/) -->
<svg height="345pt" version="1.1" viewBox="0 0 460 345" width="460pt" xmlns="http://www.w3.org/2000/svg" xmlns:xlink="http://www.w3.org/1999/xlink">
 <defs>
  <style type="text/css">
*{stroke-linecap:butt;stroke-linejoin:round;}
  </style>
 </defs>
 <g id="figure_1">
  <g id="patch_1">
   <path d="M 0 345.6 
L 460.8 345.6 
L 460.8 0 
L 0 0 
z
" style="fill:#ffffff;"/>
  </g>
  <g id="axes_1">
   <g id="patch_2">
    <path d="M 57.6 119.740235 
L 414.72 119.740235 
L 414.72 41.472 
L 57.6 41.472 
z
" style="fill:#ffffff;"/>
   </g>
   <g id="matplotlib.axis_1">
    <g id="xtick_1">
     <g id="line2d_1">
      <path clip-path="url(#p472d4edb9e)" d="M 113.363458 119.740235 
L 113.363458 41.472 
" style="fill:none;stroke:#b0b0b0;stroke-linecap:square;stroke-width:0.8;"/>
     </g>
     <g id="line2d_2">
      <defs>
       <path d="M 0 0 
L 0 3.5 
" id="m9882e4bf5b" style="stroke:#000000;stroke-width:0.8;"/>
      </defs>
      <g>
       <use style="stroke:#000000;stroke-width:0.8;" x="113.363458" xlink:href="#m9882e4bf5b" y="119.740235"/>
      </g>
     </g>
    </g>
    <g id="xtick_2">
     <g id="line2d_3">
      <path clip-path="url(#p472d4edb9e)" d="M 174.680407 119.740235 
L 174.680407 41.472 
" style="fill:none;stroke:#b0b0b0;stroke-linecap:square;stroke-width:0.8;"/>
     </g>
     <g id="line2d_4">
      <g>
       <use style="stroke:#000000;stroke-width:0.8;" x="174.680407" xlink:href="#m9882e4bf5b" y="119.740235"/>
      </g>
     </g>
    </g>
    <g id="xtick_3">
     <g id="line2d_5">
      <path clip-path="url(#p472d4edb9e)" d="M 235.997357 119.740235 
L 235.997357 41.472 
" style="fill:none;stroke:#b0b0b0;stroke-linecap:square;stroke-width:0.8;"/>
     </g>
     <g id="line2d_6">
      <g>
       <use style="stroke:#000000;stroke-width:0.8;" x="235.997357" xlink:href="#m9882e4bf5b" y="119.740235"/>
      </g>
     </g>
    </g>
    <g id="xtick_4">
     <g id="line2d_7">
      <path clip-path="url(#p472d4edb9e)" d="M 297.314306 119.740235 
L 297.314306 41.472 
" style="fill:none;stroke:#b0b0b0;stroke-linecap:square;stroke-width:0.8;"/>
     </g>
     <g id="line2d_8">
      <g>
       <use style="stroke:#000000;stroke-width:0.8;" x="297.314306" xlink:href="#m9882e4bf5b" y="119.740235"/>
      </g>
     </g>
    </g>
    <g id="xtick_5">
     <g id="line2d_9">
      <path clip-path="url(#p472d4edb9e)" d="M 358.631256 119.740235 
L 358.631256 41.472 
" style="fill:none;stroke:#b0b0b0;stroke-linecap:square;stroke-width:0.8;"/>
     </g>
     <g id="line2d_10">
      <g>
       <use style="stroke:#000000;stroke-width:0.8;" x="358.631256" xlink:href="#m9882e4bf5b" y="119.740235"/>
      </g>
     </g>
    </g>
   </g>
   <g id="matplotlib.axis_2">
    <g id="ytick_1">
     <g id="line2d_11">
      <path clip-path="url(#p472d4edb9e)" d="M 57.6 116.142287 
L 414.72 116.142287 
" style="fill:none;stroke:#b0b0b0;stroke-linecap:square;stroke-width:0.8;"/>
     </g>
     <g id="line2d_12">
      <defs>
       <path d="M 0 0 
L -3.5 0 
" id="m336409a68e" style="stroke:#000000;stroke-width:0.8;"/>
      </defs>
      <g>
       <use style="stroke:#000000;stroke-width:0.8;" x="57.6" xlink:href="#m336409a68e" y="116.142287"/>
      </g>
     </g>
     <g id="text_1">
      <!-- 0.0 -->
      <defs>
       <path d="M 31.78125 66.40625 
Q 24.171875 66.40625 20.328125 58.90625 
Q 16.5 51.421875 16.5 36.375 
Q 16.5 21.390625 20.328125 13.890625 
Q 24.171875 6.390625 31.78125 6.390625 
Q 39.453125 6.390625 43.28125 13.890625 
Q 47.125 21.390625 47.125 36.375 
Q 47.125 51.421875 43.28125 58.90625 
Q 39.453125 66.40625 31.78125 66.40625 
z
M 31.78125 74.21875 
Q 44.046875 74.21875 50.515625 64.515625 
Q 56.984375 54.828125 56.984375 36.375 
Q 56.984375 17.96875 50.515625 8.265625 
Q 44.046875 -1.421875 31.78125 -1.421875 
Q 19.53125 -1.421875 13.0625 8.265625 
Q 6.59375 17.96875 6.59375 36.375 
Q 6.59375 54.828125 13.0625 64.515625 
Q 19.53125 74.21875 31.78125 74.21875 
z
" id="DejaVuSans-30"/>
       <path d="M 10.6875 12.40625 
L 21 12.40625 
L 21 0 
L 10.6875 0 
z
" id="DejaVuSans-2e"/>
      </defs>
      <g transform="translate(34.696875 119.941505)scale(0.1 -0.1)">
       <use xlink:href="#DejaVuSans-30"/>
       <use x="63.623047" xlink:href="#DejaVuSans-2e"/>
       <use x="95.410156" xlink:href="#DejaVuSans-30"/>
      </g>
     </g>
    </g>
    <g id="ytick_2">
     <g id="line2d_13">
      <path clip-path="url(#p472d4edb9e)" d="M 57.6 69.714667 
L 414.72 69.714667 
" style="fill:none;stroke:#b0b0b0;stroke-linecap:square;stroke-width:0.8;"/>
     </g>
     <g id="line2d_14">
      <g>
       <use style="stroke:#000000;stroke-width:0.8;" x="57.6" xlink:href="#m336409a68e" y="69.714667"/>
      </g>
     </g>
     <g id="text_2">
      <!-- 0.2 -->
      <defs>
       <path d="M 19.1875 8.296875 
L 53.609375 8.296875 
L 53.609375 0 
L 7.328125 0 
L 7.328125 8.296875 
Q 12.9375 14.109375 22.625 23.890625 
Q 32.328125 33.6875 34.8125 36.53125 
Q 39.546875 41.84375 41.421875 45.53125 
Q 43.3125 49.21875 43.3125 52.78125 
Q 43.3125 58.59375 39.234375 62.25 
Q 35.15625 65.921875 28.609375 65.921875 
Q 23.96875 65.921875 18.8125 64.3125 
Q 13.671875 62.703125 7.8125 59.421875 
L 7.8125 69.390625 
Q 13.765625 71.78125 18.9375 73 
Q 24.125 74.21875 28.421875 74.21875 
Q 39.75 74.21875 46.484375 68.546875 
Q 53.21875 62.890625 53.21875 53.421875 
Q 53.21875 48.921875 51.53125 44.890625 
Q 49.859375 40.875 45.40625 35.40625 
Q 44.1875 33.984375 37.640625 27.21875 
Q 31.109375 20.453125 19.1875 8.296875 
z
" id="DejaVuSans-32"/>
      </defs>
      <g transform="translate(34.696875 73.513886)scale(0.1 -0.1)">
       <use xlink:href="#DejaVuSans-30"/>
       <use x="63.623047" xlink:href="#DejaVuSans-2e"/>
       <use x="95.410156" xlink:href="#DejaVuSans-32"/>
      </g>
     </g>
    </g>
    <g id="text_3">
     <!-- Verschleissprofil -->
     <defs>
      <path d="M 28.609375 0 
L 0.78125 72.90625 
L 11.078125 72.90625 
L 34.1875 11.53125 
L 57.328125 72.90625 
L 67.578125 72.90625 
L 39.796875 0 
z
" id="DejaVuSans-56"/>
      <path d="M 56.203125 29.59375 
L 56.203125 25.203125 
L 14.890625 25.203125 
Q 15.484375 15.921875 20.484375 11.0625 
Q 25.484375 6.203125 34.421875 6.203125 
Q 39.59375 6.203125 44.453125 7.46875 
Q 49.3125 8.734375 54.109375 11.28125 
L 54.109375 2.78125 
Q 49.265625 0.734375 44.1875 -0.34375 
Q 39.109375 -1.421875 33.890625 -1.421875 
Q 20.796875 -1.421875 13.15625 6.1875 
Q 5.515625 13.8125 5.515625 26.8125 
Q 5.515625 40.234375 12.765625 48.109375 
Q 20.015625 56 32.328125 56 
Q 43.359375 56 49.78125 48.890625 
Q 56.203125 41.796875 56.203125 29.59375 
z
M 47.21875 32.234375 
Q 47.125 39.59375 43.09375 43.984375 
Q 39.0625 48.390625 32.421875 48.390625 
Q 24.90625 48.390625 20.390625 44.140625 
Q 15.875 39.890625 15.1875 32.171875 
z
" id="DejaVuSans-65"/>
      <path d="M 41.109375 46.296875 
Q 39.59375 47.171875 37.8125 47.578125 
Q 36.03125 48 33.890625 48 
Q 26.265625 48 22.1875 43.046875 
Q 18.109375 38.09375 18.109375 28.8125 
L 18.109375 0 
L 9.078125 0 
L 9.078125 54.6875 
L 18.109375 54.6875 
L 18.109375 46.1875 
Q 20.953125 51.171875 25.484375 53.578125 
Q 30.03125 56 36.53125 56 
Q 37.453125 56 38.578125 55.875 
Q 39.703125 55.765625 41.0625 55.515625 
z
" id="DejaVuSans-72"/>
      <path d="M 44.28125 53.078125 
L 44.28125 44.578125 
Q 40.484375 46.53125 36.375 47.5 
Q 32.28125 48.484375 27.875 48.484375 
Q 21.1875 48.484375 17.84375 46.4375 
Q 14.5 44.390625 14.5 40.28125 
Q 14.5 37.15625 16.890625 35.375 
Q 19.28125 33.59375 26.515625 31.984375 
L 29.59375 31.296875 
Q 39.15625 29.25 43.1875 25.515625 
Q 47.21875 21.78125 47.21875 15.09375 
Q 47.21875 7.46875 41.1875 3.015625 
Q 35.15625 -1.421875 24.609375 -1.421875 
Q 20.21875 -1.421875 15.453125 -0.5625 
Q 10.6875 0.296875 5.421875 2 
L 5.421875 11.28125 
Q 10.40625 8.6875 15.234375 7.390625 
Q 20.0625 6.109375 24.8125 6.109375 
Q 31.15625 6.109375 34.5625 8.28125 
Q 37.984375 10.453125 37.984375 14.40625 
Q 37.984375 18.0625 35.515625 20.015625 
Q 33.0625 21.96875 24.703125 23.78125 
L 21.578125 24.515625 
Q 13.234375 26.265625 9.515625 29.90625 
Q 5.8125 33.546875 5.8125 39.890625 
Q 5.8125 47.609375 11.28125 51.796875 
Q 16.75 56 26.8125 56 
Q 31.78125 56 36.171875 55.265625 
Q 40.578125 54.546875 44.28125 53.078125 
z
" id="DejaVuSans-73"/>
      <path d="M 48.78125 52.59375 
L 48.78125 44.1875 
Q 44.96875 46.296875 41.140625 47.34375 
Q 37.3125 48.390625 33.40625 48.390625 
Q 24.65625 48.390625 19.8125 42.84375 
Q 14.984375 37.3125 14.984375 27.296875 
Q 14.984375 17.28125 19.8125 11.734375 
Q 24.65625 6.203125 33.40625 6.203125 
Q 37.3125 6.203125 41.140625 7.25 
Q 44.96875 8.296875 48.78125 10.40625 
L 48.78125 2.09375 
Q 45.015625 0.34375 40.984375 -0.53125 
Q 36.96875 -1.421875 32.421875 -1.421875 
Q 20.0625 -1.421875 12.78125 6.34375 
Q 5.515625 14.109375 5.515625 27.296875 
Q 5.515625 40.671875 12.859375 48.328125 
Q 20.21875 56 33.015625 56 
Q 37.15625 56 41.109375 55.140625 
Q 45.0625 54.296875 48.78125 52.59375 
z
" id="DejaVuSans-63"/>
      <path d="M 54.890625 33.015625 
L 54.890625 0 
L 45.90625 0 
L 45.90625 32.71875 
Q 45.90625 40.484375 42.875 44.328125 
Q 39.84375 48.1875 33.796875 48.1875 
Q 26.515625 48.1875 22.3125 43.546875 
Q 18.109375 38.921875 18.109375 30.90625 
L 18.109375 0 
L 9.078125 0 
L 9.078125 75.984375 
L 18.109375 75.984375 
L 18.109375 46.1875 
Q 21.34375 51.125 25.703125 53.5625 
Q 30.078125 56 35.796875 56 
Q 45.21875 56 50.046875 50.171875 
Q 54.890625 44.34375 54.890625 33.015625 
z
" id="DejaVuSans-68"/>
      <path d="M 9.421875 75.984375 
L 18.40625 75.984375 
L 18.40625 0 
L 9.421875 0 
z
" id="DejaVuSans-6c"/>
      <path d="M 9.421875 54.6875 
L 18.40625 54.6875 
L 18.40625 0 
L 9.421875 0 
z
M 9.421875 75.984375 
L 18.40625 75.984375 
L 18.40625 64.59375 
L 9.421875 64.59375 
z
" id="DejaVuSans-69"/>
      <path d="M 18.109375 8.203125 
L 18.109375 -20.796875 
L 9.078125 -20.796875 
L 9.078125 54.6875 
L 18.109375 54.6875 
L 18.109375 46.390625 
Q 20.953125 51.265625 25.265625 53.625 
Q 29.59375 56 35.59375 56 
Q 45.5625 56 51.78125 48.09375 
Q 58.015625 40.1875 58.015625 27.296875 
Q 58.015625 14.40625 51.78125 6.484375 
Q 45.5625 -1.421875 35.59375 -1.421875 
Q 29.59375 -1.421875 25.265625 0.953125 
Q 20.953125 3.328125 18.109375 8.203125 
z
M 48.6875 27.296875 
Q 48.6875 37.203125 44.609375 42.84375 
Q 40.53125 48.484375 33.40625 48.484375 
Q 26.265625 48.484375 22.1875 42.84375 
Q 18.109375 37.203125 18.109375 27.296875 
Q 18.109375 17.390625 22.1875 11.75 
Q 26.265625 6.109375 33.40625 6.109375 
Q 40.53125 6.109375 44.609375 11.75 
Q 48.6875 17.390625 48.6875 27.296875 
z
" id="DejaVuSans-70"/>
      <path d="M 30.609375 48.390625 
Q 23.390625 48.390625 19.1875 42.75 
Q 14.984375 37.109375 14.984375 27.296875 
Q 14.984375 17.484375 19.15625 11.84375 
Q 23.34375 6.203125 30.609375 6.203125 
Q 37.796875 6.203125 41.984375 11.859375 
Q 46.1875 17.53125 46.1875 27.296875 
Q 46.1875 37.015625 41.984375 42.703125 
Q 37.796875 48.390625 30.609375 48.390625 
z
M 30.609375 56 
Q 42.328125 56 49.015625 48.375 
Q 55.71875 40.765625 55.71875 27.296875 
Q 55.71875 13.875 49.015625 6.21875 
Q 42.328125 -1.421875 30.609375 -1.421875 
Q 18.84375 -1.421875 12.171875 6.21875 
Q 5.515625 13.875 5.515625 27.296875 
Q 5.515625 40.765625 12.171875 48.375 
Q 18.84375 56 30.609375 56 
z
" id="DejaVuSans-6f"/>
      <path d="M 37.109375 75.984375 
L 37.109375 68.5 
L 28.515625 68.5 
Q 23.6875 68.5 21.796875 66.546875 
Q 19.921875 64.59375 19.921875 59.515625 
L 19.921875 54.6875 
L 34.71875 54.6875 
L 34.71875 47.703125 
L 19.921875 47.703125 
L 19.921875 0 
L 10.890625 0 
L 10.890625 47.703125 
L 2.296875 47.703125 
L 2.296875 54.6875 
L 10.890625 54.6875 
L 10.890625 58.5 
Q 10.890625 67.625 15.140625 71.796875 
Q 19.390625 75.984375 28.609375 75.984375 
z
" id="DejaVuSans-66"/>
     </defs>
     <g transform="translate(28.617187 121.565493)rotate(-90)scale(0.1 -0.1)">
      <use xlink:href="#DejaVuSans-56"/>
      <use x="68.298828" xlink:href="#DejaVuSans-65"/>
      <use x="129.822266" xlink:href="#DejaVuSans-72"/>
      <use x="170.935547" xlink:href="#DejaVuSans-73"/>
      <use x="223.035156" xlink:href="#DejaVuSans-63"/>
      <use x="278.015625" xlink:href="#DejaVuSans-68"/>
      <use x="341.394531" xlink:href="#DejaVuSans-6c"/>
      <use x="369.177734" xlink:href="#DejaVuSans-65"/>
      <use x="430.701172" xlink:href="#DejaVuSans-69"/>
      <use x="458.484375" xlink:href="#DejaVuSans-73"/>
      <use x="510.583984" xlink:href="#DejaVuSans-73"/>
      <use x="562.683594" xlink:href="#DejaVuSans-70"/>
      <use x="626.160156" xlink:href="#DejaVuSans-72"/>
      <use x="667.242188" xlink:href="#DejaVuSans-6f"/>
      <use x="728.423828" xlink:href="#DejaVuSans-66"/>
      <use x="763.628906" xlink:href="#DejaVuSans-69"/>
      <use x="791.412109" xlink:href="#DejaVuSans-6c"/>
     </g>
    </g>
   </g>
   <g id="line2d_15">
    <path clip-path="url(#p472d4edb9e)" d="M 73.832727 45.029647 
L 77.736471 71.160411 
L 79.362903 80.956149 
L 81.314621 91.331555 
L 83.266647 99.676334 
L 84.242506 103.08622 
L 85.218365 105.809068 
L 85.868938 107.224087 
L 87.17039 109.989914 
L 88.471536 111.972922 
L 89.772681 113.30136 
L 91.073827 113.595446 
L 100.833033 114.453013 
L 101.483606 114.482678 
L 104.41149 114.68007 
L 105.387349 114.724928 
L 108.64052 114.933026 
L 109.616379 114.977406 
L 110.266952 115.006449 
L 111.568098 115.101435 
L 112.543957 115.164175 
L 113.19453 115.219554 
L 115.797128 115.334936 
L 119.050298 115.432246 
L 120.026158 115.480969 
L 120.676731 115.463647 
L 121.65259 115.5732 
L 122.628449 115.585183 
L 125.556333 115.663381 
L 126.532193 115.637482 
L 127.182765 115.714496 
L 128.483911 115.679538 
L 129.134484 115.757221 
L 130.435936 115.763161 
L 131.737082 115.817888 
L 135.640825 115.857762 
L 135.966112 115.814092 
L 136.616685 115.914311 
L 172.07505 116.144694 
L 172.725623 116.127903 
L 175.327914 116.118609 
L 177.279633 116.140706 
L 177.930512 116.117225 
L 179.556944 116.12463 
L 180.85809 116.095146 
L 182.159236 116.141757 
L 186.062979 116.107169 
L 187.364125 116.131068 
L 190.292009 116.111378 
L 191.593155 116.130863 
L 198.09919 116.125136 
L 199.725929 116.145544 
L 201.027074 116.142927 
L 202.653506 116.15478 
L 203.954652 116.143009 
L 210.460993 116.172704 
L 211.762139 116.15011 
L 244.943193 116.161206 
L 249.172223 116.167699 
L 250.473369 116.15609 
L 254.051826 116.115927 
L 256.003544 116.148891 
L 259.256715 116.105249 
L 259.907288 116.150444 
L 260.557861 116.157657 
L 265.112177 116.097066 
L 265.76275 116.118455 
L 270.317067 116.140692 
L 272.268785 116.12717 
L 274.22081 116.140063 
L 277.148388 116.127302 
L 280.076272 116.127383 
L 301.871688 116.106101 
L 302.196975 115.957742 
L 302.847548 116.077998 
L 305.124553 116.097428 
L 313.257326 116.075159 
L 316.185211 116.070294 
L 321.715386 116.034066 
L 322.691245 116.037829 
L 324.642964 115.984391 
L 326.594989 115.875367 
L 326.920275 116.051948 
L 328.221421 115.992917 
L 331.148999 115.97745 
L 331.474285 115.912475 
L 332.125165 115.975314 
L 335.378029 115.861523 
L 335.703315 116.035192 
L 336.353888 115.876268 
L 336.679175 115.96842 
L 337.330054 115.912535 
L 338.6312 115.899517 
L 342.86023 115.816209 
L 343.185516 115.857472 
L 343.510802 115.721769 
L 344.161375 115.786493 
L 347.088953 115.768312 
L 347.739526 115.728682 
L 348.715692 115.659108 
L 349.040978 115.732579 
L 350.016837 115.680622 
L 350.992697 115.631964 
L 351.643269 115.565328 
L 351.968556 115.625879 
L 352.293842 115.530582 
L 352.944415 115.606159 
L 353.270008 115.527216 
L 353.595295 115.615765 
L 354.571154 115.519699 
L 355.872299 115.506038 
L 364.005073 115.204899 
L 364.330359 115.133784 
L 364.655646 115.202828 
L 365.306219 115.126098 
L 367.257937 115.06424 
L 367.583224 114.977093 
L 367.90851 115.009504 
L 368.233796 114.918176 
L 368.884369 115.009337 
L 369.535249 114.880776 
L 371.486967 114.843671 
L 374.414545 114.660507 
L 376.691856 114.518334 
L 378.968861 114.276347 
L 379.619434 114.275172 
L 380.5956 114.208416 
L 381.246173 114.186969 
L 382.222032 114.038238 
L 382.547319 114.093434 
L 383.197891 114.020201 
L 384.499037 113.89558 
L 384.824323 113.764178 
L 385.14961 113.872222 
L 386.451062 113.663319 
L 387.752208 113.505126 
L 389.703926 111.643049 
L 391.005379 109.937792 
L 392.306524 107.579499 
L 393.60767 104.616537 
L 394.908816 100.945208 
L 395.884981 97.560071 
L 397.186127 92.286269 
L 398.487273 86.459282 
L 398.487273 86.459282 
" style="fill:none;stroke:#1f77b4;stroke-linecap:square;stroke-width:1.5;"/>
   </g>
   <g id="line2d_16">
    <path clip-path="url(#p472d4edb9e)" d="M 73.832727 113.999149 
L 74.158014 114.2678 
L 74.4833 114.424789 
L 75.459159 114.692658 
L 77.411184 114.959376 
L 81.314621 115.223653 
L 88.796822 115.475263 
L 103.435631 115.717162 
L 132.062368 115.938056 
L 185.412406 116.10272 
L 267.714469 116.127209 
L 337.980627 115.947929 
L 372.462826 115.668015 
L 387.426921 115.35485 
L 393.60767 115.0448 
L 396.210268 114.7521 
L 397.511413 114.424789 
L 398.161986 113.999149 
L 398.161986 113.999149 
" style="fill:none;stroke:#ff7f0e;stroke-linecap:square;stroke-width:1.5;"/>
   </g>
   <g id="line2d_17">
    <path clip-path="url(#p472d4edb9e)" d="M 73.832727 116.142287 
L 87.17039 116.142287 
L 87.495677 110.526499 
L 88.471536 111.972922 
L 89.772681 113.30136 
L 91.073827 113.595446 
L 100.833033 114.453013 
L 101.483606 114.482678 
L 104.41149 114.68007 
L 105.387349 114.724928 
L 108.64052 114.933026 
L 109.616379 114.977406 
L 110.266952 115.006449 
L 111.568098 115.101435 
L 112.543957 115.164175 
L 113.19453 115.219554 
L 115.797128 115.334936 
L 119.050298 115.432246 
L 120.026158 115.480969 
L 120.676731 115.463647 
L 121.65259 115.5732 
L 122.628449 115.585183 
L 125.556333 115.663381 
L 126.532193 115.637482 
L 127.182765 115.714496 
L 128.483911 115.679538 
L 129.134484 115.757221 
L 130.435936 115.763161 
L 131.737082 115.817888 
L 135.640825 115.857762 
L 135.966112 115.814092 
L 136.616685 115.914311 
L 172.07505 116.144694 
L 172.725623 116.127903 
L 175.327914 116.118609 
L 177.279633 116.140706 
L 177.930512 116.117225 
L 179.556944 116.12463 
L 180.85809 116.095146 
L 182.159236 116.141757 
L 186.062979 116.107169 
L 187.364125 116.131068 
L 190.292009 116.111378 
L 191.593155 116.130863 
L 198.09919 116.125136 
L 199.725929 116.145544 
L 201.027074 116.142927 
L 202.653506 116.15478 
L 203.954652 116.143009 
L 210.460993 116.172704 
L 211.762139 116.15011 
L 244.943193 116.161206 
L 249.172223 116.167699 
L 250.473369 116.15609 
L 254.051826 116.115927 
L 256.003544 116.148891 
L 259.256715 116.105249 
L 259.907288 116.150444 
L 260.557861 116.157657 
L 265.112177 116.097066 
L 265.76275 116.118455 
L 270.317067 116.140692 
L 272.268785 116.12717 
L 274.22081 116.140063 
L 277.148388 116.127302 
L 280.076272 116.127383 
L 301.871688 116.106101 
L 302.196975 115.957742 
L 302.847548 116.077998 
L 305.124553 116.097428 
L 313.257326 116.075159 
L 316.185211 116.070294 
L 321.715386 116.034066 
L 322.691245 116.037829 
L 324.642964 115.984391 
L 326.594989 115.875367 
L 326.920275 116.051948 
L 328.221421 115.992917 
L 331.148999 115.97745 
L 331.474285 115.912475 
L 332.125165 115.975314 
L 335.378029 115.861523 
L 335.703315 116.035192 
L 336.353888 115.876268 
L 336.679175 115.96842 
L 337.330054 115.912535 
L 338.6312 115.899517 
L 342.86023 115.816209 
L 343.185516 115.857472 
L 343.510802 115.721769 
L 344.161375 115.786493 
L 347.088953 115.768312 
L 347.739526 115.728682 
L 348.715692 115.659108 
L 349.040978 115.732579 
L 350.016837 115.680622 
L 350.992697 115.631964 
L 351.643269 115.565328 
L 351.968556 115.625879 
L 352.293842 115.530582 
L 352.944415 115.606159 
L 353.270008 115.527216 
L 353.595295 115.615765 
L 354.571154 115.519699 
L 355.872299 115.506038 
L 364.005073 115.204899 
L 364.330359 115.133784 
L 364.655646 115.202828 
L 365.306219 115.126098 
L 367.257937 115.06424 
L 367.583224 114.977093 
L 367.90851 115.009504 
L 368.233796 114.918176 
L 368.884369 115.009337 
L 369.535249 114.880776 
L 371.486967 114.843671 
L 374.414545 114.660507 
L 376.691856 114.518334 
L 378.968861 114.276347 
L 379.619434 114.275172 
L 380.5956 114.208416 
L 381.246173 114.186969 
L 382.222032 114.038238 
L 382.547319 114.093434 
L 383.197891 114.020201 
L 384.499037 113.89558 
L 384.824323 113.764178 
L 385.14961 113.872222 
L 386.451062 113.663319 
L 387.752208 113.505126 
L 389.703926 111.643049 
L 390.680092 110.413021 
L 391.005379 116.142287 
L 398.487273 116.142287 
L 398.487273 116.142287 
" style="fill:none;stroke:#2ca02c;stroke-linecap:square;stroke-width:1.5;"/>
   </g>
   <g id="line2d_18">
    <path clip-path="url(#p472d4edb9e)" d="M 73.832727 116.142287 
L 89.122109 116.142287 
L 89.447395 112.999132 
L 89.772681 113.30136 
L 91.073827 113.595446 
L 100.833033 114.453013 
L 101.483606 114.482678 
L 104.41149 114.68007 
L 105.387349 114.724928 
L 108.64052 114.933026 
L 109.616379 114.977406 
L 110.266952 115.006449 
L 111.568098 115.101435 
L 112.543957 115.164175 
L 113.19453 115.219554 
L 115.797128 115.334936 
L 119.050298 115.432246 
L 120.026158 115.480969 
L 120.676731 115.463647 
L 121.65259 115.5732 
L 122.628449 115.585183 
L 125.556333 115.663381 
L 126.532193 115.637482 
L 127.182765 115.714496 
L 128.483911 115.679538 
L 129.134484 115.757221 
L 130.435936 115.763161 
L 131.737082 115.817888 
L 135.640825 115.857762 
L 135.966112 115.814092 
L 136.616685 115.914311 
L 172.07505 116.144694 
L 172.725623 116.127903 
L 175.327914 116.118609 
L 177.279633 116.140706 
L 177.930512 116.117225 
L 179.556944 116.12463 
L 180.85809 116.095146 
L 182.159236 116.141757 
L 186.062979 116.107169 
L 187.364125 116.131068 
L 190.292009 116.111378 
L 191.593155 116.130863 
L 198.09919 116.125136 
L 199.725929 116.145544 
L 201.027074 116.142927 
L 202.653506 116.15478 
L 203.954652 116.143009 
L 210.460993 116.172704 
L 211.762139 116.15011 
L 244.943193 116.161206 
L 249.172223 116.167699 
L 250.473369 116.15609 
L 254.051826 116.115927 
L 256.003544 116.148891 
L 259.256715 116.105249 
L 259.907288 116.150444 
L 260.557861 116.157657 
L 265.112177 116.097066 
L 265.76275 116.118455 
L 270.317067 116.140692 
L 272.268785 116.12717 
L 274.22081 116.140063 
L 277.148388 116.127302 
L 280.076272 116.127383 
L 301.871688 116.106101 
L 302.196975 115.957742 
L 302.847548 116.077998 
L 305.124553 116.097428 
L 313.257326 116.075159 
L 316.185211 116.070294 
L 321.715386 116.034066 
L 322.691245 116.037829 
L 324.642964 115.984391 
L 326.594989 115.875367 
L 326.920275 116.051948 
L 328.221421 115.992917 
L 331.148999 115.97745 
L 331.474285 115.912475 
L 332.125165 115.975314 
L 335.378029 115.861523 
L 335.703315 116.035192 
L 336.353888 115.876268 
L 336.679175 115.96842 
L 337.330054 115.912535 
L 338.6312 115.899517 
L 342.86023 115.816209 
L 343.185516 115.857472 
L 343.510802 115.721769 
L 344.161375 115.786493 
L 347.088953 115.768312 
L 347.739526 115.728682 
L 348.715692 115.659108 
L 349.040978 115.732579 
L 350.016837 115.680622 
L 350.992697 115.631964 
L 351.643269 115.565328 
L 351.968556 115.625879 
L 352.293842 115.530582 
L 352.944415 115.606159 
L 353.270008 115.527216 
L 353.595295 115.615765 
L 354.571154 115.519699 
L 355.872299 115.506038 
L 364.005073 115.204899 
L 364.330359 115.133784 
L 364.655646 115.202828 
L 365.306219 115.126098 
L 367.257937 115.06424 
L 367.583224 114.977093 
L 367.90851 115.009504 
L 368.233796 114.918176 
L 368.884369 115.009337 
L 369.535249 114.880776 
L 371.486967 114.843671 
L 374.414545 114.660507 
L 376.691856 114.518334 
L 378.968861 114.276347 
L 379.619434 114.275172 
L 380.5956 114.208416 
L 381.246173 114.186969 
L 382.222032 114.038238 
L 382.547319 114.093434 
L 383.197891 114.020201 
L 384.499037 113.89558 
L 384.824323 113.764178 
L 385.14961 113.872222 
L 386.451062 113.663319 
L 387.752208 113.505126 
L 388.077494 113.209932 
L 388.402781 116.142287 
L 398.487273 116.142287 
L 398.487273 116.142287 
" style="fill:none;stroke:#d62728;stroke-linecap:square;stroke-width:1.5;"/>
   </g>
   <g id="patch_3">
    <path d="M 57.6 119.740235 
L 57.6 41.472 
" style="fill:none;stroke:#000000;stroke-linecap:square;stroke-linejoin:miter;stroke-width:0.8;"/>
   </g>
   <g id="patch_4">
    <path d="M 414.72 119.740235 
L 414.72 41.472 
" style="fill:none;stroke:#000000;stroke-linecap:square;stroke-linejoin:miter;stroke-width:0.8;"/>
   </g>
   <g id="patch_5">
    <path d="M 57.6 119.740235 
L 414.72 119.740235 
" style="fill:none;stroke:#000000;stroke-linecap:square;stroke-linejoin:miter;stroke-width:0.8;"/>
   </g>
   <g id="patch_6">
    <path d="M 57.6 41.472 
L 414.72 41.472 
" style="fill:none;stroke:#000000;stroke-linecap:square;stroke-linejoin:miter;stroke-width:0.8;"/>
   </g>
   <g id="legend_1">
    <g id="patch_7">
     <path d="M 381.008 103.1845 
L 552.104875 103.1845 
Q 554.104875 103.1845 554.104875 101.1845 
L 554.104875 43.472 
Q 554.104875 41.472 552.104875 41.472 
L 381.008 41.472 
Q 379.008 41.472 379.008 43.472 
L 379.008 101.1845 
Q 379.008 103.1845 381.008 103.1845 
z
" style="fill:#ffffff;opacity:0.8;stroke:#cccccc;stroke-linejoin:miter;"/>
    </g>
    <g id="line2d_19">
     <path d="M 383.008 49.570437 
L 403.008 49.570437 
" style="fill:none;stroke:#1f77b4;stroke-linecap:square;stroke-width:1.5;"/>
    </g>
    <g id="line2d_20"/>
    <g id="text_4">
     <!-- Gemessenes Profil -->
     <defs>
      <path d="M 59.515625 10.40625 
L 59.515625 29.984375 
L 43.40625 29.984375 
L 43.40625 38.09375 
L 69.28125 38.09375 
L 69.28125 6.78125 
Q 63.578125 2.734375 56.6875 0.65625 
Q 49.8125 -1.421875 42 -1.421875 
Q 24.90625 -1.421875 15.25 8.5625 
Q 5.609375 18.5625 5.609375 36.375 
Q 5.609375 54.25 15.25 64.234375 
Q 24.90625 74.21875 42 74.21875 
Q 49.125 74.21875 55.546875 72.453125 
Q 61.96875 70.703125 67.390625 67.28125 
L 67.390625 56.78125 
Q 61.921875 61.421875 55.765625 63.765625 
Q 49.609375 66.109375 42.828125 66.109375 
Q 29.4375 66.109375 22.71875 58.640625 
Q 16.015625 51.171875 16.015625 36.375 
Q 16.015625 21.625 22.71875 14.15625 
Q 29.4375 6.6875 42.828125 6.6875 
Q 48.046875 6.6875 52.140625 7.59375 
Q 56.25 8.5 59.515625 10.40625 
z
" id="DejaVuSans-47"/>
      <path d="M 52 44.1875 
Q 55.375 50.25 60.0625 53.125 
Q 64.75 56 71.09375 56 
Q 79.640625 56 84.28125 50.015625 
Q 88.921875 44.046875 88.921875 33.015625 
L 88.921875 0 
L 79.890625 0 
L 79.890625 32.71875 
Q 79.890625 40.578125 77.09375 44.375 
Q 74.3125 48.1875 68.609375 48.1875 
Q 61.625 48.1875 57.5625 43.546875 
Q 53.515625 38.921875 53.515625 30.90625 
L 53.515625 0 
L 44.484375 0 
L 44.484375 32.71875 
Q 44.484375 40.625 41.703125 44.40625 
Q 38.921875 48.1875 33.109375 48.1875 
Q 26.21875 48.1875 22.15625 43.53125 
Q 18.109375 38.875 18.109375 30.90625 
L 18.109375 0 
L 9.078125 0 
L 9.078125 54.6875 
L 18.109375 54.6875 
L 18.109375 46.1875 
Q 21.1875 51.21875 25.484375 53.609375 
Q 29.78125 56 35.6875 56 
Q 41.65625 56 45.828125 52.96875 
Q 50 49.953125 52 44.1875 
z
" id="DejaVuSans-6d"/>
      <path d="M 54.890625 33.015625 
L 54.890625 0 
L 45.90625 0 
L 45.90625 32.71875 
Q 45.90625 40.484375 42.875 44.328125 
Q 39.84375 48.1875 33.796875 48.1875 
Q 26.515625 48.1875 22.3125 43.546875 
Q 18.109375 38.921875 18.109375 30.90625 
L 18.109375 0 
L 9.078125 0 
L 9.078125 54.6875 
L 18.109375 54.6875 
L 18.109375 46.1875 
Q 21.34375 51.125 25.703125 53.5625 
Q 30.078125 56 35.796875 56 
Q 45.21875 56 50.046875 50.171875 
Q 54.890625 44.34375 54.890625 33.015625 
z
" id="DejaVuSans-6e"/>
      <path id="DejaVuSans-20"/>
      <path d="M 19.671875 64.796875 
L 19.671875 37.40625 
L 32.078125 37.40625 
Q 38.96875 37.40625 42.71875 40.96875 
Q 46.484375 44.53125 46.484375 51.125 
Q 46.484375 57.671875 42.71875 61.234375 
Q 38.96875 64.796875 32.078125 64.796875 
z
M 9.8125 72.90625 
L 32.078125 72.90625 
Q 44.34375 72.90625 50.609375 67.359375 
Q 56.890625 61.8125 56.890625 51.125 
Q 56.890625 40.328125 50.609375 34.8125 
Q 44.34375 29.296875 32.078125 29.296875 
L 19.671875 29.296875 
L 19.671875 0 
L 9.8125 0 
z
" id="DejaVuSans-50"/>
     </defs>
     <g transform="translate(411.008 53.070437)scale(0.1 -0.1)">
      <use xlink:href="#DejaVuSans-47"/>
      <use x="77.490234" xlink:href="#DejaVuSans-65"/>
      <use x="139.013672" xlink:href="#DejaVuSans-6d"/>
      <use x="236.425781" xlink:href="#DejaVuSans-65"/>
      <use x="297.949219" xlink:href="#DejaVuSans-73"/>
      <use x="350.048828" xlink:href="#DejaVuSans-73"/>
      <use x="402.148438" xlink:href="#DejaVuSans-65"/>
      <use x="463.671875" xlink:href="#DejaVuSans-6e"/>
      <use x="527.050781" xlink:href="#DejaVuSans-65"/>
      <use x="588.574219" xlink:href="#DejaVuSans-73"/>
      <use x="640.673828" xlink:href="#DejaVuSans-20"/>
      <use x="672.460938" xlink:href="#DejaVuSans-50"/>
      <use x="732.748047" xlink:href="#DejaVuSans-72"/>
      <use x="773.830078" xlink:href="#DejaVuSans-6f"/>
      <use x="835.011719" xlink:href="#DejaVuSans-66"/>
      <use x="870.216797" xlink:href="#DejaVuSans-69"/>
      <use x="898" xlink:href="#DejaVuSans-6c"/>
     </g>
    </g>
    <g id="line2d_21">
     <path d="M 383.008 64.248562 
L 403.008 64.248562 
" style="fill:none;stroke:#ff7f0e;stroke-linecap:square;stroke-width:1.5;"/>
    </g>
    <g id="line2d_22"/>
    <g id="text_5">
     <!-- Berechnetes WK Profil -->
     <defs>
      <path d="M 19.671875 34.8125 
L 19.671875 8.109375 
L 35.5 8.109375 
Q 43.453125 8.109375 47.28125 11.40625 
Q 51.125 14.703125 51.125 21.484375 
Q 51.125 28.328125 47.28125 31.5625 
Q 43.453125 34.8125 35.5 34.8125 
z
M 19.671875 64.796875 
L 19.671875 42.828125 
L 34.28125 42.828125 
Q 41.5 42.828125 45.03125 45.53125 
Q 48.578125 48.25 48.578125 53.8125 
Q 48.578125 59.328125 45.03125 62.0625 
Q 41.5 64.796875 34.28125 64.796875 
z
M 9.8125 72.90625 
L 35.015625 72.90625 
Q 46.296875 72.90625 52.390625 68.21875 
Q 58.5 63.53125 58.5 54.890625 
Q 58.5 48.1875 55.375 44.234375 
Q 52.25 40.28125 46.1875 39.3125 
Q 53.46875 37.75 57.5 32.78125 
Q 61.53125 27.828125 61.53125 20.40625 
Q 61.53125 10.640625 54.890625 5.3125 
Q 48.25 0 35.984375 0 
L 9.8125 0 
z
" id="DejaVuSans-42"/>
      <path d="M 18.3125 70.21875 
L 18.3125 54.6875 
L 36.8125 54.6875 
L 36.8125 47.703125 
L 18.3125 47.703125 
L 18.3125 18.015625 
Q 18.3125 11.328125 20.140625 9.421875 
Q 21.96875 7.515625 27.59375 7.515625 
L 36.8125 7.515625 
L 36.8125 0 
L 27.59375 0 
Q 17.1875 0 13.234375 3.875 
Q 9.28125 7.765625 9.28125 18.015625 
L 9.28125 47.703125 
L 2.6875 47.703125 
L 2.6875 54.6875 
L 9.28125 54.6875 
L 9.28125 70.21875 
z
" id="DejaVuSans-74"/>
      <path d="M 3.328125 72.90625 
L 13.28125 72.90625 
L 28.609375 11.28125 
L 43.890625 72.90625 
L 54.984375 72.90625 
L 70.3125 11.28125 
L 85.59375 72.90625 
L 95.609375 72.90625 
L 77.296875 0 
L 64.890625 0 
L 49.515625 63.28125 
L 33.984375 0 
L 21.578125 0 
z
" id="DejaVuSans-57"/>
      <path d="M 9.8125 72.90625 
L 19.671875 72.90625 
L 19.671875 42.09375 
L 52.390625 72.90625 
L 65.09375 72.90625 
L 28.90625 38.921875 
L 67.671875 0 
L 54.6875 0 
L 19.671875 35.109375 
L 19.671875 0 
L 9.8125 0 
z
" id="DejaVuSans-4b"/>
     </defs>
     <g transform="translate(411.008 67.748562)scale(0.1 -0.1)">
      <use xlink:href="#DejaVuSans-42"/>
      <use x="68.603516" xlink:href="#DejaVuSans-65"/>
      <use x="130.126953" xlink:href="#DejaVuSans-72"/>
      <use x="171.208984" xlink:href="#DejaVuSans-65"/>
      <use x="232.732422" xlink:href="#DejaVuSans-63"/>
      <use x="287.712891" xlink:href="#DejaVuSans-68"/>
      <use x="351.091797" xlink:href="#DejaVuSans-6e"/>
      <use x="414.470703" xlink:href="#DejaVuSans-65"/>
      <use x="475.994141" xlink:href="#DejaVuSans-74"/>
      <use x="515.203125" xlink:href="#DejaVuSans-65"/>
      <use x="576.726562" xlink:href="#DejaVuSans-73"/>
      <use x="628.826172" xlink:href="#DejaVuSans-20"/>
      <use x="660.613281" xlink:href="#DejaVuSans-57"/>
      <use x="759.490234" xlink:href="#DejaVuSans-4b"/>
      <use x="825.066406" xlink:href="#DejaVuSans-20"/>
      <use x="856.853516" xlink:href="#DejaVuSans-50"/>
      <use x="917.140625" xlink:href="#DejaVuSans-72"/>
      <use x="958.222656" xlink:href="#DejaVuSans-6f"/>
      <use x="1019.404297" xlink:href="#DejaVuSans-66"/>
      <use x="1054.609375" xlink:href="#DejaVuSans-69"/>
      <use x="1082.392578" xlink:href="#DejaVuSans-6c"/>
     </g>
    </g>
    <g id="line2d_23">
     <path d="M 383.008 78.926687 
L 403.008 78.926687 
" style="fill:none;stroke:#2ca02c;stroke-linecap:square;stroke-width:1.5;"/>
    </g>
    <g id="line2d_24"/>
    <g id="text_6">
     <!-- Einfederung nach Teutsch -->
     <defs>
      <path d="M 9.8125 72.90625 
L 55.90625 72.90625 
L 55.90625 64.59375 
L 19.671875 64.59375 
L 19.671875 43.015625 
L 54.390625 43.015625 
L 54.390625 34.71875 
L 19.671875 34.71875 
L 19.671875 8.296875 
L 56.78125 8.296875 
L 56.78125 0 
L 9.8125 0 
z
" id="DejaVuSans-45"/>
      <path d="M 45.40625 46.390625 
L 45.40625 75.984375 
L 54.390625 75.984375 
L 54.390625 0 
L 45.40625 0 
L 45.40625 8.203125 
Q 42.578125 3.328125 38.25 0.953125 
Q 33.9375 -1.421875 27.875 -1.421875 
Q 17.96875 -1.421875 11.734375 6.484375 
Q 5.515625 14.40625 5.515625 27.296875 
Q 5.515625 40.1875 11.734375 48.09375 
Q 17.96875 56 27.875 56 
Q 33.9375 56 38.25 53.625 
Q 42.578125 51.265625 45.40625 46.390625 
z
M 14.796875 27.296875 
Q 14.796875 17.390625 18.875 11.75 
Q 22.953125 6.109375 30.078125 6.109375 
Q 37.203125 6.109375 41.296875 11.75 
Q 45.40625 17.390625 45.40625 27.296875 
Q 45.40625 37.203125 41.296875 42.84375 
Q 37.203125 48.484375 30.078125 48.484375 
Q 22.953125 48.484375 18.875 42.84375 
Q 14.796875 37.203125 14.796875 27.296875 
z
" id="DejaVuSans-64"/>
      <path d="M 8.5 21.578125 
L 8.5 54.6875 
L 17.484375 54.6875 
L 17.484375 21.921875 
Q 17.484375 14.15625 20.5 10.265625 
Q 23.53125 6.390625 29.59375 6.390625 
Q 36.859375 6.390625 41.078125 11.03125 
Q 45.3125 15.671875 45.3125 23.6875 
L 45.3125 54.6875 
L 54.296875 54.6875 
L 54.296875 0 
L 45.3125 0 
L 45.3125 8.40625 
Q 42.046875 3.421875 37.71875 1 
Q 33.40625 -1.421875 27.6875 -1.421875 
Q 18.265625 -1.421875 13.375 4.4375 
Q 8.5 10.296875 8.5 21.578125 
z
M 31.109375 56 
z
" id="DejaVuSans-75"/>
      <path d="M 45.40625 27.984375 
Q 45.40625 37.75 41.375 43.109375 
Q 37.359375 48.484375 30.078125 48.484375 
Q 22.859375 48.484375 18.828125 43.109375 
Q 14.796875 37.75 14.796875 27.984375 
Q 14.796875 18.265625 18.828125 12.890625 
Q 22.859375 7.515625 30.078125 7.515625 
Q 37.359375 7.515625 41.375 12.890625 
Q 45.40625 18.265625 45.40625 27.984375 
z
M 54.390625 6.78125 
Q 54.390625 -7.171875 48.1875 -13.984375 
Q 42 -20.796875 29.203125 -20.796875 
Q 24.46875 -20.796875 20.265625 -20.09375 
Q 16.0625 -19.390625 12.109375 -17.921875 
L 12.109375 -9.1875 
Q 16.0625 -11.328125 19.921875 -12.34375 
Q 23.78125 -13.375 27.78125 -13.375 
Q 36.625 -13.375 41.015625 -8.765625 
Q 45.40625 -4.15625 45.40625 5.171875 
L 45.40625 9.625 
Q 42.625 4.78125 38.28125 2.390625 
Q 33.9375 0 27.875 0 
Q 17.828125 0 11.671875 7.65625 
Q 5.515625 15.328125 5.515625 27.984375 
Q 5.515625 40.671875 11.671875 48.328125 
Q 17.828125 56 27.875 56 
Q 33.9375 56 38.28125 53.609375 
Q 42.625 51.21875 45.40625 46.390625 
L 45.40625 54.6875 
L 54.390625 54.6875 
z
" id="DejaVuSans-67"/>
      <path d="M 34.28125 27.484375 
Q 23.390625 27.484375 19.1875 25 
Q 14.984375 22.515625 14.984375 16.5 
Q 14.984375 11.71875 18.140625 8.90625 
Q 21.296875 6.109375 26.703125 6.109375 
Q 34.1875 6.109375 38.703125 11.40625 
Q 43.21875 16.703125 43.21875 25.484375 
L 43.21875 27.484375 
z
M 52.203125 31.203125 
L 52.203125 0 
L 43.21875 0 
L 43.21875 8.296875 
Q 40.140625 3.328125 35.546875 0.953125 
Q 30.953125 -1.421875 24.3125 -1.421875 
Q 15.921875 -1.421875 10.953125 3.296875 
Q 6 8.015625 6 15.921875 
Q 6 25.140625 12.171875 29.828125 
Q 18.359375 34.515625 30.609375 34.515625 
L 43.21875 34.515625 
L 43.21875 35.40625 
Q 43.21875 41.609375 39.140625 45 
Q 35.0625 48.390625 27.6875 48.390625 
Q 23 48.390625 18.546875 47.265625 
Q 14.109375 46.140625 10.015625 43.890625 
L 10.015625 52.203125 
Q 14.9375 54.109375 19.578125 55.046875 
Q 24.21875 56 28.609375 56 
Q 40.484375 56 46.34375 49.84375 
Q 52.203125 43.703125 52.203125 31.203125 
z
" id="DejaVuSans-61"/>
      <path d="M -0.296875 72.90625 
L 61.375 72.90625 
L 61.375 64.59375 
L 35.5 64.59375 
L 35.5 0 
L 25.59375 0 
L 25.59375 64.59375 
L -0.296875 64.59375 
z
" id="DejaVuSans-54"/>
     </defs>
     <g transform="translate(411.008 82.426687)scale(0.1 -0.1)">
      <use xlink:href="#DejaVuSans-45"/>
      <use x="63.183594" xlink:href="#DejaVuSans-69"/>
      <use x="90.966797" xlink:href="#DejaVuSans-6e"/>
      <use x="154.345703" xlink:href="#DejaVuSans-66"/>
      <use x="189.550781" xlink:href="#DejaVuSans-65"/>
      <use x="251.074219" xlink:href="#DejaVuSans-64"/>
      <use x="314.550781" xlink:href="#DejaVuSans-65"/>
      <use x="376.074219" xlink:href="#DejaVuSans-72"/>
      <use x="417.1875" xlink:href="#DejaVuSans-75"/>
      <use x="480.566406" xlink:href="#DejaVuSans-6e"/>
      <use x="543.945312" xlink:href="#DejaVuSans-67"/>
      <use x="607.421875" xlink:href="#DejaVuSans-20"/>
      <use x="639.208984" xlink:href="#DejaVuSans-6e"/>
      <use x="702.587891" xlink:href="#DejaVuSans-61"/>
      <use x="763.867188" xlink:href="#DejaVuSans-63"/>
      <use x="818.847656" xlink:href="#DejaVuSans-68"/>
      <use x="882.226562" xlink:href="#DejaVuSans-20"/>
      <use x="914.013672" xlink:href="#DejaVuSans-54"/>
      <use x="974.832031" xlink:href="#DejaVuSans-65"/>
      <use x="1036.355469" xlink:href="#DejaVuSans-75"/>
      <use x="1099.734375" xlink:href="#DejaVuSans-74"/>
      <use x="1138.943359" xlink:href="#DejaVuSans-73"/>
      <use x="1191.042969" xlink:href="#DejaVuSans-63"/>
      <use x="1246.023438" xlink:href="#DejaVuSans-68"/>
     </g>
    </g>
    <g id="line2d_25">
     <path d="M 383.008 93.604812 
L 403.008 93.604812 
" style="fill:none;stroke:#d62728;stroke-linecap:square;stroke-width:1.5;"/>
    </g>
    <g id="line2d_26"/>
    <g id="text_7">
     <!-- Einfederung nach v.d.Sandt -->
     <defs>
      <path d="M 2.984375 54.6875 
L 12.5 54.6875 
L 29.59375 8.796875 
L 46.6875 54.6875 
L 56.203125 54.6875 
L 35.6875 0 
L 23.484375 0 
z
" id="DejaVuSans-76"/>
      <path d="M 53.515625 70.515625 
L 53.515625 60.890625 
Q 47.90625 63.578125 42.921875 64.890625 
Q 37.9375 66.21875 33.296875 66.21875 
Q 25.25 66.21875 20.875 63.09375 
Q 16.5 59.96875 16.5 54.203125 
Q 16.5 49.359375 19.40625 46.890625 
Q 22.3125 44.4375 30.421875 42.921875 
L 36.375 41.703125 
Q 47.40625 39.59375 52.65625 34.296875 
Q 57.90625 29 57.90625 20.125 
Q 57.90625 9.515625 50.796875 4.046875 
Q 43.703125 -1.421875 29.984375 -1.421875 
Q 24.8125 -1.421875 18.96875 -0.25 
Q 13.140625 0.921875 6.890625 3.21875 
L 6.890625 13.375 
Q 12.890625 10.015625 18.65625 8.296875 
Q 24.421875 6.59375 29.984375 6.59375 
Q 38.421875 6.59375 43.015625 9.90625 
Q 47.609375 13.234375 47.609375 19.390625 
Q 47.609375 24.75 44.3125 27.78125 
Q 41.015625 30.8125 33.5 32.328125 
L 27.484375 33.5 
Q 16.453125 35.6875 11.515625 40.375 
Q 6.59375 45.0625 6.59375 53.421875 
Q 6.59375 63.09375 13.40625 68.65625 
Q 20.21875 74.21875 32.171875 74.21875 
Q 37.3125 74.21875 42.625 73.28125 
Q 47.953125 72.359375 53.515625 70.515625 
z
" id="DejaVuSans-53"/>
     </defs>
     <g transform="translate(411.008 97.104812)scale(0.1 -0.1)">
      <use xlink:href="#DejaVuSans-45"/>
      <use x="63.183594" xlink:href="#DejaVuSans-69"/>
      <use x="90.966797" xlink:href="#DejaVuSans-6e"/>
      <use x="154.345703" xlink:href="#DejaVuSans-66"/>
      <use x="189.550781" xlink:href="#DejaVuSans-65"/>
      <use x="251.074219" xlink:href="#DejaVuSans-64"/>
      <use x="314.550781" xlink:href="#DejaVuSans-65"/>
      <use x="376.074219" xlink:href="#DejaVuSans-72"/>
      <use x="417.1875" xlink:href="#DejaVuSans-75"/>
      <use x="480.566406" xlink:href="#DejaVuSans-6e"/>
      <use x="543.945312" xlink:href="#DejaVuSans-67"/>
      <use x="607.421875" xlink:href="#DejaVuSans-20"/>
      <use x="639.208984" xlink:href="#DejaVuSans-6e"/>
      <use x="702.587891" xlink:href="#DejaVuSans-61"/>
      <use x="763.867188" xlink:href="#DejaVuSans-63"/>
      <use x="818.847656" xlink:href="#DejaVuSans-68"/>
      <use x="882.226562" xlink:href="#DejaVuSans-20"/>
      <use x="914.013672" xlink:href="#DejaVuSans-76"/>
      <use x="973.083984" xlink:href="#DejaVuSans-2e"/>
      <use x="1004.871094" xlink:href="#DejaVuSans-64"/>
      <use x="1068.347656" xlink:href="#DejaVuSans-2e"/>
      <use x="1100.134766" xlink:href="#DejaVuSans-53"/>
      <use x="1163.611328" xlink:href="#DejaVuSans-61"/>
      <use x="1224.890625" xlink:href="#DejaVuSans-6e"/>
      <use x="1288.269531" xlink:href="#DejaVuSans-64"/>
      <use x="1351.746094" xlink:href="#DejaVuSans-74"/>
     </g>
    </g>
   </g>
  </g>
  <g id="axes_2">
   <g id="patch_8">
    <path d="M 57.6 213.662118 
L 414.72 213.662118 
L 414.72 135.393882 
L 57.6 135.393882 
z
" style="fill:#ffffff;"/>
   </g>
   <g id="matplotlib.axis_3">
    <g id="xtick_6">
     <g id="line2d_27">
      <path clip-path="url(#p0df3c6f2b1)" d="M 113.363458 213.662118 
L 113.363458 135.393882 
" style="fill:none;stroke:#b0b0b0;stroke-linecap:square;stroke-width:0.8;"/>
     </g>
     <g id="line2d_28">
      <g>
       <use style="stroke:#000000;stroke-width:0.8;" x="113.363458" xlink:href="#m9882e4bf5b" y="213.662118"/>
      </g>
     </g>
    </g>
    <g id="xtick_7">
     <g id="line2d_29">
      <path clip-path="url(#p0df3c6f2b1)" d="M 174.680407 213.662118 
L 174.680407 135.393882 
" style="fill:none;stroke:#b0b0b0;stroke-linecap:square;stroke-width:0.8;"/>
     </g>
     <g id="line2d_30">
      <g>
       <use style="stroke:#000000;stroke-width:0.8;" x="174.680407" xlink:href="#m9882e4bf5b" y="213.662118"/>
      </g>
     </g>
    </g>
    <g id="xtick_8">
     <g id="line2d_31">
      <path clip-path="url(#p0df3c6f2b1)" d="M 235.997357 213.662118 
L 235.997357 135.393882 
" style="fill:none;stroke:#b0b0b0;stroke-linecap:square;stroke-width:0.8;"/>
     </g>
     <g id="line2d_32">
      <g>
       <use style="stroke:#000000;stroke-width:0.8;" x="235.997357" xlink:href="#m9882e4bf5b" y="213.662118"/>
      </g>
     </g>
    </g>
    <g id="xtick_9">
     <g id="line2d_33">
      <path clip-path="url(#p0df3c6f2b1)" d="M 297.314306 213.662118 
L 297.314306 135.393882 
" style="fill:none;stroke:#b0b0b0;stroke-linecap:square;stroke-width:0.8;"/>
     </g>
     <g id="line2d_34">
      <g>
       <use style="stroke:#000000;stroke-width:0.8;" x="297.314306" xlink:href="#m9882e4bf5b" y="213.662118"/>
      </g>
     </g>
    </g>
    <g id="xtick_10">
     <g id="line2d_35">
      <path clip-path="url(#p0df3c6f2b1)" d="M 358.631256 213.662118 
L 358.631256 135.393882 
" style="fill:none;stroke:#b0b0b0;stroke-linecap:square;stroke-width:0.8;"/>
     </g>
     <g id="line2d_36">
      <g>
       <use style="stroke:#000000;stroke-width:0.8;" x="358.631256" xlink:href="#m9882e4bf5b" y="213.662118"/>
      </g>
     </g>
    </g>
   </g>
   <g id="matplotlib.axis_4">
    <g id="ytick_3">
     <g id="line2d_37">
      <path clip-path="url(#p0df3c6f2b1)" d="M 57.6 210.104471 
L 414.72 210.104471 
" style="fill:none;stroke:#b0b0b0;stroke-linecap:square;stroke-width:0.8;"/>
     </g>
     <g id="line2d_38">
      <g>
       <use style="stroke:#000000;stroke-width:0.8;" x="57.6" xlink:href="#m336409a68e" y="210.104471"/>
      </g>
     </g>
     <g id="text_8">
      <!-- 0.0 -->
      <g transform="translate(34.696875 213.903689)scale(0.1 -0.1)">
       <use xlink:href="#DejaVuSans-30"/>
       <use x="63.623047" xlink:href="#DejaVuSans-2e"/>
       <use x="95.410156" xlink:href="#DejaVuSans-30"/>
      </g>
     </g>
    </g>
    <g id="ytick_4">
     <g id="line2d_39">
      <path clip-path="url(#p0df3c6f2b1)" d="M 57.6 180.581872 
L 414.72 180.581872 
" style="fill:none;stroke:#b0b0b0;stroke-linecap:square;stroke-width:0.8;"/>
     </g>
     <g id="line2d_40">
      <g>
       <use style="stroke:#000000;stroke-width:0.8;" x="57.6" xlink:href="#m336409a68e" y="180.581872"/>
      </g>
     </g>
     <g id="text_9">
      <!-- 2.5 -->
      <defs>
       <path d="M 10.796875 72.90625 
L 49.515625 72.90625 
L 49.515625 64.59375 
L 19.828125 64.59375 
L 19.828125 46.734375 
Q 21.96875 47.46875 24.109375 47.828125 
Q 26.265625 48.1875 28.421875 48.1875 
Q 40.625 48.1875 47.75 41.5 
Q 54.890625 34.8125 54.890625 23.390625 
Q 54.890625 11.625 47.5625 5.09375 
Q 40.234375 -1.421875 26.90625 -1.421875 
Q 22.3125 -1.421875 17.546875 -0.640625 
Q 12.796875 0.140625 7.71875 1.703125 
L 7.71875 11.625 
Q 12.109375 9.234375 16.796875 8.0625 
Q 21.484375 6.890625 26.703125 6.890625 
Q 35.15625 6.890625 40.078125 11.328125 
Q 45.015625 15.765625 45.015625 23.390625 
Q 45.015625 31 40.078125 35.4375 
Q 35.15625 39.890625 26.703125 39.890625 
Q 22.75 39.890625 18.8125 39.015625 
Q 14.890625 38.140625 10.796875 36.28125 
z
" id="DejaVuSans-35"/>
      </defs>
      <g transform="translate(34.696875 184.381091)scale(0.1 -0.1)">
       <use xlink:href="#DejaVuSans-32"/>
       <use x="63.623047" xlink:href="#DejaVuSans-2e"/>
       <use x="95.410156" xlink:href="#DejaVuSans-35"/>
      </g>
     </g>
    </g>
    <g id="ytick_5">
     <g id="line2d_41">
      <path clip-path="url(#p0df3c6f2b1)" d="M 57.6 151.059274 
L 414.72 151.059274 
" style="fill:none;stroke:#b0b0b0;stroke-linecap:square;stroke-width:0.8;"/>
     </g>
     <g id="line2d_42">
      <g>
       <use style="stroke:#000000;stroke-width:0.8;" x="57.6" xlink:href="#m336409a68e" y="151.059274"/>
      </g>
     </g>
     <g id="text_10">
      <!-- 5.0 -->
      <g transform="translate(34.696875 154.858493)scale(0.1 -0.1)">
       <use xlink:href="#DejaVuSans-35"/>
       <use x="63.623047" xlink:href="#DejaVuSans-2e"/>
       <use x="95.410156" xlink:href="#DejaVuSans-30"/>
      </g>
     </g>
    </g>
    <g id="text_11">
     <!-- Kraefte auf eine Scheibe -->
     <defs>
      <path d="M 48.6875 27.296875 
Q 48.6875 37.203125 44.609375 42.84375 
Q 40.53125 48.484375 33.40625 48.484375 
Q 26.265625 48.484375 22.1875 42.84375 
Q 18.109375 37.203125 18.109375 27.296875 
Q 18.109375 17.390625 22.1875 11.75 
Q 26.265625 6.109375 33.40625 6.109375 
Q 40.53125 6.109375 44.609375 11.75 
Q 48.6875 17.390625 48.6875 27.296875 
z
M 18.109375 46.390625 
Q 20.953125 51.265625 25.265625 53.625 
Q 29.59375 56 35.59375 56 
Q 45.5625 56 51.78125 48.09375 
Q 58.015625 40.1875 58.015625 27.296875 
Q 58.015625 14.40625 51.78125 6.484375 
Q 45.5625 -1.421875 35.59375 -1.421875 
Q 29.59375 -1.421875 25.265625 0.953125 
Q 20.953125 3.328125 18.109375 8.203125 
L 18.109375 0 
L 9.078125 0 
L 9.078125 75.984375 
L 18.109375 75.984375 
z
" id="DejaVuSans-62"/>
     </defs>
     <g transform="translate(28.617187 236.078781)rotate(-90)scale(0.1 -0.1)">
      <use xlink:href="#DejaVuSans-4b"/>
      <use x="65.576172" xlink:href="#DejaVuSans-72"/>
      <use x="106.689453" xlink:href="#DejaVuSans-61"/>
      <use x="167.96875" xlink:href="#DejaVuSans-65"/>
      <use x="229.492188" xlink:href="#DejaVuSans-66"/>
      <use x="264.681641" xlink:href="#DejaVuSans-74"/>
      <use x="303.890625" xlink:href="#DejaVuSans-65"/>
      <use x="365.414062" xlink:href="#DejaVuSans-20"/>
      <use x="397.201172" xlink:href="#DejaVuSans-61"/>
      <use x="458.480469" xlink:href="#DejaVuSans-75"/>
      <use x="521.859375" xlink:href="#DejaVuSans-66"/>
      <use x="557.064453" xlink:href="#DejaVuSans-20"/>
      <use x="588.851562" xlink:href="#DejaVuSans-65"/>
      <use x="650.375" xlink:href="#DejaVuSans-69"/>
      <use x="678.158203" xlink:href="#DejaVuSans-6e"/>
      <use x="741.537109" xlink:href="#DejaVuSans-65"/>
      <use x="803.060547" xlink:href="#DejaVuSans-20"/>
      <use x="834.847656" xlink:href="#DejaVuSans-53"/>
      <use x="898.324219" xlink:href="#DejaVuSans-63"/>
      <use x="953.304688" xlink:href="#DejaVuSans-68"/>
      <use x="1016.683594" xlink:href="#DejaVuSans-65"/>
      <use x="1078.207031" xlink:href="#DejaVuSans-69"/>
      <use x="1105.990234" xlink:href="#DejaVuSans-62"/>
      <use x="1169.466797" xlink:href="#DejaVuSans-65"/>
     </g>
    </g>
   </g>
   <g id="line2d_43">
    <path clip-path="url(#p0df3c6f2b1)" d="M 73.832727 210.104471 
L 89.447395 210.104471 
L 89.772681 205.054966 
L 90.748541 199.962722 
L 91.399114 198.338052 
L 91.7244 198.717096 
L 92.049686 196.731204 
L 92.375279 196.626981 
L 92.700566 196.917255 
L 93.025852 194.161483 
L 93.351139 194.980671 
L 93.676425 193.676959 
L 94.001711 193.843495 
L 94.652284 191.214503 
L 94.977571 191.37382 
L 95.302857 191.25356 
L 95.628144 190.881565 
L 95.95343 189.676349 
L 96.278716 189.302127 
L 96.604003 187.163436 
L 96.929289 188.405731 
L 97.254576 186.8711 
L 97.580169 187.055543 
L 97.905455 186.266673 
L 98.230741 185.169055 
L 98.556028 185.315346 
L 98.881314 183.272898 
L 99.206601 183.738334 
L 99.531887 182.275341 
L 99.857174 181.667123 
L 100.18246 181.80287 
L 100.507746 180.335182 
L 100.833033 180.044652 
L 101.158319 180.517493 
L 101.808892 178.586453 
L 102.134178 178.890898 
L 102.459465 178.104879 
L 102.784751 175.918861 
L 103.110344 176.833762 
L 103.760917 176.159999 
L 104.086204 175.134379 
L 104.41149 174.823211 
L 104.736776 175.089113 
L 105.062063 172.9025 
L 105.387349 173.799155 
L 106.037922 172.495698 
L 106.363208 171.9409 
L 106.688495 172.020772 
L 107.013781 171.260294 
L 107.339068 171.136178 
L 107.664354 170.803712 
L 107.989641 169.812765 
L 108.315234 169.688347 
L 108.64052 168.912329 
L 108.965806 169.219236 
L 109.291093 168.007214 
L 109.616379 167.884088 
L 109.941666 166.449015 
L 110.266952 167.206174 
L 110.592238 167.082424 
L 111.242811 164.449115 
L 111.568098 164.946894 
L 111.893384 163.736942 
L 112.543957 163.444397 
L 112.869243 163.792421 
L 113.19453 162.106684 
L 113.520123 161.49148 
L 113.845409 162.043194 
L 114.170696 161.273777 
L 114.495982 161.586103 
L 114.821268 159.689133 
L 115.146555 160.190579 
L 115.471841 159.866863 
L 115.797128 159.359856 
L 116.122414 159.342739 
L 116.447701 158.317569 
L 116.772987 159.768866 
L 117.098273 158.827409 
L 117.42356 159.056046 
L 117.748846 157.769829 
L 118.074133 158.080461 
L 118.399419 156.880996 
L 118.724705 157.461698 
L 119.050298 157.055529 
L 119.375585 156.201782 
L 120.026158 155.866114 
L 120.351444 157.508454 
L 121.327303 154.33039 
L 121.65259 153.621018 
L 121.977876 154.191759 
L 122.303163 153.476068 
L 122.628449 153.35575 
L 122.953735 152.905291 
L 123.279022 153.506665 
L 123.604308 153.368265 
L 123.929595 152.336932 
L 124.255188 152.053156 
L 124.580474 152.219415 
L 124.905761 151.184644 
L 125.231047 152.532492 
L 125.556333 151.467678 
L 125.88162 151.941978 
L 126.206906 151.97299 
L 126.532193 152.150774 
L 126.857479 150.360629 
L 127.182765 150.226474 
L 127.508052 150.857776 
L 127.833338 148.861712 
L 128.158625 150.644015 
L 128.483911 151.143944 
L 128.809198 149.458732 
L 129.134484 149.194717 
L 129.460077 149.830675 
L 129.785363 149.240163 
L 130.11065 149.219043 
L 130.435936 149.078365 
L 130.761223 148.149705 
L 131.086509 149.579611 
L 131.411795 148.31431 
L 131.737082 147.72318 
L 132.062368 147.470024 
L 132.387655 147.774865 
L 132.712941 148.42437 
L 133.038228 147.830527 
L 133.363514 147.543418 
L 133.6888 148.794735 
L 134.014087 147.503748 
L 134.339373 146.913365 
L 134.990253 146.532103 
L 135.315539 147.197407 
L 135.640825 146.785712 
L 135.966112 147.907666 
L 136.291398 145.777638 
L 136.616685 145.376445 
L 136.941971 145.319217 
L 137.267258 145.793154 
L 137.592544 145.4805 
L 137.91783 144.961116 
L 138.243117 146.170083 
L 138.568403 145.036806 
L 138.89369 146.547799 
L 139.544262 144.603879 
L 139.869549 145.294922 
L 140.195142 144.314582 
L 141.171001 145.163325 
L 141.821574 144.996034 
L 142.14686 144.789915 
L 142.472147 144.191662 
L 142.797433 144.498806 
L 143.12272 144.351358 
L 143.448006 144.550699 
L 143.773292 144.006464 
L 144.098579 144.213542 
L 144.423865 144.218414 
L 144.749152 144.025112 
L 145.074438 143.972446 
L 145.399725 143.73847 
L 145.725318 143.226724 
L 146.050604 143.038341 
L 146.37589 143.305195 
L 146.701177 143.195508 
L 147.026463 143.574229 
L 147.35175 142.865409 
L 148.002322 143.478418 
L 148.652895 143.217896 
L 148.978182 142.19104 
L 149.628755 142.801901 
L 149.954041 142.219832 
L 150.279327 142.047118 
L 150.930207 143.523027 
L 151.255493 142.484229 
L 151.58078 142.792989 
L 151.906066 142.192484 
L 152.556639 141.898277 
L 152.881925 142.212034 
L 153.207212 141.611427 
L 153.532498 142.359365 
L 154.183071 142.061745 
L 154.508357 141.457866 
L 154.833644 142.217258 
L 155.809503 141.76816 
L 156.135096 142.072778 
L 156.785669 141.770105 
L 157.110955 143.425747 
L 157.436242 141.475509 
L 157.761528 140.909394 
L 158.086815 141.199494 
L 158.412101 141.919754 
L 158.737387 141.787188 
L 159.062674 142.115271 
L 159.713247 140.889009 
L 160.038533 141.193796 
L 160.363819 141.923831 
L 160.689106 141.378286 
L 161.014392 141.199277 
L 161.339679 141.471838 
L 161.665272 140.900244 
L 161.990558 141.624353 
L 162.315845 141.056716 
L 162.641131 140.907722 
L 162.966417 141.171207 
L 163.291704 141.06187 
L 163.61699 141.277552 
L 163.942277 141.217818 
L 164.267563 140.565275 
L 164.592849 140.966719 
L 164.918136 141.676811 
L 165.243422 140.723038 
L 165.568709 140.979885 
L 165.893995 140.377473 
L 166.219282 140.285383 
L 166.544568 141.324107 
L 166.870161 141.352661 
L 167.195447 140.628554 
L 167.520734 140.480095 
L 167.84602 140.785772 
L 168.496593 140.488044 
L 168.821879 139.953272 
L 169.147166 140.259146 
L 169.472452 140.872669 
L 169.797739 140.414178 
L 170.123025 140.645346 
L 170.448312 140.1179 
L 170.773598 140.345098 
L 171.098884 140.274558 
L 171.424171 140.580278 
L 171.749457 140.346921 
L 172.07505 139.824104 
L 172.400337 141.494644 
L 172.725623 140.2558 
L 173.376196 140.955296 
L 173.701482 140.082605 
L 174.352055 140.600908 
L 175.002628 140.302685 
L 175.327914 140.508037 
L 175.653201 140.004624 
L 175.978487 140.556884 
L 176.303774 140.404748 
L 176.62906 139.905306 
L 176.954346 140.210298 
L 177.279633 139.945081 
L 177.605226 141.04021 
L 178.581085 139.454759 
L 178.906372 140.332876 
L 179.556944 140.360769 
L 179.882231 141.118698 
L 180.207517 140.512169 
L 180.532804 140.234225 
L 180.85809 141.121475 
L 181.183376 140.19054 
L 181.508663 140.368296 
L 181.833949 139.7627 
L 182.484522 140.186326 
L 182.810115 140.67063 
L 183.460688 140.366351 
L 183.785974 140.670674 
L 184.111261 140.207207 
L 184.436547 140.822908 
L 184.761834 140.363706 
L 185.08712 140.21476 
L 185.412406 140.36909 
L 186.062979 140.822619 
L 186.388266 140.05927 
L 186.713552 140.518538 
L 187.364125 140.212003 
L 188.014698 140.815125 
L 188.340291 140.370876 
L 188.665577 140.799245 
L 189.31615 140.089459 
L 189.641436 140.56693 
L 189.966723 140.245423 
L 190.292009 140.726669 
L 190.617296 139.94858 
L 191.918441 140.352725 
L 192.243728 140.112176 
L 192.569014 140.048489 
L 192.894301 139.812654 
L 193.219587 140.573095 
L 193.870466 140.008601 
L 194.195753 140.840672 
L 194.521039 139.973723 
L 194.846326 140.084735 
L 195.171612 140.39076 
L 195.496899 139.529285 
L 195.822185 139.634543 
L 196.147471 140.19082 
L 196.798044 139.927779 
L 197.123331 140.186835 
L 197.448617 139.787313 
L 197.773903 139.846313 
L 198.09919 140.395314 
L 198.424476 139.788411 
L 199.075356 139.943135 
L 199.400642 139.554351 
L 199.725929 139.874384 
L 200.051215 140.397555 
L 200.701788 139.6412 
L 201.027074 139.947642 
L 201.352361 139.341117 
L 201.677647 139.415571 
L 202.002933 139.948295 
L 202.653506 139.642622 
L 202.978793 140.402886 
L 203.304079 139.339316 
L 203.629366 139.88331 
L 203.954652 139.947365 
L 204.280245 139.795398 
L 204.930818 139.982397 
L 205.256104 139.796018 
L 205.581391 140.101623 
L 205.906677 139.495965 
L 206.231963 139.297314 
L 206.55725 139.649767 
L 206.882536 139.551256 
L 207.207823 139.600293 
L 207.533109 140.102768 
L 207.858396 139.493516 
L 208.183682 140.253351 
L 208.508968 139.838711 
L 208.834255 139.686333 
L 209.485134 139.915011 
L 210.135707 139.617542 
L 210.460993 139.194902 
L 210.78628 139.955318 
L 211.111566 139.346637 
L 211.436853 139.650517 
L 212.087426 139.80099 
L 212.412712 139.648554 
L 212.737998 139.952376 
L 213.063285 139.800459 
L 213.388571 139.936971 
L 213.713858 139.212269 
L 214.039144 139.350305 
L 214.36443 139.36265 
L 214.690023 139.206907 
L 215.01531 139.962777 
L 215.340596 140.103039 
L 215.665883 139.792642 
L 216.316456 139.793268 
L 216.641742 139.64895 
L 216.967028 140.103103 
L 217.292315 139.64817 
L 217.617601 139.497267 
L 217.942888 139.491268 
L 218.268174 140.101876 
L 218.59346 140.261384 
L 218.918747 139.485913 
L 219.244033 139.332469 
L 219.56932 140.126749 
L 220.220199 140.10111 
L 220.545486 139.817472 
L 220.870772 139.022598 
L 221.196058 139.974958 
L 221.521345 139.49848 
L 221.846631 139.475951 
L 222.171918 139.321737 
L 222.497204 139.874458 
L 222.82249 139.260103 
L 223.147777 139.77146 
L 223.473063 139.494526 
L 223.79835 140.471306 
L 224.123636 139.52824 
L 224.448923 139.835369 
L 224.774209 139.571027 
L 225.099495 139.648043 
L 225.425088 139.383511 
L 225.750375 140.253864 
L 226.075661 139.538006 
L 226.400948 139.493981 
L 227.05152 140.097877 
L 227.376807 140.045939 
L 227.702093 140.50552 
L 228.02738 139.188609 
L 228.352666 139.49506 
L 228.677953 139.436535 
L 229.003239 140.099467 
L 229.328525 140.039273 
L 229.653812 139.706522 
L 229.979098 139.190513 
L 230.304385 139.582053 
L 230.629671 139.426104 
L 230.955264 140.09902 
L 231.28055 139.654868 
L 231.931123 139.877378 
L 232.25641 140.318791 
L 232.581696 140.168812 
L 232.906983 139.639009 
L 233.232269 139.485937 
L 233.557555 140.844873 
L 233.882842 139.709212 
L 234.208128 139.491678 
L 234.533415 138.951529 
L 234.858701 139.252538 
L 235.183987 139.943432 
L 235.509274 140.18172 
L 235.83456 140.151869 
L 236.160153 139.9408 
L 236.48544 139.333688 
L 236.810726 139.636015 
L 237.136013 140.392797 
L 237.461299 140.240049 
L 237.786585 139.63224 
L 238.111872 140.342952 
L 238.437158 139.784421 
L 238.762445 140.043609 
L 239.087731 139.482157 
L 239.738304 140.044328 
L 240.06359 140.72363 
L 240.388877 139.782426 
L 240.714163 139.63235 
L 241.03945 139.936543 
L 241.690329 139.632025 
L 242.340902 140.237158 
L 242.666188 139.655144 
L 242.991475 140.386782 
L 244.29262 139.763813 
L 245.26848 139.330476 
L 245.593766 139.620322 
L 245.919052 139.49039 
L 246.244339 140.236027 
L 247.545791 139.632043 
L 247.871077 139.929951 
L 248.52165 139.628094 
L 248.846937 139.932535 
L 249.172223 139.327913 
L 249.49751 140.078249 
L 249.822796 139.482063 
L 250.148082 139.787545 
L 250.473369 139.625465 
L 250.798655 139.916283 
L 251.123942 139.77488 
L 251.449228 140.078772 
L 251.774514 139.470196 
L 252.75068 140.354308 
L 253.075967 140.223965 
L 253.401253 139.591984 
L 253.72654 139.945166 
L 254.051826 140.649611 
L 254.702399 139.496011 
L 255.352972 140.072913 
L 255.678258 139.500387 
L 256.328831 140.031984 
L 256.654117 139.419525 
L 256.979404 140.589446 
L 257.30469 140.476039 
L 257.630283 139.912923 
L 257.95557 139.808323 
L 258.280856 140.017094 
L 258.606142 139.861437 
L 258.931429 140.264266 
L 259.256715 140.920139 
L 259.582002 139.108864 
L 259.907288 139.75883 
L 260.232574 140.972295 
L 260.557861 139.572465 
L 260.883147 139.759885 
L 261.208434 139.606353 
L 261.53372 140.301021 
L 261.859007 139.755374 
L 262.509579 140.360872 
L 262.835172 139.752422 
L 263.160459 140.127964 
L 263.485745 139.975999 
L 263.811032 140.129803 
L 264.136318 140.050009 
L 264.461604 140.741405 
L 264.786891 140.197294 
L 265.112177 141.119613 
L 265.437464 139.438864 
L 265.76275 140.571056 
L 266.088037 140.330982 
L 266.413323 139.895276 
L 267.063896 140.409777 
L 267.389182 140.440821 
L 267.714469 140.198204 
L 268.040062 139.687256 
L 268.690634 140.197483 
L 269.341207 139.99408 
L 269.666494 140.195628 
L 270.317067 139.995999 
L 270.642353 140.407443 
L 271.292926 140.342375 
L 271.618212 140.078206 
L 271.943499 140.039203 
L 272.268785 140.343183 
L 272.594071 139.853142 
L 273.244644 140.343129 
L 273.570237 139.736296 
L 273.895524 139.584456 
L 274.546097 140.315105 
L 274.871383 140.035227 
L 275.196669 140.34075 
L 275.521956 139.08463 
L 275.847242 140.492021 
L 276.172529 139.560921 
L 276.497815 140.184566 
L 276.823101 140.030002 
L 277.148388 140.332586 
L 277.473674 140.038301 
L 277.798961 140.169523 
L 278.124247 140.017496 
L 278.449534 140.320786 
L 278.775127 140.463638 
L 279.425699 140.018343 
L 279.750986 140.323496 
L 280.726845 140.313096 
L 281.052131 140.156858 
L 281.377418 140.912345 
L 281.702704 140.462708 
L 282.027991 140.472439 
L 282.353277 140.775251 
L 282.678564 140.913112 
L 283.00385 140.473051 
L 284.305302 140.953573 
L 284.630589 140.279668 
L 285.281161 140.331705 
L 285.606448 140.179912 
L 285.931734 140.66727 
L 286.257021 140.147025 
L 286.582307 140.903655 
L 286.907594 140.748263 
L 287.23288 141.23871 
L 287.558166 140.633478 
L 287.883453 140.748636 
L 288.208739 140.404392 
L 288.534026 140.379749 
L 288.859312 140.489851 
L 289.184598 140.338541 
L 290.486051 140.64035 
L 290.811337 140.691872 
L 291.136624 141.534707 
L 291.787196 140.280213 
L 292.112483 141.039855 
L 292.437769 140.432811 
L 292.763056 140.281586 
L 293.088342 140.344626 
L 293.413628 140.884993 
L 293.738915 140.495472 
L 294.064201 140.577232 
L 294.389488 141.090648 
L 295.040367 140.799685 
L 295.365654 140.421674 
L 295.69094 140.95167 
L 296.016226 140.34241 
L 296.992086 140.568585 
L 297.317372 140.888064 
L 297.642658 140.715012 
L 297.967945 141.016805 
L 298.293231 140.863936 
L 298.618518 140.498466 
L 298.943804 141.045947 
L 299.269091 140.857238 
L 299.594377 141.158834 
L 299.919663 141.005841 
L 300.245256 140.600766 
L 300.570543 141.355812 
L 300.895829 140.998878 
L 301.221116 140.844737 
L 301.546402 141.144145 
L 301.871688 140.784817 
L 302.196975 144.583186 
L 302.522261 142.102553 
L 303.172834 141.099502 
L 303.498121 140.684947 
L 304.148693 141.375564 
L 304.47398 140.410155 
L 304.799266 141.712181 
L 305.124553 141.011128 
L 305.450146 141.134211 
L 306.100718 140.828721 
L 306.426005 141.129578 
L 306.751291 141.256657 
L 307.076578 141.559193 
L 307.727151 140.969718 
L 308.377723 141.735221 
L 308.70301 141.580942 
L 309.028296 141.26641 
L 309.353583 141.114761 
L 309.678869 141.120302 
L 310.004155 141.262526 
L 310.329442 141.563301 
L 310.655035 141.564803 
L 310.980321 140.956241 
L 311.305608 141.106536 
L 311.630894 141.100547 
L 311.956181 141.558519 
L 312.281467 141.696899 
L 312.606753 141.39634 
L 312.93204 142.009585 
L 313.582613 141.253453 
L 313.907899 141.55712 
L 314.233185 141.222468 
L 314.558472 141.842019 
L 314.883758 141.366493 
L 315.534331 141.640329 
L 315.859618 141.551637 
L 316.510497 141.824455 
L 316.835783 141.999664 
L 317.811643 141.870793 
L 318.136929 143.988404 
L 318.462215 141.918908 
L 318.787502 141.884425 
L 319.112788 141.503036 
L 319.763361 141.993192 
L 320.088648 141.838559 
L 320.413934 142.000331 
L 320.73922 143.68804 
L 321.064507 142.728725 
L 321.3901 144.144208 
L 321.715386 142.531398 
L 322.040673 141.572439 
L 322.365959 142.587278 
L 323.016532 142.28408 
L 323.341818 141.862907 
L 323.667105 142.525602 
L 323.992391 141.639006 
L 324.317678 142.106356 
L 324.642964 143.776626 
L 324.96825 144.244529 
L 325.293537 142.189233 
L 325.618823 143.559688 
L 326.269396 143.825006 
L 326.594989 146.532552 
L 326.920275 142.016805 
L 327.245562 143.082607 
L 327.570848 142.998693 
L 327.896135 144.060901 
L 328.221421 143.524052 
L 329.19728 143.065447 
L 329.847853 143.659283 
L 330.17314 144.015812 
L 330.498426 143.917237 
L 330.823712 143.644832 
L 331.148999 143.88444 
L 331.474285 145.541761 
L 331.799572 143.630417 
L 332.450451 144.181753 
L 332.775738 144.075546 
L 333.101024 144.329456 
L 333.42631 143.357109 
L 333.751597 144.060711 
L 334.076883 145.629576 
L 334.40217 144.195529 
L 334.727456 144.980126 
L 335.052742 146.702338 
L 335.378029 146.787413 
L 335.703315 142.350841 
L 336.028602 143.911786 
L 336.353888 146.405711 
L 336.679175 144.042803 
L 337.004461 145.61507 
L 337.330054 145.459967 
L 337.65534 144.875404 
L 337.980627 146.979613 
L 338.305913 145.447175 
L 338.956486 146.062156 
L 339.281772 146.793217 
L 339.607059 146.250986 
L 339.932345 146.055247 
L 340.257632 145.031491 
L 340.582918 146.68164 
L 340.908205 145.606508 
L 341.233491 145.441713 
L 341.558777 147.970311 
L 341.884064 148.257436 
L 342.20935 149.890215 
L 342.534637 148.389292 
L 342.86023 147.792168 
L 343.185516 146.732871 
L 343.510802 150.176466 
L 343.836089 148.217728 
L 344.161375 148.521584 
L 344.811948 148.213011 
L 345.137235 148.947124 
L 345.462521 148.348975 
L 345.787807 150.033359 
L 346.113094 148.485433 
L 346.43838 150.148007 
L 346.763667 148.626644 
L 347.088953 148.919548 
L 347.414239 150.473808 
L 347.739526 149.90285 
L 348.065119 150.640703 
L 348.390405 150.581534 
L 348.715692 151.640084 
L 349.040978 149.770582 
L 349.366265 150.962639 
L 349.691551 151.189757 
L 350.342124 150.872233 
L 350.66741 150.332162 
L 350.992697 152.258255 
L 351.317983 153.467235 
L 351.643269 153.910102 
L 351.968556 152.369581 
L 352.293842 154.767627 
L 352.619129 152.90864 
L 352.944415 152.844851 
L 353.270008 154.828257 
L 353.595295 152.583403 
L 354.245867 155.184978 
L 354.571154 154.96994 
L 354.89644 154.361075 
L 355.221727 155.650016 
L 355.872299 155.272863 
L 356.197586 155.495713 
L 356.522872 156.669488 
L 356.848159 155.427934 
L 357.173445 156.41213 
L 357.498732 155.938363 
L 358.800184 158.843438 
L 359.12547 157.724499 
L 359.450757 158.528051 
L 359.776043 158.658208 
L 360.751902 159.496445 
L 361.077189 160.381188 
L 361.402475 160.578604 
L 361.727762 160.946526 
L 362.053048 160.26183 
L 362.378334 160.098979 
L 362.703621 162.404635 
L 363.028907 161.627996 
L 363.354194 162.000507 
L 363.67948 162.881951 
L 364.005073 162.465809 
L 364.330359 164.217177 
L 364.655646 162.488109 
L 364.980932 164.326392 
L 365.306219 164.360978 
L 365.631505 164.199825 
L 365.956792 164.810954 
L 366.282078 165.835952 
L 366.607364 165.029982 
L 366.932651 165.190616 
L 367.257937 165.793773 
L 367.583224 167.919686 
L 367.90851 167.099635 
L 368.233796 169.328646 
L 368.559083 167.541118 
L 368.884369 167.05934 
L 369.209962 169.706397 
L 369.535249 170.172014 
L 369.860535 169.927923 
L 370.185822 170.321713 
L 370.511108 170.354497 
L 370.836394 170.503467 
L 371.161681 171.020193 
L 371.486967 170.982446 
L 371.812254 171.735491 
L 372.13754 173.242475 
L 372.462826 172.389663 
L 372.788113 174.244379 
L 373.113399 174.765008 
L 373.438686 175.626112 
L 373.763972 174.580146 
L 374.089259 175.146747 
L 374.740138 175.392467 
L 375.065424 175.655895 
L 375.390711 178.04956 
L 375.715997 177.03463 
L 376.041284 178.575416 
L 376.36657 178.272094 
L 376.691856 178.534649 
L 377.017143 179.642414 
L 377.342429 179.902307 
L 377.667716 179.865049 
L 377.993002 181.533044 
L 378.318289 181.513813 
L 378.968861 184.114839 
L 379.294148 183.535333 
L 379.619434 184.097598 
L 380.270314 186.22306 
L 380.5956 185.601646 
L 380.920886 185.235443 
L 381.246173 186.061707 
L 381.571459 187.388305 
L 381.896746 189.275851 
L 382.222032 189.437303 
L 382.547319 188.139779 
L 382.872605 190.029137 
L 383.197891 189.788613 
L 383.523178 190.116119 
L 383.848464 191.654017 
L 384.173751 191.819633 
L 384.499037 192.531466 
L 384.824323 195.471601 
L 385.14961 193.009276 
L 385.475203 194.788159 
L 385.800489 195.082581 
L 386.125776 195.82146 
L 386.451062 197.568443 
L 386.776349 198.458971 
L 387.101635 199.020914 
L 387.426921 199.287492 
L 387.752208 200.852399 
L 388.077494 206.912848 
L 388.402781 210.104471 
L 398.487273 210.104471 
L 398.487273 210.104471 
" style="fill:none;stroke:#1f77b4;stroke-linecap:square;stroke-width:1.5;"/>
   </g>
   <g id="patch_9">
    <path d="M 57.6 213.662118 
L 57.6 135.393882 
" style="fill:none;stroke:#000000;stroke-linecap:square;stroke-linejoin:miter;stroke-width:0.8;"/>
   </g>
   <g id="patch_10">
    <path d="M 414.72 213.662118 
L 414.72 135.393882 
" style="fill:none;stroke:#000000;stroke-linecap:square;stroke-linejoin:miter;stroke-width:0.8;"/>
   </g>
   <g id="patch_11">
    <path d="M 57.6 213.662118 
L 414.72 213.662118 
" style="fill:none;stroke:#000000;stroke-linecap:square;stroke-linejoin:miter;stroke-width:0.8;"/>
   </g>
   <g id="patch_12">
    <path d="M 57.6 135.393882 
L 414.72 135.393882 
" style="fill:none;stroke:#000000;stroke-linecap:square;stroke-linejoin:miter;stroke-width:0.8;"/>
   </g>
  </g>
  <g id="axes_3">
   <g id="patch_13">
    <path d="M 57.6 307.584 
L 414.72 307.584 
L 414.72 229.315765 
L 57.6 229.315765 
z
" style="fill:#ffffff;"/>
   </g>
   <g id="matplotlib.axis_5">
    <g id="xtick_11">
     <g id="line2d_44">
      <path clip-path="url(#p180d4215c4)" d="M 113.363458 307.584 
L 113.363458 229.315765 
" style="fill:none;stroke:#b0b0b0;stroke-linecap:square;stroke-width:0.8;"/>
     </g>
     <g id="line2d_45">
      <g>
       <use style="stroke:#000000;stroke-width:0.8;" x="113.363458" xlink:href="#m9882e4bf5b" y="307.584"/>
      </g>
     </g>
     <g id="text_12">
      <!-- 4 -->
      <defs>
       <path d="M 10.59375 35.5 
L 73.1875 35.5 
L 73.1875 27.203125 
L 10.59375 27.203125 
z
" id="DejaVuSans-2212"/>
       <path d="M 37.796875 64.3125 
L 12.890625 25.390625 
L 37.796875 25.390625 
z
M 35.203125 72.90625 
L 47.609375 72.90625 
L 47.609375 25.390625 
L 58.015625 25.390625 
L 58.015625 17.1875 
L 47.609375 17.1875 
L 47.609375 0 
L 37.796875 0 
L 37.796875 17.1875 
L 4.890625 17.1875 
L 4.890625 26.703125 
z
" id="DejaVuSans-34"/>
      </defs>
      <g transform="translate(105.992364 322.182437)scale(0.1 -0.1)">
       <use xlink:href="#DejaVuSans-2212"/>
       <use x="83.789062" xlink:href="#DejaVuSans-34"/>
      </g>
     </g>
    </g>
    <g id="xtick_12">
     <g id="line2d_46">
      <path clip-path="url(#p180d4215c4)" d="M 174.680407 307.584 
L 174.680407 229.315765 
" style="fill:none;stroke:#b0b0b0;stroke-linecap:square;stroke-width:0.8;"/>
     </g>
     <g id="line2d_47">
      <g>
       <use style="stroke:#000000;stroke-width:0.8;" x="174.680407" xlink:href="#m9882e4bf5b" y="307.584"/>
      </g>
     </g>
     <g id="text_13">
      <!-- 2 -->
      <g transform="translate(167.309314 322.182437)scale(0.1 -0.1)">
       <use xlink:href="#DejaVuSans-2212"/>
       <use x="83.789062" xlink:href="#DejaVuSans-32"/>
      </g>
     </g>
    </g>
    <g id="xtick_13">
     <g id="line2d_48">
      <path clip-path="url(#p180d4215c4)" d="M 235.997357 307.584 
L 235.997357 229.315765 
" style="fill:none;stroke:#b0b0b0;stroke-linecap:square;stroke-width:0.8;"/>
     </g>
     <g id="line2d_49">
      <g>
       <use style="stroke:#000000;stroke-width:0.8;" x="235.997357" xlink:href="#m9882e4bf5b" y="307.584"/>
      </g>
     </g>
     <g id="text_14">
      <!-- 0 -->
      <g transform="translate(232.816107 322.182437)scale(0.1 -0.1)">
       <use xlink:href="#DejaVuSans-30"/>
      </g>
     </g>
    </g>
    <g id="xtick_14">
     <g id="line2d_50">
      <path clip-path="url(#p180d4215c4)" d="M 297.314306 307.584 
L 297.314306 229.315765 
" style="fill:none;stroke:#b0b0b0;stroke-linecap:square;stroke-width:0.8;"/>
     </g>
     <g id="line2d_51">
      <g>
       <use style="stroke:#000000;stroke-width:0.8;" x="297.314306" xlink:href="#m9882e4bf5b" y="307.584"/>
      </g>
     </g>
     <g id="text_15">
      <!-- 2 -->
      <g transform="translate(294.133056 322.182437)scale(0.1 -0.1)">
       <use xlink:href="#DejaVuSans-32"/>
      </g>
     </g>
    </g>
    <g id="xtick_15">
     <g id="line2d_52">
      <path clip-path="url(#p180d4215c4)" d="M 358.631256 307.584 
L 358.631256 229.315765 
" style="fill:none;stroke:#b0b0b0;stroke-linecap:square;stroke-width:0.8;"/>
     </g>
     <g id="line2d_53">
      <g>
       <use style="stroke:#000000;stroke-width:0.8;" x="358.631256" xlink:href="#m9882e4bf5b" y="307.584"/>
      </g>
     </g>
     <g id="text_16">
      <!-- 4 -->
      <g transform="translate(355.450006 322.182437)scale(0.1 -0.1)">
       <use xlink:href="#DejaVuSans-34"/>
      </g>
     </g>
    </g>
   </g>
   <g id="matplotlib.axis_6">
    <g id="ytick_6">
     <g id="line2d_54">
      <path clip-path="url(#p180d4215c4)" d="M 57.6 298.177352 
L 414.72 298.177352 
" style="fill:none;stroke:#b0b0b0;stroke-linecap:square;stroke-width:0.8;"/>
     </g>
     <g id="line2d_55">
      <g>
       <use style="stroke:#000000;stroke-width:0.8;" x="57.6" xlink:href="#m336409a68e" y="298.177352"/>
      </g>
     </g>
     <g id="text_17">
      <!-- 250 -->
      <g transform="translate(31.5125 301.976571)scale(0.1 -0.1)">
       <use xlink:href="#DejaVuSans-32"/>
       <use x="63.623047" xlink:href="#DejaVuSans-35"/>
       <use x="127.246094" xlink:href="#DejaVuSans-30"/>
      </g>
     </g>
    </g>
    <g id="ytick_7">
     <g id="line2d_56">
      <path clip-path="url(#p180d4215c4)" d="M 57.6 273.209524 
L 414.72 273.209524 
" style="fill:none;stroke:#b0b0b0;stroke-linecap:square;stroke-width:0.8;"/>
     </g>
     <g id="line2d_57">
      <g>
       <use style="stroke:#000000;stroke-width:0.8;" x="57.6" xlink:href="#m336409a68e" y="273.209524"/>
      </g>
     </g>
     <g id="text_18">
      <!-- 500 -->
      <g transform="translate(31.5125 277.008742)scale(0.1 -0.1)">
       <use xlink:href="#DejaVuSans-35"/>
       <use x="63.623047" xlink:href="#DejaVuSans-30"/>
       <use x="127.246094" xlink:href="#DejaVuSans-30"/>
      </g>
     </g>
    </g>
    <g id="ytick_8">
     <g id="line2d_58">
      <path clip-path="url(#p180d4215c4)" d="M 57.6 248.241695 
L 414.72 248.241695 
" style="fill:none;stroke:#b0b0b0;stroke-linecap:square;stroke-width:0.8;"/>
     </g>
     <g id="line2d_59">
      <g>
       <use style="stroke:#000000;stroke-width:0.8;" x="57.6" xlink:href="#m336409a68e" y="248.241695"/>
      </g>
     </g>
     <g id="text_19">
      <!-- 750 -->
      <defs>
       <path d="M 8.203125 72.90625 
L 55.078125 72.90625 
L 55.078125 68.703125 
L 28.609375 0 
L 18.3125 0 
L 43.21875 64.59375 
L 8.203125 64.59375 
z
" id="DejaVuSans-37"/>
      </defs>
      <g transform="translate(31.5125 252.040914)scale(0.1 -0.1)">
       <use xlink:href="#DejaVuSans-37"/>
       <use x="63.623047" xlink:href="#DejaVuSans-35"/>
       <use x="127.246094" xlink:href="#DejaVuSans-30"/>
      </g>
     </g>
    </g>
    <g id="text_20">
     <!-- Pressung einer Scheibe -->
     <g transform="translate(25.432812 327.068632)rotate(-90)scale(0.1 -0.1)">
      <use xlink:href="#DejaVuSans-50"/>
      <use x="60.287109" xlink:href="#DejaVuSans-72"/>
      <use x="101.369141" xlink:href="#DejaVuSans-65"/>
      <use x="162.892578" xlink:href="#DejaVuSans-73"/>
      <use x="214.992188" xlink:href="#DejaVuSans-73"/>
      <use x="267.091797" xlink:href="#DejaVuSans-75"/>
      <use x="330.470703" xlink:href="#DejaVuSans-6e"/>
      <use x="393.849609" xlink:href="#DejaVuSans-67"/>
      <use x="457.326172" xlink:href="#DejaVuSans-20"/>
      <use x="489.113281" xlink:href="#DejaVuSans-65"/>
      <use x="550.636719" xlink:href="#DejaVuSans-69"/>
      <use x="578.419922" xlink:href="#DejaVuSans-6e"/>
      <use x="641.798828" xlink:href="#DejaVuSans-65"/>
      <use x="703.322266" xlink:href="#DejaVuSans-72"/>
      <use x="744.435547" xlink:href="#DejaVuSans-20"/>
      <use x="776.222656" xlink:href="#DejaVuSans-53"/>
      <use x="839.699219" xlink:href="#DejaVuSans-63"/>
      <use x="894.679688" xlink:href="#DejaVuSans-68"/>
      <use x="958.058594" xlink:href="#DejaVuSans-65"/>
      <use x="1019.582031" xlink:href="#DejaVuSans-69"/>
      <use x="1047.365234" xlink:href="#DejaVuSans-62"/>
      <use x="1110.841797" xlink:href="#DejaVuSans-65"/>
     </g>
    </g>
   </g>
   <g id="line2d_60">
    <path clip-path="url(#p180d4215c4)" d="M 89.772681 299.097129 
L 90.097968 294.927375 
L 90.423254 291.502131 
L 91.073827 287.464421 
L 91.399114 286.435748 
L 91.7244 287.031869 
L 92.049686 284.009375 
L 92.375279 283.857171 
L 92.700566 284.28256 
L 93.025852 280.414444 
L 93.351139 281.526723 
L 93.676425 279.769989 
L 94.001711 279.990409 
L 94.652284 276.632525 
L 94.977571 276.829084 
L 95.302857 276.680635 
L 95.628144 276.224421 
L 95.95343 274.775887 
L 96.278716 274.334861 
L 96.604003 271.887137 
L 96.929289 273.294306 
L 97.254576 271.561583 
L 97.580169 271.766744 
L 98.230741 269.705503 
L 98.556028 269.862493 
L 98.881314 267.710878 
L 99.206601 268.193779 
L 99.531887 266.6898 
L 99.857174 266.076207 
L 100.18246 266.21258 
L 100.507746 264.755009 
L 100.833033 264.470775 
L 101.158319 264.934078 
L 101.808892 263.064482 
L 102.134178 263.355358 
L 102.459465 262.607226 
L 102.784751 260.573591 
L 103.110344 261.416564 
L 103.760917 260.794664 
L 104.086204 259.859726 
L 104.41149 259.578788 
L 104.736776 259.81878 
L 105.062063 257.871441 
L 105.387349 258.662864 
L 106.037922 257.515528 
L 106.363208 257.033222 
L 106.688495 257.10244 
L 107.013781 256.446309 
L 107.339068 256.339835 
L 107.664354 256.055459 
L 107.989641 255.214909 
L 108.315234 255.110108 
L 108.64052 254.460053 
L 108.965806 254.716404 
L 109.291093 253.709544 
L 109.616379 253.608075 
L 109.941666 252.436166 
L 110.266952 253.052035 
L 110.592238 252.951008 
L 111.242811 250.834676 
L 111.568098 251.229956 
L 111.893384 250.272877 
L 112.543957 250.043353 
L 112.869243 250.316486 
L 113.19453 249.002868 
L 113.520123 248.529227 
L 113.845409 248.953847 
L 114.170696 248.362338 
L 114.495982 248.601881 
L 114.821268 247.158607 
L 115.146555 247.537444 
L 116.122414 246.898009 
L 116.447701 246.131924 
L 116.772987 247.218718 
L 117.098273 246.511958 
L 117.42356 246.682997 
L 117.748846 245.725718 
L 118.074133 245.955822 
L 118.399419 245.071054 
L 118.724705 245.498141 
L 119.050298 245.199171 
L 119.375585 244.57446 
L 120.026158 244.330198 
L 120.351444 245.532631 
L 121.327303 243.222188 
L 121.65259 242.715537 
L 121.977876 243.122923 
L 122.303163 242.612403 
L 122.628449 242.526894 
L 122.953735 242.207562 
L 123.279022 242.634162 
L 123.604308 242.535785 
L 123.929595 241.806438 
L 124.255188 241.606899 
L 124.580474 241.723746 
L 124.905761 240.999212 
L 125.231047 241.944232 
L 125.556333 241.196753 
L 125.88162 241.528857 
L 126.532193 241.675485 
L 126.857479 240.426786 
L 127.182765 240.333966 
L 127.508052 240.771667 
L 127.833338 239.395551 
L 128.158625 240.6232 
L 128.483911 240.970845 
L 128.809198 239.804763 
L 129.134484 239.623554 
L 129.460077 240.060722 
L 129.785363 239.654718 
L 130.435936 239.543819 
L 130.761223 238.910122 
L 131.086509 239.887862 
L 131.411795 239.022096 
L 131.737082 238.620663 
L 132.062368 238.449327 
L 132.387655 238.655686 
L 132.712941 239.097049 
L 133.038228 238.69342 
L 133.363514 238.498965 
L 133.6888 239.349768 
L 134.014087 238.472132 
L 134.339373 238.073796 
L 134.990253 237.817544 
L 135.315539 238.265208 
L 135.640825 237.987913 
L 135.966112 238.745742 
L 136.291398 237.312711 
L 136.616685 237.045467 
L 136.941971 237.007415 
L 137.267258 237.323064 
L 137.592544 237.114701 
L 137.91783 236.769679 
L 138.243117 237.574935 
L 138.568403 236.819873 
L 138.89369 237.828078 
L 139.544262 236.533167 
L 139.869549 236.991264 
L 140.195142 236.342108 
L 141.171001 236.903841 
L 142.14686 236.656253 
L 142.472147 236.261056 
L 142.797433 236.463725 
L 143.12272 236.366372 
L 143.448006 236.498014 
L 143.773292 236.13908 
L 144.098579 236.275478 
L 144.423865 236.278689 
L 145.399725 235.962876 
L 145.725318 235.627391 
L 146.050604 235.504217 
L 146.37589 235.678751 
L 146.701177 235.606969 
L 147.026463 235.855064 
L 147.35175 235.391297 
L 148.002322 235.792233 
L 148.652895 235.621615 
L 148.978182 234.952334 
L 149.628755 235.349864 
L 149.954041 234.971031 
L 150.279327 234.858935 
L 150.930207 235.821481 
L 151.255493 235.142909 
L 151.58078 235.344052 
L 151.906066 234.953272 
L 152.556639 234.762447 
L 152.881925 234.965967 
L 153.207212 234.576789 
L 153.532498 235.061696 
L 154.183071 234.868422 
L 154.508357 234.47756 
L 154.833644 234.96936 
L 155.809503 234.678183 
L 156.135096 234.87558 
L 156.785669 234.679442 
L 157.110955 235.757711 
L 157.436242 234.488955 
L 157.761528 234.124047 
L 158.086815 234.310853 
L 158.412101 234.776363 
L 158.737387 234.6905 
L 159.062674 234.903151 
L 159.713247 234.110935 
L 160.038533 234.30718 
L 160.363819 234.779005 
L 160.689106 234.42618 
L 161.014392 234.310713 
L 161.339679 234.486584 
L 161.665272 234.118161 
L 161.990558 234.585147 
L 162.315845 234.218864 
L 162.641131 234.122972 
L 162.966417 234.292621 
L 163.291704 234.222183 
L 163.61699 234.361185 
L 163.942277 234.322666 
L 164.267563 233.902962 
L 164.592849 234.16093 
L 164.918136 234.619073 
L 165.243422 234.004252 
L 165.568709 234.169403 
L 165.893995 233.782538 
L 166.219282 233.723545 
L 166.544568 234.391217 
L 166.870161 234.409642 
L 167.195447 233.943576 
L 167.520734 233.848322 
L 167.84602 234.044561 
L 168.496593 233.85342 
L 168.821879 233.51112 
L 169.147166 233.706745 
L 169.472452 234.100426 
L 169.797739 233.806061 
L 170.123025 233.954356 
L 170.448312 233.616357 
L 170.773598 233.761794 
L 171.098884 233.716613 
L 171.424171 233.91259 
L 171.749457 233.762961 
L 172.07505 233.428637 
L 172.400337 234.501315 
L 172.725623 233.704603 
L 173.376196 234.153579 
L 173.701482 233.593784 
L 174.352055 233.92583 
L 175.002628 233.734626 
L 175.327914 233.866243 
L 175.653201 233.543933 
L 175.978487 233.897578 
L 176.303774 233.800017 
L 176.62906 233.480481 
L 176.954346 233.675475 
L 177.279633 233.505887 
L 177.605226 234.208236 
L 178.581085 233.193202 
L 178.906372 233.753964 
L 179.556944 233.771834 
L 179.882231 234.258786 
L 180.207517 233.868893 
L 180.532804 233.690791 
L 180.85809 234.260575 
L 181.183376 233.66283 
L 181.508663 233.776657 
L 181.833949 233.389453 
L 182.484522 233.660133 
L 182.810115 233.970591 
L 183.460688 233.77541 
L 183.785974 233.97062 
L 184.111261 233.673497 
L 184.436547 234.068431 
L 184.761834 233.773716 
L 185.08712 233.678331 
L 186.062979 234.068246 
L 186.388266 233.578864 
L 186.713552 233.872978 
L 187.364125 233.676566 
L 188.014698 234.063428 
L 188.340291 233.77831 
L 188.665577 234.05322 
L 189.31615 233.598167 
L 189.641436 233.904025 
L 189.966723 233.697959 
L 190.292009 234.006584 
L 190.617296 233.508122 
L 191.918441 233.76668 
L 192.894301 233.421329 
L 193.219587 233.907981 
L 193.870466 233.546475 
L 194.195753 234.079851 
L 194.521039 233.524186 
L 194.846326 233.595146 
L 195.171612 233.791052 
L 195.496899 233.240658 
L 195.822185 233.307726 
L 196.147471 233.663009 
L 196.798044 233.494835 
L 197.123331 233.660459 
L 197.448617 233.405157 
L 197.773903 233.442813 
L 198.09919 233.793971 
L 198.424476 233.405858 
L 199.075356 233.504644 
L 199.400642 233.256625 
L 200.051215 233.795407 
L 200.701788 233.31197 
L 201.027074 233.507523 
L 201.352361 233.120886 
L 201.677647 233.168258 
L 202.002933 233.50794 
L 202.653506 233.312876 
L 202.978793 233.798824 
L 203.304079 233.11974 
L 203.629366 233.466435 
L 203.954652 233.507346 
L 204.280245 233.410316 
L 204.930818 233.529729 
L 205.256104 233.410712 
L 205.581391 233.605946 
L 205.906677 233.219438 
L 206.231963 233.093027 
L 206.55725 233.317431 
L 207.207823 233.285897 
L 207.533109 233.606678 
L 207.858396 233.217878 
L 208.183682 233.703035 
L 208.508968 233.437961 
L 208.834255 233.340744 
L 209.485134 233.48668 
L 210.135707 233.296891 
L 210.460993 233.027927 
L 210.78628 233.512427 
L 211.111566 233.124397 
L 211.762139 233.397978 
L 212.087426 233.413885 
L 212.412712 233.316657 
L 212.737998 233.510548 
L 213.063285 233.413546 
L 213.388571 233.500706 
L 213.713858 233.038964 
L 214.36443 233.134584 
L 214.690023 233.035556 
L 215.01531 233.517192 
L 215.340596 233.606852 
L 215.665883 233.408558 
L 216.641742 233.31691 
L 216.967028 233.606892 
L 217.292315 233.316413 
L 217.942888 233.216447 
L 218.268174 233.606108 
L 218.59346 233.708178 
L 218.918747 233.213037 
L 219.244033 233.115385 
L 219.56932 233.622017 
L 220.220199 233.605618 
L 220.545486 233.424404 
L 220.870772 232.918505 
L 221.196058 233.524975 
L 221.521345 233.221039 
L 222.171918 233.108559 
L 222.497204 233.460783 
L 222.82249 233.069368 
L 223.147777 233.395042 
L 223.473063 233.218521 
L 223.79835 233.842686 
L 224.123636 233.239993 
L 224.448923 233.435828 
L 224.774209 233.267249 
L 225.099495 233.316332 
L 225.425088 233.147857 
L 225.750375 233.703363 
L 226.075661 233.246213 
L 226.400948 233.218174 
L 227.05152 233.60355 
L 227.376807 233.570341 
L 227.702093 233.864628 
L 228.02738 233.023929 
L 228.352666 233.218861 
L 228.677953 233.181601 
L 229.003239 233.604568 
L 229.328525 233.566079 
L 229.979098 233.025138 
L 230.304385 233.274274 
L 230.629671 233.174962 
L 230.955264 233.604281 
L 231.28055 233.320683 
L 231.931123 233.462647 
L 232.25641 233.744941 
L 232.581696 233.648926 
L 232.906983 233.310573 
L 233.232269 233.213052 
L 233.557555 234.082553 
L 233.882842 233.355334 
L 234.208128 233.216708 
L 234.533415 232.873412 
L 234.858701 233.064559 
L 235.183987 233.504834 
L 235.509274 233.657186 
L 235.83456 233.638086 
L 236.160153 233.503153 
L 236.48544 233.11616 
L 236.810726 233.308665 
L 237.136013 233.792357 
L 237.461299 233.694519 
L 237.786585 233.306259 
L 238.111872 233.760419 
L 238.437158 233.403312 
L 238.762445 233.568851 
L 239.087731 233.210646 
L 239.738304 233.569311 
L 240.06359 234.004632 
L 240.388877 233.402039 
L 240.714163 233.306328 
L 241.03945 233.500433 
L 241.690329 233.306122 
L 242.340902 233.692668 
L 242.666188 233.320859 
L 242.991475 233.788503 
L 244.943193 233.22127 
L 245.26848 233.114118 
L 245.593766 233.298662 
L 245.919052 233.215888 
L 246.244339 233.691944 
L 247.545791 233.306133 
L 247.871077 233.496222 
L 248.52165 233.303616 
L 248.846937 233.497873 
L 249.172223 233.112487 
L 249.49751 233.590999 
L 249.822796 233.210586 
L 250.148082 233.405306 
L 250.473369 233.30194 
L 250.798655 233.487492 
L 251.123942 233.397224 
L 251.449228 233.591333 
L 251.774514 233.20303 
L 252.75068 233.767695 
L 253.075967 233.684223 
L 253.401253 233.280603 
L 253.72654 233.505941 
L 254.051826 233.957095 
L 254.702399 233.219467 
L 255.352972 233.587587 
L 255.678258 233.222254 
L 256.328831 233.56142 
L 256.654117 233.170775 
L 256.979404 233.918474 
L 257.30469 233.845721 
L 257.630283 233.485346 
L 257.95557 233.418565 
L 258.280856 233.551903 
L 258.606142 233.452469 
L 258.931429 233.710023 
L 259.256715 234.130959 
L 259.582002 232.973272 
L 259.907288 233.386984 
L 260.232574 234.164518 
L 260.557861 233.268165 
L 260.883147 233.387657 
L 261.208434 233.289759 
L 261.53372 233.73356 
L 261.859007 233.384779 
L 262.509579 233.7719 
L 262.835172 233.382896 
L 263.160459 233.622794 
L 263.485745 233.525641 
L 263.811032 233.62397 
L 264.136318 233.572943 
L 264.461604 234.016051 
L 264.786891 233.667152 
L 265.112177 234.259375 
L 265.437464 233.183084 
L 265.76275 233.906672 
L 266.088037 233.752751 
L 266.413323 233.474076 
L 267.063896 233.80324 
L 267.389182 233.82314 
L 267.714469 233.667735 
L 268.040062 233.341333 
L 268.690634 233.667273 
L 270.317067 233.538421 
L 270.642353 233.801744 
L 271.292926 233.760049 
L 271.618212 233.590971 
L 271.943499 233.566035 
L 272.268785 233.760567 
L 272.594071 233.447174 
L 273.244644 233.760532 
L 273.570237 233.372609 
L 273.895524 233.275805 
L 274.546097 233.742581 
L 274.871383 233.563493 
L 275.196669 233.759008 
L 275.521956 232.957884 
L 275.847242 233.85597 
L 276.172529 233.260811 
L 276.497815 233.659007 
L 276.823101 233.560154 
L 277.148388 233.753778 
L 277.473674 233.565458 
L 277.798961 233.649381 
L 278.124247 233.55216 
L 278.775127 233.837769 
L 279.425699 233.552701 
L 279.750986 233.747955 
L 281.052131 233.641278 
L 281.377418 234.125945 
L 281.702704 233.837173 
L 282.027991 233.843413 
L 282.678564 234.126438 
L 283.00385 233.843805 
L 284.305302 234.15247 
L 284.630589 233.719885 
L 285.281161 233.753214 
L 285.606448 233.656029 
L 285.931734 233.968434 
L 286.257021 233.634987 
L 286.582307 234.120355 
L 286.907594 234.020458 
L 287.23288 234.336136 
L 287.558166 233.946737 
L 287.883453 234.020698 
L 288.208739 233.799789 
L 289.510191 233.824564 
L 290.811337 233.984233 
L 291.136624 234.5272 
L 291.787196 233.720234 
L 292.112483 234.208007 
L 292.437769 233.818005 
L 292.763056 233.721114 
L 293.088342 233.761491 
L 293.413628 234.108352 
L 293.738915 233.858183 
L 294.064201 233.910635 
L 294.389488 234.240717 
L 295.040367 234.053503 
L 295.365654 233.810866 
L 295.69094 234.151245 
L 296.016226 233.760071 
L 296.992086 233.905087 
L 297.317372 234.110327 
L 297.642658 233.999096 
L 297.967945 234.193167 
L 298.293231 234.09481 
L 298.618518 233.860104 
L 298.943804 234.21193 
L 299.269091 234.090503 
L 299.594377 234.284647 
L 299.919663 234.186109 
L 300.245256 233.925739 
L 300.570543 234.411675 
L 301.221116 234.082465 
L 301.546402 234.275181 
L 301.871688 234.043947 
L 302.196975 236.519487 
L 302.522261 234.894898 
L 303.172834 234.24642 
L 303.498121 233.979785 
L 304.148693 234.424423 
L 304.47398 233.803482 
L 304.799266 234.641956 
L 305.124553 234.189513 
L 305.450146 234.26878 
L 306.100718 234.072168 
L 307.076578 234.543024 
L 307.727151 234.162859 
L 308.377723 234.656865 
L 309.678869 234.25982 
L 310.655035 234.546649 
L 310.980321 234.154187 
L 312.281467 234.632069 
L 312.606753 234.437834 
L 312.93204 234.834594 
L 313.582613 234.345643 
L 313.907899 234.541684 
L 314.233185 234.325664 
L 314.558472 234.726005 
L 314.883758 234.418568 
L 315.534331 234.595478 
L 315.859618 234.53814 
L 317.486356 234.845336 
L 317.811643 234.744641 
L 318.136929 236.127194 
L 318.462215 234.775815 
L 318.787502 234.753473 
L 319.112788 234.506737 
L 319.763361 234.823965 
L 320.088648 234.723763 
L 320.413934 234.828593 
L 320.73922 235.929758 
L 321.064507 235.302149 
L 321.3901 236.229785 
L 321.715386 235.173607 
L 322.040673 234.551585 
L 322.365959 235.209989 
L 323.016532 235.012766 
L 323.341818 234.739533 
L 323.667105 235.169835 
L 323.992391 234.594622 
L 324.317678 234.897366 
L 324.642964 235.987941 
L 324.96825 236.295906 
L 325.293537 234.951161 
L 325.618823 235.845525 
L 326.269396 236.019733 
L 326.594989 237.817845 
L 326.920275 234.839276 
L 327.245562 235.533144 
L 327.570848 235.478315 
L 327.896135 236.174916 
L 328.221421 235.822153 
L 329.19728 235.521929 
L 329.847853 235.910879 
L 330.17314 236.145233 
L 330.498426 236.080374 
L 330.823712 235.901393 
L 331.148999 236.058806 
L 331.474285 237.155488 
L 331.799572 235.891932 
L 332.450451 236.254525 
L 332.775738 236.184559 
L 333.101024 236.351921 
L 333.42631 235.712745 
L 333.751597 236.17479 
L 334.076883 237.213987 
L 334.40217 236.263604 
L 334.727456 236.782283 
L 335.052742 237.931866 
L 335.378029 237.989057 
L 335.703315 235.056155 
L 336.028602 236.076789 
L 336.353888 237.732763 
L 336.679175 236.163 
L 337.004461 237.204321 
L 337.330054 237.101035 
L 337.65534 236.712873 
L 337.980627 238.118401 
L 338.305913 237.092522 
L 338.956486 237.50274 
L 339.281772 237.992959 
L 339.607059 237.629092 
L 339.932345 237.498121 
L 340.257632 236.816348 
L 340.582918 237.917958 
L 340.908205 237.198616 
L 341.233491 237.088888 
L 341.558777 238.788256 
L 341.884064 238.983391 
L 342.20935 240.101769 
L 342.534637 239.073153 
L 342.86023 238.667414 
L 343.185516 237.952387 
L 343.510802 240.299392 
L 343.836089 238.956378 
L 344.161375 239.16331 
L 344.811948 238.953169 
L 345.137235 239.453972 
L 345.462521 239.045697 
L 345.787807 240.200535 
L 346.113094 239.138663 
L 346.43838 240.279724 
L 346.763667 239.234976 
L 347.088953 239.435106 
L 347.414239 240.505174 
L 347.739526 240.110481 
L 348.065119 240.620902 
L 348.390405 240.579855 
L 348.715692 241.317315 
L 349.040978 240.019315 
L 349.366265 240.844598 
L 349.691551 241.002777 
L 350.342124 240.781719 
L 350.66741 240.407082 
L 350.992697 241.751067 
L 351.317983 242.606122 
L 351.643269 242.921622 
L 351.968556 241.829427 
L 352.293842 243.53608 
L 352.619129 242.209931 
L 352.944415 242.164811 
L 353.270008 243.579704 
L 353.595295 241.980143 
L 354.245867 243.836855 
L 354.571154 243.68174 
L 354.89644 243.244177 
L 355.221727 244.173346 
L 355.872299 243.900337 
L 356.197586 244.061537 
L 356.522872 244.916076 
L 356.848159 244.012474 
L 357.173445 244.727916 
L 357.498732 244.382709 
L 358.800184 246.523937 
L 359.12547 245.692197 
L 359.450757 246.288589 
L 360.101329 246.595277 
L 360.751902 247.013535 
L 361.077189 247.681945 
L 361.402475 247.8319 
L 361.727762 248.112168 
L 362.053048 247.591427 
L 362.378334 247.468099 
L 362.703621 249.233349 
L 363.028907 248.63407 
L 363.354194 248.920907 
L 363.67948 249.604084 
L 364.005073 249.280759 
L 364.330359 250.651234 
L 364.655646 249.298049 
L 364.980932 250.737555 
L 365.306219 250.764913 
L 365.631505 250.637528 
L 365.956792 251.121793 
L 366.282078 251.941406 
L 366.607364 251.296147 
L 366.932651 251.424288 
L 367.257937 251.907493 
L 367.583224 253.637397 
L 367.90851 252.965051 
L 368.233796 254.808025 
L 368.559083 253.326211 
L 368.884369 252.932179 
L 369.209962 255.125302 
L 369.535249 255.518427 
L 369.860535 255.312055 
L 370.185822 255.645306 
L 370.836394 255.799675 
L 371.161681 256.24049 
L 371.486967 256.20819 
L 371.812254 256.855542 
L 372.13754 258.170381 
L 372.462826 257.423074 
L 372.788113 259.059468 
L 373.113399 259.526377 
L 373.438686 260.306246 
L 373.763972 259.360199 
L 374.089259 259.870918 
L 374.740138 260.093689 
L 375.065424 260.333393 
L 375.390711 262.554921 
L 375.715997 261.603185 
L 376.041284 263.053964 
L 376.36657 262.765605 
L 376.691856 263.015128 
L 377.017143 264.079511 
L 377.342429 264.332016 
L 377.667716 264.29575 
L 377.993002 265.941828 
L 378.318289 265.92258 
L 378.968861 268.58754 
L 379.294148 267.982641 
L 379.619434 268.569446 
L 380.270314 270.847129 
L 380.5956 270.171079 
L 380.920886 269.776689 
L 381.246173 270.670752 
L 381.571459 272.138973 
L 381.896746 274.304044 
L 382.222032 274.493706 
L 382.547319 272.989736 
L 382.872605 275.195369 
L 383.197891 274.908979 
L 383.523178 275.299359 
L 383.848464 277.176816 
L 384.173751 277.383593 
L 384.499037 278.28319 
L 384.824323 282.207779 
L 385.14961 278.897292 
L 385.475203 281.262678 
L 385.800489 281.66718 
L 386.125776 282.700129 
L 386.451062 285.254231 
L 387.101635 287.516881 
L 387.426921 287.947949 
L 387.752208 290.59338 
L 388.077494 304.026353 
L 388.077494 304.026353 
" style="fill:none;stroke:#1f77b4;stroke-linecap:square;stroke-width:1.5;"/>
   </g>
   <g id="patch_14">
    <path d="M 57.6 307.584 
L 57.6 229.315765 
" style="fill:none;stroke:#000000;stroke-linecap:square;stroke-linejoin:miter;stroke-width:0.8;"/>
   </g>
   <g id="patch_15">
    <path d="M 414.72 307.584 
L 414.72 229.315765 
" style="fill:none;stroke:#000000;stroke-linecap:square;stroke-linejoin:miter;stroke-width:0.8;"/>
   </g>
   <g id="patch_16">
    <path d="M 57.6 307.584 
L 414.72 307.584 
" style="fill:none;stroke:#000000;stroke-linecap:square;stroke-linejoin:miter;stroke-width:0.8;"/>
   </g>
   <g id="patch_17">
    <path d="M 57.6 229.315765 
L 414.72 229.315765 
" style="fill:none;stroke:#000000;stroke-linecap:square;stroke-linejoin:miter;stroke-width:0.8;"/>
   </g>
   <g id="legend_2">
    <g id="patch_18">
     <path d="M 381.008 246.99389 
L 549.22675 246.99389 
Q 551.22675 246.99389 551.22675 244.99389 
L 551.22675 231.315765 
Q 551.22675 229.315765 549.22675 229.315765 
L 381.008 229.315765 
Q 379.008 229.315765 379.008 231.315765 
L 379.008 244.99389 
Q 379.008 246.99389 381.008 246.99389 
z
" style="fill:#ffffff;opacity:0.8;stroke:#cccccc;stroke-linejoin:miter;"/>
    </g>
    <g id="line2d_61">
     <path d="M 383.008 237.414202 
L 403.008 237.414202 
" style="fill:none;stroke:#1f77b4;stroke-linecap:square;stroke-width:1.5;"/>
    </g>
    <g id="line2d_62"/>
    <g id="text_21">
     <!-- Pressung einer inf. Scheibe -->
     <g transform="translate(411.008 240.914202)scale(0.1 -0.1)">
      <use xlink:href="#DejaVuSans-50"/>
      <use x="60.287109" xlink:href="#DejaVuSans-72"/>
      <use x="101.369141" xlink:href="#DejaVuSans-65"/>
      <use x="162.892578" xlink:href="#DejaVuSans-73"/>
      <use x="214.992188" xlink:href="#DejaVuSans-73"/>
      <use x="267.091797" xlink:href="#DejaVuSans-75"/>
      <use x="330.470703" xlink:href="#DejaVuSans-6e"/>
      <use x="393.849609" xlink:href="#DejaVuSans-67"/>
      <use x="457.326172" xlink:href="#DejaVuSans-20"/>
      <use x="489.113281" xlink:href="#DejaVuSans-65"/>
      <use x="550.636719" xlink:href="#DejaVuSans-69"/>
      <use x="578.419922" xlink:href="#DejaVuSans-6e"/>
      <use x="641.798828" xlink:href="#DejaVuSans-65"/>
      <use x="703.322266" xlink:href="#DejaVuSans-72"/>
      <use x="744.435547" xlink:href="#DejaVuSans-20"/>
      <use x="776.222656" xlink:href="#DejaVuSans-69"/>
      <use x="804.005859" xlink:href="#DejaVuSans-6e"/>
      <use x="867.384766" xlink:href="#DejaVuSans-66"/>
      <use x="902.480469" xlink:href="#DejaVuSans-2e"/>
      <use x="934.267578" xlink:href="#DejaVuSans-20"/>
      <use x="966.054688" xlink:href="#DejaVuSans-53"/>
      <use x="1029.53125" xlink:href="#DejaVuSans-63"/>
      <use x="1084.511719" xlink:href="#DejaVuSans-68"/>
      <use x="1147.890625" xlink:href="#DejaVuSans-65"/>
      <use x="1209.414062" xlink:href="#DejaVuSans-69"/>
      <use x="1237.197266" xlink:href="#DejaVuSans-62"/>
      <use x="1300.673828" xlink:href="#DejaVuSans-65"/>
     </g>
    </g>
   </g>
  </g>
 </g>
 <defs>
  <clipPath id="p472d4edb9e">
   <rect height="78.268235" width="357.12" x="57.6" y="41.472"/>
  </clipPath>
  <clipPath id="p0df3c6f2b1">
   <rect height="78.268235" width="357.12" x="57.6" y="135.393882"/>
  </clipPath>
  <clipPath id="p180d4215c4">
   <rect height="78.268235" width="357.12" x="57.6" y="229.315765"/>
  </clipPath>
 </defs>
</svg>
